G04*
G04 #@! TF.GenerationSoftware,Altium Limited,Altium Designer,20.2.5 (213)*
G04*
G04 Layer_Physical_Order=1*
G04 Layer_Color=255*
%FSLAX25Y25*%
%MOIN*%
G70*
G04*
G04 #@! TF.SameCoordinates,4658FE5A-7A30-472D-B718-34B1B9A5D075*
G04*
G04*
G04 #@! TF.FilePolarity,Positive*
G04*
G01*
G75*
%ADD10C,0.00787*%
%ADD13C,0.00800*%
%ADD15C,0.01000*%
%ADD17C,0.00600*%
%ADD56C,0.03098*%
%ADD72R,0.04134X0.04528*%
%ADD73R,0.03347X0.02953*%
%ADD74R,0.03937X0.03543*%
%ADD75R,0.03740X0.03740*%
%ADD76R,0.02953X0.03347*%
%ADD77R,0.02756X0.03543*%
%ADD78R,0.02520X0.02362*%
%ADD79R,0.02559X0.02362*%
%ADD80R,0.02362X0.02520*%
%ADD81C,0.04921*%
%ADD82R,0.03543X0.03937*%
%ADD83R,0.02126X0.02165*%
%ADD84R,0.03937X0.07087*%
%ADD85R,0.02264X0.00984*%
%ADD86R,0.00984X0.02264*%
%ADD87O,0.02465X0.00890*%
%ADD88R,0.01378X0.01732*%
%ADD89R,0.01732X0.01378*%
%ADD90R,0.18110X0.18110*%
%ADD91O,0.03150X0.00787*%
%ADD92O,0.00787X0.03150*%
%ADD93R,0.02165X0.02126*%
%ADD94R,0.01870X0.01181*%
%ADD95R,0.03543X0.03150*%
%ADD96R,0.02200X0.05200*%
%ADD97R,0.03150X0.01968*%
%ADD98R,0.01181X0.01968*%
%ADD99R,0.02362X0.02559*%
%ADD100R,0.02362X0.01968*%
%ADD101R,0.03937X0.03150*%
%ADD102R,0.05906X0.10236*%
%ADD103R,0.05118X0.05512*%
%ADD104R,0.02165X0.02756*%
%ADD105R,0.03150X0.10433*%
%ADD106R,0.02165X0.02165*%
%ADD107C,0.01500*%
%ADD108C,0.01700*%
%ADD109C,0.01200*%
%ADD110C,0.07677*%
%ADD111C,0.02400*%
%ADD112C,0.09291*%
%ADD113C,0.12520*%
%ADD114C,0.01772*%
%ADD115C,0.02559*%
G36*
X421213Y329504D02*
X421146Y329480D01*
X421087Y329440D01*
X421035Y329384D01*
X420992Y329312D01*
X420957Y329224D01*
X420929Y329120D01*
X420910Y329001D01*
X420898Y328865D01*
X420894Y328713D01*
X420106D01*
X420102Y328865D01*
X420090Y329001D01*
X420071Y329120D01*
X420043Y329224D01*
X420008Y329312D01*
X419965Y329384D01*
X419913Y329440D01*
X419854Y329480D01*
X419787Y329504D01*
X419713Y329512D01*
X421287D01*
X421213Y329504D01*
D02*
G37*
G36*
X395642Y329124D02*
X395666Y329077D01*
X395706Y329036D01*
X395762Y329000D01*
X395834Y328969D01*
X395922Y328944D01*
X396026Y328925D01*
X396146Y328911D01*
X396282Y328903D01*
X396323Y328902D01*
X396340Y328902D01*
X396824Y328935D01*
X396954Y328955D01*
X397069Y328979D01*
X397167Y329008D01*
X397250Y329041D01*
X397316Y329078D01*
X397367Y329120D01*
Y327880D01*
X397316Y327922D01*
X397250Y327959D01*
X397167Y327992D01*
X397069Y328021D01*
X396954Y328045D01*
X396824Y328065D01*
X396517Y328091D01*
X396278Y328097D01*
X396026Y328075D01*
X395922Y328056D01*
X395834Y328031D01*
X395762Y328000D01*
X395706Y327964D01*
X395666Y327923D01*
X395642Y327876D01*
X395634Y327823D01*
Y329177D01*
X395642Y329124D01*
D02*
G37*
G36*
X420898Y327797D02*
X420910Y327661D01*
X420929Y327541D01*
X420957Y327437D01*
X420992Y327349D01*
X421035Y327277D01*
X421087Y327221D01*
X421146Y327181D01*
X421213Y327157D01*
X421287Y327149D01*
X419713D01*
X419787Y327157D01*
X419854Y327181D01*
X419913Y327221D01*
X419965Y327277D01*
X420008Y327349D01*
X420043Y327437D01*
X420071Y327541D01*
X420090Y327661D01*
X420102Y327797D01*
X420106Y327949D01*
X420894D01*
X420898Y327797D01*
D02*
G37*
G36*
X392713Y327826D02*
X392646Y327802D01*
X392587Y327762D01*
X392535Y327706D01*
X392492Y327634D01*
X392457Y327546D01*
X392429Y327442D01*
X392409Y327322D01*
X392398Y327187D01*
X392394Y327036D01*
X391606D01*
X391604Y327185D01*
X391585Y327437D01*
X391568Y327540D01*
X391546Y327626D01*
X391520Y327697D01*
X391489Y327752D01*
X391453Y327792D01*
X391412Y327815D01*
X391366Y327823D01*
X392787Y327835D01*
X392713Y327826D01*
D02*
G37*
G36*
X421213Y323843D02*
X421146Y323819D01*
X421087Y323779D01*
X421035Y323723D01*
X420992Y323651D01*
X420957Y323563D01*
X420929Y323459D01*
X420910Y323339D01*
X420898Y323203D01*
X420894Y323051D01*
X420106D01*
X420102Y323203D01*
X420090Y323339D01*
X420071Y323459D01*
X420043Y323563D01*
X420008Y323651D01*
X419965Y323723D01*
X419913Y323779D01*
X419854Y323819D01*
X419787Y323843D01*
X419713Y323851D01*
X421287D01*
X421213Y323843D01*
D02*
G37*
G36*
X426433Y314500D02*
X426457Y314432D01*
X426497Y314372D01*
X426553Y314320D01*
X426625Y314276D01*
X426713Y314240D01*
X426817Y314212D01*
X426853Y314206D01*
X426905Y314210D01*
X427036Y314229D01*
X427150Y314251D01*
X427250Y314279D01*
X427333Y314310D01*
X427401Y314345D01*
X427454Y314385D01*
X427400Y313146D01*
X427351Y313190D01*
X427285Y313229D01*
X427204Y313263D01*
X427107Y313293D01*
X426993Y313319D01*
X426864Y313339D01*
X426830Y313343D01*
X426817Y313340D01*
X426713Y313312D01*
X426625Y313276D01*
X426553Y313232D01*
X426497Y313180D01*
X426457Y313120D01*
X426433Y313052D01*
X426425Y312976D01*
Y313370D01*
X426187Y313376D01*
X426226Y314176D01*
X426419Y314178D01*
X426425Y314179D01*
Y314576D01*
X426433Y314500D01*
D02*
G37*
G36*
X418587Y309472D02*
X418579Y309548D01*
X418554Y309616D01*
X418514Y309676D01*
X418457Y309728D01*
X418384Y309772D01*
X418295Y309808D01*
X418189Y309836D01*
X418067Y309856D01*
X418019Y309860D01*
X417676Y309836D01*
X417546Y309817D01*
X417431Y309792D01*
X417333Y309764D01*
X417250Y309731D01*
X417184Y309693D01*
X417133Y309652D01*
Y310892D01*
X417184Y310850D01*
X417250Y310812D01*
X417333Y310780D01*
X417431Y310751D01*
X417546Y310727D01*
X417676Y310707D01*
X417983Y310681D01*
X417984Y310680D01*
X418067Y310688D01*
X418189Y310708D01*
X418295Y310736D01*
X418384Y310772D01*
X418457Y310816D01*
X418514Y310868D01*
X418554Y310928D01*
X418579Y310996D01*
X418587Y311072D01*
Y309472D01*
D02*
G37*
G36*
X429930Y309662D02*
X429879Y309703D01*
X429812Y309740D01*
X429729Y309773D01*
X429631Y309801D01*
X429516Y309825D01*
X429386Y309845D01*
X429079Y309871D01*
X428708Y309879D01*
X428700Y310679D01*
X428894Y310682D01*
X429378Y310715D01*
X429508Y310735D01*
X429622Y310759D01*
X429720Y310788D01*
X429802Y310822D01*
X429869Y310859D01*
X429920Y310902D01*
X429930Y309662D01*
D02*
G37*
G36*
X426433Y311003D02*
X426457Y310935D01*
X426497Y310875D01*
X426553Y310823D01*
X426625Y310779D01*
X426713Y310743D01*
X426817Y310715D01*
X426937Y310695D01*
X427073Y310683D01*
X427225Y310679D01*
Y309879D01*
X427073Y309875D01*
X426937Y309863D01*
X426817Y309843D01*
X426713Y309815D01*
X426625Y309779D01*
X426553Y309735D01*
X426497Y309683D01*
X426457Y309623D01*
X426433Y309555D01*
X426425Y309479D01*
Y311079D01*
X426433Y311003D01*
D02*
G37*
G36*
X399539Y309256D02*
X399554Y309194D01*
X399585Y309140D01*
X399632Y309092D01*
X399694Y309052D01*
X399772Y309019D01*
X399865Y308994D01*
X399974Y308976D01*
X400099Y308965D01*
X400118Y308964D01*
X400590Y308997D01*
X400720Y309018D01*
X400834Y309043D01*
X400933Y309072D01*
X401017Y309106D01*
X401084Y309144D01*
X401137Y309188D01*
X401137Y307947D01*
X401084Y307990D01*
X401017Y308029D01*
X400933Y308063D01*
X400834Y308092D01*
X400720Y308117D01*
X400590Y308137D01*
X400282Y308165D01*
X399913Y308174D01*
Y308566D01*
X399588Y308174D01*
X399588D01*
X399182Y308156D01*
X398874Y308136D01*
X398788Y308122D01*
X398647Y308088D01*
X398591Y308068D01*
X399539Y309326D01*
X399539Y309256D01*
D02*
G37*
G36*
X394455Y303943D02*
X394447Y303854D01*
X394452Y303763D01*
X394469Y303671D01*
X394500Y303578D01*
X394544Y303483D01*
X394600Y303386D01*
X394670Y303288D01*
X394752Y303188D01*
X394848Y303087D01*
X394259Y302562D01*
X394158Y302658D01*
X394058Y302742D01*
X393960Y302813D01*
X393862Y302873D01*
X393766Y302921D01*
X393671Y302957D01*
X393577Y302980D01*
X393484Y302993D01*
X393393Y302993D01*
X393302Y302981D01*
X394476Y304030D01*
X394455Y303943D01*
D02*
G37*
G36*
X398696Y303111D02*
X398674Y303083D01*
X398654Y303046D01*
X398637Y302999D01*
X398623Y302944D01*
X398611Y302879D01*
X398602Y302805D01*
X398591Y302629D01*
X398590Y302526D01*
X397990D01*
X397989Y302606D01*
X397976Y302740D01*
X397965Y302796D01*
X397951Y302843D01*
X397934Y302882D01*
X397914Y302914D01*
X397890Y302937D01*
X397864Y302952D01*
X397834Y302960D01*
X398721Y303129D01*
X398696Y303111D01*
D02*
G37*
G36*
X418575Y302213D02*
X418567Y302258D01*
X418543Y302298D01*
X418504Y302333D01*
X418449Y302364D01*
X418378Y302390D01*
X418292Y302412D01*
X418189Y302428D01*
X418071Y302440D01*
X417788Y302449D01*
Y303237D01*
X417939Y303241D01*
X418074Y303253D01*
X418194Y303272D01*
X418298Y303300D01*
X418386Y303335D01*
X418458Y303379D01*
X418514Y303430D01*
X418554Y303489D01*
X418578Y303556D01*
X418587Y303630D01*
X418575Y302213D01*
D02*
G37*
G36*
X425586Y302217D02*
X425518Y302192D01*
X425458Y302152D01*
X425406Y302095D01*
X425362Y302022D01*
X425326Y301933D01*
X425298Y301827D01*
X425278Y301705D01*
X425266Y301567D01*
X425262Y301413D01*
X424462D01*
X424458Y301567D01*
X424446Y301705D01*
X424426Y301827D01*
X424398Y301933D01*
X424362Y302022D01*
X424318Y302095D01*
X424266Y302152D01*
X424206Y302192D01*
X424138Y302217D01*
X424062Y302225D01*
X425662D01*
X425586Y302217D01*
D02*
G37*
G36*
X425266Y300894D02*
X425278Y300756D01*
X425298Y300634D01*
X425326Y300528D01*
X425362Y300439D01*
X425406Y300366D01*
X425458Y300309D01*
X425518Y300268D01*
X425586Y300244D01*
X425662Y300236D01*
X424062D01*
X424138Y300244D01*
X424206Y300268D01*
X424266Y300309D01*
X424318Y300366D01*
X424362Y300439D01*
X424398Y300528D01*
X424426Y300634D01*
X424446Y300756D01*
X424458Y300894D01*
X424462Y301048D01*
X425262D01*
X425266Y300894D01*
D02*
G37*
G36*
X414811Y300794D02*
X414823Y300659D01*
X414843Y300539D01*
X414870Y300435D01*
X414906Y300348D01*
X414949Y300276D01*
X415000Y300219D01*
X415059Y300179D01*
X415126Y300155D01*
X415201Y300146D01*
X413868Y300158D01*
X413897Y300166D01*
X413923Y300189D01*
X413945Y300229D01*
X413965Y300284D01*
X413982Y300355D01*
X413996Y300442D01*
X414006Y300544D01*
X414018Y300796D01*
X414020Y300945D01*
X414807D01*
X414811Y300794D01*
D02*
G37*
G36*
X423831Y298100D02*
X423823Y298177D01*
X423799Y298245D01*
X423759Y298305D01*
X423703Y298357D01*
X423631Y298400D01*
X423543Y298436D01*
X423439Y298464D01*
X423329Y298483D01*
X423073Y298465D01*
X422943Y298446D01*
X422829Y298421D01*
X422730Y298393D01*
X422648Y298360D01*
X422581Y298322D01*
X422530Y298280D01*
Y299521D01*
X422581Y299479D01*
X422648Y299441D01*
X422730Y299408D01*
X422829Y299380D01*
X422943Y299356D01*
X423073Y299336D01*
X423308Y299316D01*
X423319Y299317D01*
X423439Y299337D01*
X423543Y299364D01*
X423631Y299400D01*
X423703Y299445D01*
X423759Y299497D01*
X423799Y299556D01*
X423823Y299624D01*
X423831Y299700D01*
Y298100D01*
D02*
G37*
G36*
X419954Y299613D02*
X419978Y299546D01*
X420017Y299487D01*
X420072Y299436D01*
X420143Y299393D01*
X420230Y299357D01*
X420332Y299330D01*
X420443Y299311D01*
X420718Y299330D01*
X420848Y299351D01*
X420962Y299376D01*
X421061Y299405D01*
X421145Y299439D01*
X421212Y299478D01*
X421265Y299521D01*
Y298280D01*
X421212Y298323D01*
X421145Y298362D01*
X421061Y298396D01*
X420962Y298425D01*
X420848Y298450D01*
X420718Y298471D01*
X420468Y298493D01*
X420450Y298491D01*
X420332Y298471D01*
X420230Y298444D01*
X420143Y298408D01*
X420072Y298365D01*
X420017Y298314D01*
X419978Y298255D01*
X419954Y298188D01*
X419946Y298113D01*
Y299688D01*
X419954Y299613D01*
D02*
G37*
G36*
X415063Y297823D02*
X414996Y297799D01*
X414937Y297758D01*
X414886Y297702D01*
X414843Y297630D01*
X414807Y297542D01*
X414780Y297439D01*
X414760Y297319D01*
X414748Y297184D01*
X414744Y297032D01*
X413957D01*
X413956Y297182D01*
X413925Y297694D01*
X413913Y297749D01*
X413900Y297788D01*
X413885Y297812D01*
X413868Y297820D01*
X415138Y297832D01*
X415063Y297823D01*
D02*
G37*
G36*
X440500Y264367D02*
X439000Y263912D01*
X438971Y263955D01*
X438513Y264261D01*
X437972Y264369D01*
X437464Y264785D01*
Y265413D01*
X435205D01*
Y265913D01*
X434704D01*
Y268094D01*
X434671D01*
X434657Y269589D01*
X435006Y269658D01*
X435302Y269856D01*
X436644Y271198D01*
X436842Y271494D01*
X436887Y271722D01*
X436935Y271829D01*
X436938Y271959D01*
X436946Y272054D01*
X436951Y272087D01*
X437760D01*
Y275051D01*
X438260D01*
Y276732D01*
X436000D01*
Y277232D01*
X435500D01*
Y279413D01*
X435500Y279413D01*
X435500D01*
X429760Y285154D01*
Y287051D01*
Y288732D01*
X425240D01*
Y287551D01*
X419760D01*
Y289232D01*
X417500D01*
Y289732D01*
X417000D01*
Y291913D01*
X415262D01*
Y296966D01*
X415285Y297018D01*
X415289Y297153D01*
X415297Y297251D01*
X415307Y297308D01*
X420458D01*
Y297308D01*
X421897Y297487D01*
X423319Y297240D01*
X423319Y297240D01*
X426284D01*
Y296740D01*
X427965D01*
Y299000D01*
Y301357D01*
X426937Y301701D01*
X426937Y302489D01*
X426937Y304669D01*
X426937Y306169D01*
X426937Y308213D01*
X428163Y308874D01*
X430558D01*
X431098Y308982D01*
X431557Y309288D01*
X431863Y309747D01*
X431971Y310287D01*
X431863Y310828D01*
X431557Y311286D01*
X431513Y311315D01*
X429685Y313863D01*
X429058Y314737D01*
X428940Y314816D01*
Y314816D01*
X428940Y314816D01*
X428799Y314996D01*
X428799Y314996D01*
X428799D01*
X424862Y318933D01*
Y322827D01*
X424862D01*
X424862Y322827D01*
Y325500D01*
X425362D01*
Y326000D01*
X427839D01*
Y327029D01*
X427937Y328488D01*
X427937Y329632D01*
Y330760D01*
X425559D01*
Y331260D01*
X425059D01*
Y334032D01*
X423612D01*
X423181Y334032D01*
X421888Y333531D01*
X421681Y333531D01*
X418563D01*
Y328988D01*
X418563D01*
X418661Y327673D01*
X418661Y327673D01*
Y323327D01*
X419544D01*
X419553Y323272D01*
X419562Y323173D01*
X419565Y323037D01*
X419589Y322985D01*
Y320877D01*
X412715Y314003D01*
X411118Y314071D01*
X410720Y314500D01*
X410542Y315851D01*
X410020Y317110D01*
X409191Y318191D01*
X408110Y319021D01*
X406851Y319542D01*
X405500Y319720D01*
X392911D01*
Y326969D01*
X392935Y327022D01*
X392938Y327156D01*
X392947Y327255D01*
X392956Y327311D01*
X395514D01*
X395552Y327288D01*
X395613Y327290D01*
X395634Y327282D01*
X396146Y327311D01*
X397587Y327169D01*
X398000Y327087D01*
X398541Y327195D01*
X398999Y327501D01*
X399305Y327959D01*
X399413Y328500D01*
X399305Y329041D01*
X398999Y329499D01*
X398541Y329805D01*
X398000Y329913D01*
X397587Y329831D01*
X396146Y329689D01*
X395634Y329718D01*
X395613Y329710D01*
X395552Y329712D01*
X395514Y329689D01*
X390854D01*
X390854Y327949D01*
X390833Y327915D01*
X390835Y327844D01*
X390825Y327818D01*
X390854Y327311D01*
X391089Y325826D01*
Y319720D01*
X385500D01*
X384149Y319542D01*
X382890Y319021D01*
X381809Y318191D01*
X380979Y317110D01*
X380458Y315851D01*
X380280Y314500D01*
Y302000D01*
X380458Y300649D01*
X380979Y299390D01*
X381809Y298309D01*
X382890Y297480D01*
X384149Y296958D01*
X385500Y296780D01*
X386851Y296958D01*
X387674Y297299D01*
X388626Y296877D01*
X388656Y296907D01*
X388698Y296845D01*
X388903Y296754D01*
X389234Y296452D01*
X389350Y295693D01*
X389192Y295456D01*
X389191Y295456D01*
X389133Y295163D01*
X389001Y294500D01*
X389191Y293544D01*
X389733Y292733D01*
X390544Y292191D01*
X391233Y292054D01*
X391674Y291250D01*
X391840Y290539D01*
X387356Y286055D01*
X387158Y285760D01*
X387089Y285411D01*
Y278581D01*
X387065Y278527D01*
X387063Y278389D01*
X387056Y278282D01*
X387051Y278241D01*
X386811Y278241D01*
X386782Y277729D01*
X386790Y277710D01*
X386788Y277651D01*
X386811Y277611D01*
Y274450D01*
X386811Y273579D01*
X386788Y273540D01*
X386790Y273481D01*
X386782Y273462D01*
X386811Y272950D01*
X387089Y271466D01*
Y261840D01*
X387023Y261673D01*
X385593Y260716D01*
X385579Y260717D01*
X385213Y260858D01*
X383995Y260858D01*
X382646D01*
Y257594D01*
Y254331D01*
X383995D01*
X385213Y254331D01*
X386506Y254831D01*
X390421D01*
Y260358D01*
X388956D01*
X388947Y260413D01*
X388938Y260512D01*
X388935Y260648D01*
X388911Y260700D01*
Y272610D01*
X388935Y272664D01*
X388937Y272802D01*
X388944Y272908D01*
X388949Y272950D01*
X389189Y272950D01*
X389218Y273462D01*
X389210Y273481D01*
X389212Y273540D01*
X389189Y273579D01*
Y276741D01*
X389189Y277611D01*
X389212Y277651D01*
X389210Y277710D01*
X389218Y277729D01*
X389189Y278241D01*
X388911Y279725D01*
Y285034D01*
X396144Y292267D01*
X396192Y292339D01*
X397232Y292605D01*
X397879Y292636D01*
X398544Y292191D01*
X399500Y292001D01*
X400456Y292191D01*
X401267Y292733D01*
X401809Y293544D01*
X403259Y294070D01*
X403800Y294178D01*
X404258Y294484D01*
X404565Y294943D01*
X404672Y295483D01*
X404950Y295919D01*
X405603Y296685D01*
X405819Y296822D01*
X406851Y296958D01*
X408110Y297480D01*
X409191Y298309D01*
X410020Y299390D01*
X410364Y300220D01*
X411864Y299922D01*
Y279156D01*
X411009Y278744D01*
X410364Y278589D01*
X410041Y278805D01*
X409500Y278913D01*
X408051Y279181D01*
Y279181D01*
X400949D01*
Y279181D01*
X399500Y278913D01*
X398959Y278805D01*
X398501Y278499D01*
X398195Y278041D01*
X398087Y277500D01*
X398186Y277000D01*
Y273000D01*
X398087Y272500D01*
X398195Y271959D01*
X398501Y271501D01*
X398959Y271195D01*
X399500Y271087D01*
X400949Y270819D01*
Y270819D01*
X407400D01*
X408277Y270397D01*
X408708Y269591D01*
Y265986D01*
X408715Y265954D01*
Y263775D01*
X408607Y263582D01*
X408170Y263117D01*
X407705Y262680D01*
X407512Y262573D01*
X406509D01*
X406476Y262579D01*
X403768D01*
X403716Y262602D01*
X403580Y262606D01*
X403482Y262615D01*
X403413Y262626D01*
Y263528D01*
X400449D01*
Y264028D01*
X398768D01*
Y261768D01*
Y259508D01*
X400449D01*
X400821Y258162D01*
Y256655D01*
X400798Y256602D01*
X400789Y256250D01*
X400765Y255978D01*
X400750Y255881D01*
X400733Y255802D01*
X400716Y255748D01*
X400707Y255724D01*
X400695Y255709D01*
X400690Y255694D01*
X400685Y255684D01*
X400683Y255671D01*
X400675Y255644D01*
X400427Y255273D01*
X400319Y254732D01*
X400427Y254192D01*
X400674Y253822D01*
X400680Y253803D01*
X400682Y253784D01*
X400689Y253771D01*
X400694Y253757D01*
X400703Y253745D01*
X400712Y253723D01*
X400728Y253669D01*
X400745Y253590D01*
X400759Y253497D01*
X400763Y253429D01*
X400009Y252256D01*
X399929Y252175D01*
X398532Y251929D01*
Y251929D01*
X397542Y250839D01*
X394764D01*
X393327Y250839D01*
X393327Y250839D01*
X393268Y250831D01*
Y250831D01*
X392405Y249721D01*
X390421Y247169D01*
X386506D01*
X385213Y247669D01*
X383995Y247669D01*
X382646D01*
Y244406D01*
Y241142D01*
X383995D01*
X385213Y241142D01*
X386506Y241642D01*
X390421D01*
X391927Y241921D01*
X393327Y242161D01*
X393327Y242161D01*
X393327Y242161D01*
X397673D01*
Y242161D01*
X398532Y242071D01*
Y242071D01*
X399136Y242071D01*
X407000D01*
Y237311D01*
X407087Y237224D01*
X407195Y236684D01*
X407501Y236225D01*
X407959Y235919D01*
X408500Y235811D01*
X416589D01*
Y208101D01*
X415917Y206778D01*
X414650Y206217D01*
X413768D01*
Y200000D01*
Y193783D01*
X414486D01*
X414889Y193737D01*
X415767Y192432D01*
X415571Y191969D01*
X415542Y191459D01*
X415548Y191444D01*
X415545Y191393D01*
X415571Y191347D01*
Y187653D01*
X415545Y187607D01*
X415548Y187556D01*
X415542Y187541D01*
X415571Y187031D01*
X416088Y185877D01*
X415819Y184879D01*
X415790Y184367D01*
X415801Y184339D01*
X415799Y184267D01*
X415819Y184236D01*
X415819Y181910D01*
X415819Y180410D01*
Y179088D01*
X415799Y179058D01*
X415801Y178986D01*
X415790Y178958D01*
X415819Y178446D01*
X416087Y177397D01*
X415917Y176471D01*
X415888Y175959D01*
X415906Y175917D01*
X415904Y175830D01*
X415917Y175811D01*
Y174005D01*
X415904Y173987D01*
X415906Y173899D01*
X415888Y173857D01*
X415917Y173345D01*
X416101Y172361D01*
X415937Y171390D01*
X415908Y170878D01*
X415927Y170832D01*
X415926Y170741D01*
X415937Y170726D01*
Y165819D01*
X415926Y165803D01*
X415927Y165713D01*
X415908Y165666D01*
X415937Y165154D01*
X416101Y164201D01*
X415917Y163199D01*
X415888Y162687D01*
X415906Y162645D01*
X415904Y162558D01*
X415917Y162539D01*
Y160733D01*
X415904Y160714D01*
X415906Y160627D01*
X415888Y160585D01*
X415917Y160073D01*
X416101Y159089D01*
X415937Y158118D01*
X415908Y157606D01*
X415927Y157560D01*
X415926Y157469D01*
X415937Y157454D01*
Y155000D01*
X374000D01*
Y382424D01*
X381241Y385497D01*
X382316Y386322D01*
X383140Y387397D01*
X383659Y388649D01*
X383836Y389992D01*
X383659Y391335D01*
X383140Y392587D01*
X382316Y393662D01*
X381241Y394487D01*
X381210Y394500D01*
Y394500D01*
X374000Y397574D01*
Y403500D01*
X440500D01*
Y264367D01*
D02*
G37*
G36*
X402262Y296909D02*
X402513Y296694D01*
X402632Y296607D01*
X402746Y296534D01*
X402856Y296474D01*
X402961Y296427D01*
X403062Y296394D01*
X403158Y296375D01*
X403250Y296369D01*
X402373Y295492D01*
X402367Y295584D01*
X402348Y295680D01*
X402315Y295781D01*
X402269Y295886D01*
X402209Y295996D01*
X402135Y296111D01*
X402048Y296229D01*
X401834Y296480D01*
X401706Y296612D01*
X402130Y297037D01*
X402262Y296909D01*
D02*
G37*
G36*
X418213Y285091D02*
X418146Y285067D01*
X418087Y285028D01*
X418035Y284973D01*
X417992Y284902D01*
X417957Y284815D01*
X417929Y284713D01*
X417909Y284595D01*
X417898Y284461D01*
X417894Y284311D01*
X417106D01*
X417102Y284461D01*
X417091Y284595D01*
X417071Y284713D01*
X417043Y284815D01*
X417008Y284902D01*
X416965Y284973D01*
X416913Y285028D01*
X416854Y285067D01*
X416787Y285091D01*
X416713Y285099D01*
X418287D01*
X418213Y285091D01*
D02*
G37*
G36*
X428134Y284591D02*
X428067Y284567D01*
X428008Y284528D01*
X427957Y284473D01*
X427913Y284402D01*
X427878Y284315D01*
X427850Y284213D01*
X427831Y284095D01*
X427819Y283961D01*
X427815Y283811D01*
X427028D01*
X427024Y283961D01*
X427012Y284095D01*
X426992Y284213D01*
X426965Y284315D01*
X426929Y284402D01*
X426886Y284473D01*
X426835Y284528D01*
X426776Y284567D01*
X426709Y284591D01*
X426634Y284599D01*
X428209D01*
X428134Y284591D01*
D02*
G37*
G36*
X427819Y280167D02*
X427831Y280031D01*
X427850Y279911D01*
X427878Y279807D01*
X427913Y279719D01*
X427957Y279647D01*
X428008Y279591D01*
X428067Y279551D01*
X428134Y279527D01*
X428209Y279519D01*
X426634D01*
X426709Y279527D01*
X426776Y279551D01*
X426835Y279591D01*
X426886Y279647D01*
X426929Y279719D01*
X426965Y279807D01*
X426992Y279911D01*
X427012Y280031D01*
X427024Y280167D01*
X427028Y280319D01*
X427815D01*
X427819Y280167D01*
D02*
G37*
G36*
X417898D02*
X417909Y280031D01*
X417929Y279911D01*
X417957Y279807D01*
X417992Y279719D01*
X418035Y279647D01*
X418087Y279591D01*
X418146Y279551D01*
X418213Y279527D01*
X418287Y279519D01*
X416713D01*
X416787Y279527D01*
X416854Y279551D01*
X416913Y279591D01*
X416965Y279647D01*
X417008Y279719D01*
X417043Y279807D01*
X417071Y279911D01*
X417091Y280031D01*
X417102Y280167D01*
X417106Y280319D01*
X417894D01*
X417898Y280167D01*
D02*
G37*
G36*
X401461Y276700D02*
X401453Y276776D01*
X401429Y276844D01*
X401389Y276904D01*
X401333Y276956D01*
X401261Y277000D01*
X401173Y277036D01*
X401069Y277064D01*
X400951Y277084D01*
X400676Y277065D01*
X400546Y277045D01*
X400431Y277021D01*
X400333Y276992D01*
X400250Y276959D01*
X400184Y276922D01*
X400133Y276880D01*
Y278120D01*
X400184Y278078D01*
X400250Y278041D01*
X400333Y278008D01*
X400431Y277979D01*
X400546Y277955D01*
X400676Y277935D01*
X400924Y277914D01*
X400949Y277916D01*
X401069Y277936D01*
X401173Y277964D01*
X401261Y278000D01*
X401333Y278044D01*
X401389Y278096D01*
X401429Y278156D01*
X401453Y278224D01*
X401461Y278300D01*
Y276700D01*
D02*
G37*
G36*
X388397Y278367D02*
X388419Y278115D01*
X388439Y278012D01*
X388464Y277926D01*
X388496Y277855D01*
X388532Y277800D01*
X388575Y277761D01*
X388623Y277737D01*
X388677Y277729D01*
X387323D01*
X387377Y277737D01*
X387425Y277761D01*
X387468Y277800D01*
X387504Y277855D01*
X387536Y277926D01*
X387561Y278012D01*
X387581Y278115D01*
X387595Y278233D01*
X387603Y278367D01*
X387606Y278516D01*
X388394D01*
X388397Y278367D01*
D02*
G37*
G36*
X407535Y278224D02*
X407560Y278156D01*
X407600Y278096D01*
X407657Y278044D01*
X407730Y278000D01*
X407820Y277964D01*
X407925Y277936D01*
X408045Y277916D01*
X408324Y277935D01*
X408454Y277955D01*
X408568Y277979D01*
X408667Y278008D01*
X408749Y278041D01*
X408816Y278078D01*
X408867Y278120D01*
Y276880D01*
X408816Y276922D01*
X408749Y276959D01*
X408667Y276992D01*
X408568Y277021D01*
X408454Y277045D01*
X408324Y277065D01*
X408074Y277086D01*
X408047Y277084D01*
X407925Y277064D01*
X407820Y277036D01*
X407730Y277000D01*
X407657Y276956D01*
X407600Y276904D01*
X407560Y276844D01*
X407535Y276776D01*
X407527Y276700D01*
Y278300D01*
X407535Y278224D01*
D02*
G37*
G36*
X410386Y277618D02*
X410416Y277551D01*
X410460Y277474D01*
X410517Y277389D01*
X410671Y277192D01*
X410877Y276960D01*
X411136Y276693D01*
X410708Y275989D01*
X410569Y276124D01*
X410203Y276435D01*
X410098Y276508D01*
X410001Y276565D01*
X409911Y276606D01*
X409831Y276631D01*
X409759Y276642D01*
X409695Y276636D01*
X410368Y277677D01*
X410386Y277618D01*
D02*
G37*
G36*
X401461Y271700D02*
X401453Y271776D01*
X401429Y271844D01*
X401389Y271904D01*
X401333Y271956D01*
X401261Y272000D01*
X401173Y272036D01*
X401069Y272064D01*
X400951Y272084D01*
X400676Y272065D01*
X400546Y272045D01*
X400431Y272021D01*
X400333Y271992D01*
X400250Y271959D01*
X400184Y271922D01*
X400133Y271880D01*
Y273120D01*
X400184Y273078D01*
X400250Y273041D01*
X400333Y273008D01*
X400431Y272979D01*
X400546Y272955D01*
X400676Y272935D01*
X400924Y272914D01*
X400949Y272916D01*
X401069Y272936D01*
X401173Y272964D01*
X401261Y273000D01*
X401333Y273044D01*
X401389Y273096D01*
X401429Y273156D01*
X401453Y273224D01*
X401461Y273300D01*
Y271700D01*
D02*
G37*
G36*
X388623Y273454D02*
X388575Y273430D01*
X388532Y273391D01*
X388496Y273336D01*
X388464Y273265D01*
X388439Y273178D01*
X388419Y273076D01*
X388405Y272958D01*
X388397Y272824D01*
X388394Y272674D01*
X387606D01*
X387603Y272824D01*
X387581Y273076D01*
X387561Y273178D01*
X387536Y273265D01*
X387504Y273336D01*
X387468Y273391D01*
X387425Y273430D01*
X387377Y273454D01*
X387323Y273462D01*
X388677D01*
X388623Y273454D01*
D02*
G37*
G36*
X419482Y273576D02*
X419463Y273503D01*
X419466Y273418D01*
X419490Y273323D01*
X419536Y273217D01*
X419604Y273100D01*
X419693Y272973D01*
X419805Y272834D01*
X420092Y272525D01*
X419592Y271912D01*
X419427Y272072D01*
X419132Y272322D01*
X419003Y272413D01*
X418886Y272482D01*
X418781Y272527D01*
X418687Y272550D01*
X418606Y272550D01*
X418536Y272527D01*
X418478Y272481D01*
X419523Y273639D01*
X419482Y273576D01*
D02*
G37*
G36*
X436687Y272603D02*
X436626Y272580D01*
X436571Y272541D01*
X436524Y272488D01*
X436484Y272419D01*
X436452Y272334D01*
X436426Y272234D01*
X436408Y272119D01*
X436397Y271989D01*
X436394Y271843D01*
X435606D01*
X435603Y271989D01*
X435592Y272119D01*
X435574Y272234D01*
X435548Y272334D01*
X435516Y272419D01*
X435476Y272488D01*
X435429Y272541D01*
X435374Y272580D01*
X435313Y272603D01*
X435244Y272611D01*
X436756D01*
X436687Y272603D01*
D02*
G37*
G36*
X407535Y273186D02*
X407560Y273118D01*
X407600Y273058D01*
X407657Y273006D01*
X407730Y272962D01*
X407820Y272926D01*
X407925Y272898D01*
X408027Y272881D01*
X408574Y272917D01*
X408653Y272933D01*
X408715Y272952D01*
X408760Y272973D01*
X408436Y271796D01*
X408399Y271847D01*
X408345Y271892D01*
X408273Y271932D01*
X408183Y271966D01*
X408076Y271996D01*
X407952Y272020D01*
X407917Y272024D01*
X407820Y271998D01*
X407730Y271962D01*
X407657Y271918D01*
X407600Y271866D01*
X407560Y271806D01*
X407535Y271738D01*
X407527Y271662D01*
Y272056D01*
X407475Y272060D01*
X407282Y272062D01*
X407527Y272794D01*
Y273262D01*
X407535Y273186D01*
D02*
G37*
G36*
X427713Y272473D02*
X427646Y272449D01*
X427587Y272409D01*
X427535Y272353D01*
X427492Y272281D01*
X427457Y272193D01*
X427429Y272089D01*
X427410Y271969D01*
X427398Y271833D01*
X427394Y271681D01*
X426606D01*
X426602Y271833D01*
X426590Y271969D01*
X426571Y272089D01*
X426543Y272193D01*
X426508Y272281D01*
X426465Y272353D01*
X426413Y272409D01*
X426354Y272449D01*
X426287Y272473D01*
X426213Y272481D01*
X427787D01*
X427713Y272473D01*
D02*
G37*
G36*
X410026Y270366D02*
X409226Y270266D01*
X409223Y270460D01*
X409183Y270932D01*
X409159Y271051D01*
X409130Y271152D01*
X409095Y271234D01*
X409055Y271297D01*
X409010Y271341D01*
X408959Y271367D01*
X410015Y271830D01*
X410026Y270366D01*
D02*
G37*
G36*
X418065Y267975D02*
X418029Y267905D01*
X417997Y267820D01*
X417970Y267720D01*
X417946Y267605D01*
X417928Y267474D01*
X417902Y267165D01*
X417894Y266796D01*
X417106Y266746D01*
X417104Y266939D01*
X417068Y267422D01*
X417046Y267551D01*
X417020Y267664D01*
X416989Y267762D01*
X416953Y267843D01*
X416912Y267909D01*
X416867Y267959D01*
X418105Y268029D01*
X418065Y267975D01*
D02*
G37*
G36*
X436460Y263563D02*
X436484Y263514D01*
X436524Y263471D01*
X436580Y263434D01*
X436652Y263402D01*
X436740Y263376D01*
X436787Y263367D01*
X436913Y263387D01*
X437027Y263412D01*
X437124Y263441D01*
X437206Y263475D01*
X437272Y263514D01*
X437322Y263557D01*
X437358Y262317D01*
X437306Y262358D01*
X437238Y262394D01*
X437155Y262426D01*
X437056Y262454D01*
X436941Y262477D01*
X436834Y262492D01*
X436734Y262466D01*
X436645Y262430D01*
X436572Y262386D01*
X436515Y262334D01*
X436474Y262274D01*
X436449Y262206D01*
X436440Y262130D01*
X436444Y262523D01*
X436132Y262530D01*
X436106Y263330D01*
X436300Y263332D01*
X436450Y263343D01*
X436452Y263618D01*
X436460Y263563D01*
D02*
G37*
G36*
X433957Y261280D02*
X433169Y261268D01*
Y262055D01*
X433320Y262059D01*
X433456Y262071D01*
X433575Y262090D01*
X433679Y262118D01*
X433767Y262154D01*
X433839Y262197D01*
X433895Y262248D01*
X433935Y262307D01*
X433960Y262374D01*
X433969Y262449D01*
X433957Y261280D01*
D02*
G37*
G36*
X402909Y262385D02*
X402933Y262317D01*
X402973Y262257D01*
X403029Y262205D01*
X403101Y262161D01*
X403189Y262125D01*
X403293Y262097D01*
X403413Y262077D01*
X403549Y262065D01*
X403701Y262061D01*
Y261261D01*
X403549Y261257D01*
X403413Y261245D01*
X403293Y261225D01*
X403189Y261197D01*
X403101Y261161D01*
X403029Y261117D01*
X402973Y261065D01*
X402933Y261005D01*
X402909Y260937D01*
X402901Y260861D01*
Y262461D01*
X402909Y262385D01*
D02*
G37*
G36*
X388398Y260482D02*
X388409Y260346D01*
X388429Y260226D01*
X388457Y260122D01*
X388492Y260034D01*
X388535Y259962D01*
X388587Y259906D01*
X388646Y259866D01*
X388713Y259842D01*
X388787Y259834D01*
X387213D01*
X387287Y259842D01*
X387354Y259866D01*
X387413Y259906D01*
X387465Y259962D01*
X387508Y260034D01*
X387543Y260122D01*
X387571Y260226D01*
X387591Y260346D01*
X387602Y260482D01*
X387606Y260634D01*
X388394D01*
X388398Y260482D01*
D02*
G37*
G36*
X402445Y260524D02*
X402378Y260500D01*
X402319Y260460D01*
X402268Y260404D01*
X402224Y260332D01*
X402189Y260244D01*
X402161Y260140D01*
X402142Y260020D01*
X402130Y259884D01*
X402126Y259733D01*
X401339D01*
X401335Y259884D01*
X401323Y260020D01*
X401303Y260140D01*
X401276Y260244D01*
X401240Y260332D01*
X401197Y260404D01*
X401146Y260460D01*
X401087Y260500D01*
X401020Y260524D01*
X400945Y260532D01*
X402520D01*
X402445Y260524D01*
D02*
G37*
G36*
X434181Y258893D02*
X434193Y257724D01*
X434185Y257799D01*
X434160Y257866D01*
X434120Y257925D01*
X434063Y257976D01*
X433991Y258020D01*
X433904Y258055D01*
X433800Y258083D01*
X433680Y258102D01*
X433545Y258114D01*
X433394Y258118D01*
Y258906D01*
X434181Y258893D01*
D02*
G37*
G36*
X427327Y257661D02*
X427351Y257593D01*
X427392Y257533D01*
X427448Y257481D01*
X427522Y257437D01*
X427611Y257401D01*
X427716Y257373D01*
X427838Y257353D01*
X427976Y257341D01*
X428130Y257337D01*
Y256537D01*
X427976Y256533D01*
X427838Y256521D01*
X427716Y256501D01*
X427611Y256473D01*
X427522Y256437D01*
X427448Y256393D01*
X427392Y256341D01*
X427351Y256281D01*
X427327Y256213D01*
X427318Y256137D01*
Y257737D01*
X427327Y257661D01*
D02*
G37*
G36*
X402128Y256396D02*
X402162Y255912D01*
X402183Y255782D01*
X402208Y255667D01*
X402237Y255568D01*
X402271Y255485D01*
X402309Y255417D01*
X402352Y255365D01*
X401112D01*
X401155Y255417D01*
X401194Y255485D01*
X401228Y255568D01*
X401257Y255667D01*
X401282Y255782D01*
X401302Y255912D01*
X401330Y256219D01*
X401339Y256589D01*
X402126D01*
X402128Y256396D01*
D02*
G37*
G36*
X422389Y256535D02*
X422216Y256357D01*
X421926Y256017D01*
X421809Y255856D01*
X421709Y255701D01*
X421629Y255552D01*
X421566Y255408D01*
X421521Y255270D01*
X421495Y255138D01*
X421487Y255012D01*
X420299Y256200D01*
X420426Y256208D01*
X420557Y256234D01*
X420695Y256278D01*
X420839Y256341D01*
X420988Y256422D01*
X421143Y256521D01*
X421305Y256639D01*
X421472Y256775D01*
X421823Y257101D01*
X422389Y256535D01*
D02*
G37*
G36*
X420275Y253800D02*
X420149Y253792D01*
X420017Y253766D01*
X419879Y253721D01*
X419736Y253659D01*
X419587Y253578D01*
X419431Y253479D01*
X419270Y253361D01*
X419103Y253225D01*
X418752Y252899D01*
X418186Y253465D01*
X418359Y253643D01*
X418648Y253983D01*
X418766Y254144D01*
X418865Y254299D01*
X418946Y254449D01*
X419009Y254592D01*
X419053Y254730D01*
X419080Y254862D01*
X419087Y254988D01*
X420275Y253800D01*
D02*
G37*
G36*
X402311Y254049D02*
X402273Y253982D01*
X402240Y253899D01*
X402212Y253801D01*
X402187Y253687D01*
X402168Y253557D01*
X402141Y253249D01*
X402132Y252879D01*
X401332D01*
X401330Y253072D01*
X401297Y253557D01*
X401277Y253687D01*
X401253Y253801D01*
X401224Y253899D01*
X401191Y253982D01*
X401154Y254049D01*
X401112Y254100D01*
X402352D01*
X402311Y254049D01*
D02*
G37*
G36*
X402136Y252065D02*
X402148Y251929D01*
X402168Y251809D01*
X402196Y251705D01*
X402232Y251617D01*
X402276Y251545D01*
X402328Y251489D01*
X402388Y251449D01*
X402456Y251425D01*
X402532Y251417D01*
X400932D01*
X401008Y251425D01*
X401076Y251449D01*
X401136Y251489D01*
X401188Y251545D01*
X401232Y251617D01*
X401268Y251705D01*
X401296Y251809D01*
X401316Y251929D01*
X401328Y252065D01*
X401332Y252217D01*
X402132D01*
X402136Y252065D01*
D02*
G37*
G36*
X399056Y248075D02*
X399047Y248150D01*
X399024Y248217D01*
X398984Y248276D01*
X398928Y248327D01*
X398856Y248370D01*
X398768Y248406D01*
X398664Y248433D01*
X398544Y248453D01*
X398408Y248465D01*
X398256Y248468D01*
Y249256D01*
X398408Y249260D01*
X398544Y249272D01*
X398664Y249291D01*
X398768Y249319D01*
X398856Y249354D01*
X398928Y249398D01*
X398984Y249449D01*
X399024Y249508D01*
X399047Y249575D01*
X399056Y249650D01*
Y248075D01*
D02*
G37*
G36*
X397157Y249575D02*
X397181Y249508D01*
X397221Y249449D01*
X397277Y249398D01*
X397349Y249354D01*
X397437Y249319D01*
X397541Y249291D01*
X397661Y249272D01*
X397797Y249260D01*
X397949Y249256D01*
Y248468D01*
X397797Y248465D01*
X397661Y248453D01*
X397541Y248433D01*
X397437Y248406D01*
X397349Y248370D01*
X397277Y248327D01*
X397221Y248276D01*
X397181Y248217D01*
X397157Y248150D01*
X397149Y248075D01*
Y249650D01*
X397157Y249575D01*
D02*
G37*
G36*
X402952Y245051D02*
X402977Y244984D01*
X403016Y244925D01*
X403072Y244874D01*
X403144Y244831D01*
X403232Y244795D01*
X403336Y244768D01*
X403456Y244748D01*
X403592Y244736D01*
X403744Y244732D01*
Y243945D01*
X403592Y243941D01*
X403456Y243929D01*
X403336Y243910D01*
X403232Y243882D01*
X403144Y243847D01*
X403072Y243803D01*
X403016Y243752D01*
X402977Y243693D01*
X402952Y243626D01*
X402945Y243551D01*
Y245126D01*
X402952Y245051D01*
D02*
G37*
G36*
X399056Y243551D02*
X399047Y243626D01*
X399024Y243693D01*
X398984Y243752D01*
X398928Y243803D01*
X398856Y243847D01*
X398768Y243882D01*
X398664Y243910D01*
X398544Y243929D01*
X398408Y243941D01*
X398256Y243945D01*
Y244732D01*
X398408Y244736D01*
X398544Y244748D01*
X398664Y244768D01*
X398768Y244795D01*
X398856Y244831D01*
X398928Y244874D01*
X398984Y244925D01*
X399024Y244984D01*
X399047Y245051D01*
X399056Y245126D01*
Y243551D01*
D02*
G37*
G36*
X397157Y245051D02*
X397181Y244984D01*
X397221Y244925D01*
X397277Y244874D01*
X397349Y244831D01*
X397437Y244795D01*
X397541Y244768D01*
X397661Y244748D01*
X397797Y244736D01*
X397949Y244732D01*
Y243945D01*
X397797Y243941D01*
X397661Y243929D01*
X397541Y243910D01*
X397437Y243882D01*
X397349Y243847D01*
X397277Y243803D01*
X397221Y243752D01*
X397181Y243693D01*
X397157Y243626D01*
X397149Y243551D01*
Y245126D01*
X397157Y245051D01*
D02*
G37*
G36*
X393851Y243350D02*
X393843Y243425D01*
X393819Y243492D01*
X393779Y243551D01*
X393723Y243602D01*
X393651Y243646D01*
X393563Y243681D01*
X393459Y243709D01*
X393339Y243728D01*
X393203Y243740D01*
X393051Y243744D01*
Y244531D01*
X393203Y244535D01*
X393339Y244547D01*
X393459Y244567D01*
X393563Y244595D01*
X393651Y244630D01*
X393723Y244673D01*
X393779Y244724D01*
X393819Y244783D01*
X393843Y244850D01*
X393851Y244925D01*
Y243350D01*
D02*
G37*
G36*
X389917Y244850D02*
X389941Y244783D01*
X389980Y244724D01*
X390035Y244673D01*
X390106Y244630D01*
X390193Y244595D01*
X390295Y244567D01*
X390413Y244547D01*
X390547Y244535D01*
X390697Y244531D01*
Y243744D01*
X390547Y243740D01*
X390413Y243728D01*
X390295Y243709D01*
X390193Y243681D01*
X390106Y243646D01*
X390035Y243602D01*
X389980Y243551D01*
X389941Y243492D01*
X389917Y243425D01*
X389909Y243350D01*
Y244925D01*
X389917Y244850D01*
D02*
G37*
G36*
X434072Y242725D02*
X434060Y242723D01*
X434038Y242711D01*
X434007Y242689D01*
X433966Y242656D01*
X433788Y242492D01*
X433643Y242350D01*
X433665Y242122D01*
X433686Y242023D01*
X433713Y241939D01*
X433746Y241870D01*
X433785Y241816D01*
X433829Y241778D01*
X433880Y241756D01*
X433937Y241748D01*
X432481Y241736D01*
X432552Y241744D01*
X432615Y241768D01*
X432670Y241807D01*
X432718Y241861D01*
X432759Y241931D01*
X432792Y242016D01*
X432818Y242117D01*
X432836Y242233D01*
X432847Y242364D01*
X432851Y242511D01*
X433245D01*
X432967Y242790D01*
X433617Y243432D01*
X434072Y242725D01*
D02*
G37*
G36*
X427320Y240724D02*
X427333Y240656D01*
X427366Y240596D01*
X427418Y240544D01*
X427489Y240500D01*
X427580Y240464D01*
X427691Y240436D01*
X427820Y240416D01*
X427969Y240404D01*
X428138Y240400D01*
X428136Y239600D01*
X427098Y239648D01*
X427326Y240800D01*
X427320Y240724D01*
D02*
G37*
G36*
X431599Y239252D02*
X431591Y239318D01*
X431567Y239377D01*
X431527Y239430D01*
X431471Y239475D01*
X431399Y239513D01*
X431311Y239544D01*
X431207Y239569D01*
X431087Y239586D01*
X430951Y239597D01*
X430799Y239600D01*
Y240400D01*
X430951Y240404D01*
X431087Y240416D01*
X431207Y240436D01*
X431311Y240464D01*
X431399Y240500D01*
X431471Y240544D01*
X431527Y240596D01*
X431567Y240656D01*
X431591Y240724D01*
X431599Y240800D01*
Y239252D01*
D02*
G37*
G36*
X411597Y238921D02*
X411634Y238439D01*
X411656Y238310D01*
X411683Y238198D01*
X411715Y238101D01*
X411752Y238020D01*
X411793Y237956D01*
X411840Y237907D01*
X410604Y237802D01*
X410643Y237857D01*
X410677Y237927D01*
X410708Y238013D01*
X410734Y238113D01*
X410756Y238229D01*
X410789Y238507D01*
X410799Y238669D01*
X410807Y239039D01*
X411594Y239114D01*
X411597Y238921D01*
D02*
G37*
G36*
X431599Y236748D02*
Y235568D01*
X431591Y235643D01*
X431567Y235710D01*
X431528Y235769D01*
X431473Y235820D01*
X431402Y235863D01*
X431315Y235899D01*
X431213Y235926D01*
X431095Y235946D01*
X430961Y235958D01*
X430811Y235962D01*
Y236749D01*
X431599Y236748D01*
D02*
G37*
G36*
X433370Y234256D02*
X433303Y234232D01*
X433244Y234192D01*
X433193Y234136D01*
X433150Y234064D01*
X433114Y233976D01*
X433087Y233872D01*
X433067Y233752D01*
X433055Y233617D01*
X433051Y233465D01*
X432264D01*
X432260Y233617D01*
X432248Y233752D01*
X432228Y233872D01*
X432201Y233976D01*
X432165Y234064D01*
X432122Y234136D01*
X432071Y234192D01*
X432012Y234232D01*
X431945Y234256D01*
X431870Y234264D01*
X433445D01*
X433370Y234256D01*
D02*
G37*
G36*
X433055Y233169D02*
X433067Y233035D01*
X433087Y232917D01*
X433114Y232815D01*
X433150Y232728D01*
X433193Y232657D01*
X433244Y232602D01*
X433303Y232563D01*
X433370Y232539D01*
X433445Y232531D01*
X431870D01*
X431945Y232539D01*
X432012Y232563D01*
X432071Y232602D01*
X432122Y232657D01*
X432165Y232728D01*
X432201Y232815D01*
X432228Y232917D01*
X432248Y233035D01*
X432260Y233169D01*
X432264Y233319D01*
X433051D01*
X433055Y233169D01*
D02*
G37*
G36*
X426694Y233429D02*
X426652Y233381D01*
X426613Y233316D01*
X426580Y233235D01*
X426550Y233138D01*
X426526Y233025D01*
X426508Y232913D01*
X426533Y232819D01*
X426569Y232731D01*
X426613Y232659D01*
X426665Y232603D01*
X426725Y232563D01*
X426793Y232539D01*
X426869Y232531D01*
X426477D01*
X426469Y232218D01*
X425669Y232249D01*
X425667Y232442D01*
X425636Y232928D01*
X425617Y233058D01*
X425595Y233172D01*
X425567Y233271D01*
X425536Y233354D01*
X425501Y233421D01*
X425461Y233472D01*
X426694Y233429D01*
D02*
G37*
G36*
X425693Y226146D02*
X425685Y226220D01*
X425661Y226287D01*
X425621Y226346D01*
X425565Y226398D01*
X425493Y226441D01*
X425406Y226476D01*
X425302Y226504D01*
X425182Y226524D01*
X425046Y226535D01*
X424894Y226539D01*
Y227327D01*
X425046Y227331D01*
X425182Y227343D01*
X425302Y227362D01*
X425406Y227390D01*
X425493Y227425D01*
X425565Y227468D01*
X425621Y227520D01*
X425661Y227579D01*
X425685Y227646D01*
X425693Y227720D01*
Y226146D01*
D02*
G37*
G36*
X428213Y225473D02*
X428146Y225449D01*
X428087Y225409D01*
X428035Y225353D01*
X427992Y225281D01*
X427957Y225193D01*
X427929Y225089D01*
X427910Y224969D01*
X427898Y224833D01*
X427894Y224681D01*
X427106D01*
X427102Y224833D01*
X427091Y224969D01*
X427071Y225089D01*
X427043Y225193D01*
X427008Y225281D01*
X426965Y225353D01*
X426913Y225409D01*
X426854Y225449D01*
X426787Y225473D01*
X426713Y225481D01*
X428287D01*
X428213Y225473D01*
D02*
G37*
G36*
X427898Y223883D02*
X427910Y223747D01*
X427929Y223628D01*
X427957Y223524D01*
X427992Y223436D01*
X428035Y223364D01*
X428087Y223308D01*
X428146Y223268D01*
X428213Y223244D01*
X428287Y223236D01*
X426713D01*
X426787Y223244D01*
X426854Y223268D01*
X426913Y223308D01*
X426965Y223364D01*
X427008Y223436D01*
X427043Y223524D01*
X427071Y223628D01*
X427091Y223747D01*
X427102Y223883D01*
X427106Y224035D01*
X427894D01*
X427898Y223883D01*
D02*
G37*
G36*
X430111Y216213D02*
X430103Y216287D01*
X430079Y216354D01*
X430039Y216413D01*
X429983Y216465D01*
X429911Y216508D01*
X429823Y216543D01*
X429719Y216571D01*
X429599Y216590D01*
X429463Y216602D01*
X429311Y216606D01*
Y217394D01*
X429463Y217398D01*
X429599Y217409D01*
X429719Y217429D01*
X429823Y217457D01*
X429911Y217492D01*
X429983Y217535D01*
X430039Y217587D01*
X430079Y217646D01*
X430103Y217713D01*
X430111Y217787D01*
Y216213D01*
D02*
G37*
G36*
Y211401D02*
X430103Y211466D01*
X430081Y211523D01*
X430044Y211574D01*
X429992Y211618D01*
X429925Y211655D01*
X429843Y211685D01*
X429746Y211709D01*
X429635Y211726D01*
X429508Y211736D01*
X429367Y211739D01*
Y212527D01*
X429508Y212530D01*
X429635Y212541D01*
X429746Y212557D01*
X429843Y212581D01*
X429925Y212612D01*
X429992Y212649D01*
X430044Y212693D01*
X430081Y212743D01*
X430103Y212801D01*
X430111Y212865D01*
Y211401D01*
D02*
G37*
G36*
X440500Y261544D02*
Y155000D01*
X419063D01*
Y157454D01*
X419074Y157469D01*
X419073Y157560D01*
X419092Y157606D01*
X419063Y158118D01*
X419093Y158514D01*
X419876Y159450D01*
X420071Y159560D01*
Y161636D01*
Y163712D01*
X419837Y163845D01*
X419158Y164539D01*
X419102Y164628D01*
X419063Y165154D01*
X419092Y165666D01*
X419073Y165713D01*
X419074Y165803D01*
X419063Y165819D01*
Y170726D01*
X419074Y170741D01*
X419073Y170832D01*
X419092Y170878D01*
X419063Y171390D01*
X419093Y171786D01*
X419876Y172722D01*
X420071Y172832D01*
Y174908D01*
Y176989D01*
X419362Y177536D01*
X419352Y177548D01*
X419209Y177766D01*
X419181Y178446D01*
X419210Y178958D01*
X419199Y178986D01*
X419201Y179058D01*
X419181Y179088D01*
X419181Y181414D01*
X419181Y182914D01*
Y184236D01*
X419201Y184267D01*
X419199Y184339D01*
X419210Y184367D01*
X419181Y184879D01*
X419033Y185430D01*
X420052Y186654D01*
X420386Y186531D01*
X421407Y186531D01*
X422657D01*
Y189500D01*
X423158D01*
Y190000D01*
X425929D01*
Y192469D01*
X424754D01*
X424307Y193783D01*
X424307Y193968D01*
Y199500D01*
X421732D01*
Y200000D01*
X421232D01*
Y206217D01*
X420350D01*
X419083Y206778D01*
X418411Y208101D01*
Y219290D01*
X418678Y219493D01*
X420005Y220206D01*
X428514Y211698D01*
X428945Y210698D01*
X428835Y209798D01*
X428814Y209740D01*
X430208D01*
X430339Y209740D01*
X434232D01*
Y212000D01*
X434732D01*
Y212500D01*
X436913D01*
Y214260D01*
X436913D01*
Y214740D01*
X436913D01*
Y216500D01*
X434732D01*
Y217000D01*
X434232D01*
Y219352D01*
X433181Y219740D01*
X433181Y220499D01*
Y221500D01*
X431000D01*
Y222500D01*
X433181D01*
Y224260D01*
X434600Y224457D01*
X435331D01*
Y226433D01*
X432657D01*
Y227433D01*
X435331D01*
Y229410D01*
Y233240D01*
X435732D01*
Y235500D01*
X436232D01*
Y236000D01*
X438413D01*
Y237760D01*
X438413D01*
Y238240D01*
X438413D01*
Y240000D01*
X436232D01*
Y241000D01*
X438413D01*
Y242760D01*
X437295D01*
X435913Y243500D01*
X435805Y244041D01*
X435499Y244499D01*
X435041Y244805D01*
X434644Y244884D01*
X434644Y252669D01*
X434732D01*
Y254752D01*
X435232D01*
Y255252D01*
X437295D01*
Y256835D01*
X437182Y256948D01*
Y260170D01*
X437824Y261286D01*
X438380Y261624D01*
X438513Y261650D01*
X438971Y261956D01*
X439000Y261999D01*
X440500Y261544D01*
D02*
G37*
G36*
X417898Y206901D02*
X417909Y206766D01*
X417929Y206646D01*
X417957Y206542D01*
X417992Y206454D01*
X418035Y206382D01*
X418087Y206326D01*
X418146Y206286D01*
X418213Y206262D01*
X418287Y206254D01*
X416713D01*
X416787Y206262D01*
X416854Y206286D01*
X416913Y206326D01*
X416965Y206382D01*
X417008Y206454D01*
X417043Y206542D01*
X417071Y206646D01*
X417091Y206766D01*
X417102Y206901D01*
X417106Y207053D01*
X417894D01*
X417898Y206901D01*
D02*
G37*
G36*
X424103Y192056D02*
X424114Y191928D01*
X424131Y191815D01*
X424155Y191716D01*
X424186Y191633D01*
X424224Y191565D01*
X424268Y191513D01*
X424320Y191475D01*
X424378Y191452D01*
X424443Y191445D01*
X422957D01*
X423022Y191452D01*
X423080Y191475D01*
X423132Y191513D01*
X423176Y191565D01*
X423214Y191633D01*
X423245Y191716D01*
X423269Y191815D01*
X423286Y191928D01*
X423296Y192056D01*
X423300Y192200D01*
X424100D01*
X424103Y192056D01*
D02*
G37*
G36*
X418510Y194114D02*
X418455Y194069D01*
X418407Y193994D01*
X418365Y193889D01*
X418330Y193754D01*
X418301Y193589D01*
X418279Y193394D01*
X418253Y192914D01*
X418253Y192858D01*
X418258Y192670D01*
X418280Y192413D01*
X418318Y192187D01*
X418370Y191990D01*
X418437Y191824D01*
X418520Y191688D01*
X418617Y191582D01*
X418730Y191506D01*
X418857Y191460D01*
X419000Y191445D01*
X416083Y191456D01*
X416210Y191472D01*
X416323Y191516D01*
X416423Y191592D01*
X416510Y191697D01*
X416583Y191832D01*
X416643Y191997D01*
X416690Y192192D01*
X416723Y192417D01*
X416743Y192672D01*
X416748Y192850D01*
X416747Y192914D01*
X416699Y193589D01*
X416670Y193754D01*
X416635Y193889D01*
X416593Y193994D01*
X416545Y194069D01*
X416490Y194114D01*
X416429Y194129D01*
X418571D01*
X418510Y194114D01*
D02*
G37*
G36*
X418857Y187540D02*
X418730Y187494D01*
X418617Y187418D01*
X418520Y187312D01*
X418437Y187176D01*
X418370Y187010D01*
X418318Y186813D01*
X418280Y186587D01*
X418258Y186330D01*
X418250Y186044D01*
X416750D01*
X416743Y186328D01*
X416723Y186583D01*
X416690Y186809D01*
X416643Y187004D01*
X416583Y187169D01*
X416510Y187303D01*
X416423Y187408D01*
X416323Y187484D01*
X416210Y187529D01*
X416083Y187543D01*
X419000Y187556D01*
X418857Y187540D01*
D02*
G37*
G36*
X418254Y185582D02*
X418288Y185102D01*
X418317Y184907D01*
X418355Y184742D01*
X418401Y184607D01*
X418455Y184502D01*
X418518Y184427D01*
X418589Y184382D01*
X418669Y184367D01*
X416331D01*
X416410Y184382D01*
X416482Y184427D01*
X416545Y184502D01*
X416599Y184607D01*
X416645Y184742D01*
X416683Y184907D01*
X416712Y185102D01*
X416733Y185327D01*
X416750Y185867D01*
X418250D01*
X418254Y185582D01*
D02*
G37*
G36*
X418589Y178943D02*
X418518Y178898D01*
X418455Y178823D01*
X418401Y178718D01*
X418355Y178583D01*
X418317Y178418D01*
X418288Y178223D01*
X418267Y177998D01*
X418250Y177458D01*
X418253Y177174D01*
X418301Y176499D01*
X418330Y176334D01*
X418365Y176199D01*
X418407Y176094D01*
X418455Y176019D01*
X418510Y175974D01*
X418571Y175959D01*
X416429D01*
X416490Y175974D01*
X416545Y176019D01*
X416593Y176094D01*
X416635Y176199D01*
X416670Y176334D01*
X416699Y176499D01*
X416721Y176694D01*
X416747Y177174D01*
X416750Y177458D01*
X416746Y177743D01*
X416712Y178223D01*
X416683Y178418D01*
X416645Y178583D01*
X416599Y178718D01*
X416545Y178823D01*
X416482Y178898D01*
X416410Y178943D01*
X416331Y178958D01*
X418669D01*
X418589Y178943D01*
D02*
G37*
G36*
X418510Y173842D02*
X418455Y173797D01*
X418407Y173722D01*
X418365Y173617D01*
X418330Y173482D01*
X418301Y173317D01*
X418279Y173122D01*
X418253Y172642D01*
X418250Y172367D01*
X418253Y172093D01*
X418298Y171418D01*
X418325Y171253D01*
X418358Y171118D01*
X418398Y171013D01*
X418443Y170938D01*
X418494Y170893D01*
X418551Y170878D01*
X416449D01*
X416506Y170893D01*
X416557Y170938D01*
X416603Y171013D01*
X416642Y171118D01*
X416675Y171253D01*
X416702Y171418D01*
X416723Y171613D01*
X416747Y172093D01*
X416750Y172367D01*
X416747Y172642D01*
X416699Y173317D01*
X416670Y173482D01*
X416635Y173617D01*
X416593Y173722D01*
X416545Y173797D01*
X416490Y173842D01*
X416429Y173857D01*
X418571D01*
X418510Y173842D01*
D02*
G37*
G36*
X418494Y165651D02*
X418443Y165606D01*
X418398Y165531D01*
X418358Y165426D01*
X418325Y165291D01*
X418298Y165126D01*
X418277Y164931D01*
X418253Y164451D01*
X418250Y164177D01*
X418253Y163902D01*
X418301Y163227D01*
X418330Y163062D01*
X418365Y162927D01*
X418407Y162822D01*
X418455Y162747D01*
X418510Y162702D01*
X418571Y162687D01*
X416429D01*
X416490Y162702D01*
X416545Y162747D01*
X416593Y162822D01*
X416635Y162927D01*
X416670Y163062D01*
X416699Y163227D01*
X416721Y163422D01*
X416747Y163902D01*
X416750Y164177D01*
X416747Y164451D01*
X416702Y165126D01*
X416675Y165291D01*
X416642Y165426D01*
X416603Y165531D01*
X416557Y165606D01*
X416506Y165651D01*
X416449Y165666D01*
X418551D01*
X418494Y165651D01*
D02*
G37*
G36*
X418510Y160570D02*
X418455Y160525D01*
X418407Y160450D01*
X418365Y160345D01*
X418330Y160210D01*
X418301Y160045D01*
X418279Y159850D01*
X418253Y159370D01*
X418250Y159095D01*
X418253Y158821D01*
X418298Y158146D01*
X418325Y157981D01*
X418358Y157846D01*
X418398Y157741D01*
X418443Y157666D01*
X418494Y157621D01*
X418551Y157606D01*
X416449D01*
X416506Y157621D01*
X416557Y157666D01*
X416603Y157741D01*
X416642Y157846D01*
X416675Y157981D01*
X416702Y158146D01*
X416723Y158341D01*
X416747Y158821D01*
X416750Y159095D01*
X416747Y159370D01*
X416699Y160045D01*
X416670Y160210D01*
X416635Y160345D01*
X416593Y160450D01*
X416545Y160525D01*
X416490Y160570D01*
X416429Y160585D01*
X418571D01*
X418510Y160570D01*
D02*
G37*
G36*
X418494Y152379D02*
X418443Y152334D01*
X418398Y152259D01*
X418358Y152154D01*
X418325Y152019D01*
X418298Y151854D01*
X418277Y151659D01*
X418253Y151179D01*
X418250Y150894D01*
X416750D01*
X416747Y151179D01*
X416702Y151854D01*
X416675Y152019D01*
X416642Y152154D01*
X416603Y152259D01*
X416557Y152334D01*
X416506Y152379D01*
X416449Y152394D01*
X418551D01*
X418494Y152379D01*
D02*
G37*
G36*
X417854Y141106D02*
X417880Y141105D01*
X417902Y141103D01*
X417919Y141100D01*
X417933Y141095D01*
X417942Y141089D01*
X417947Y141081D01*
X417947Y141072D01*
X417944Y141061D01*
X417936Y141050D01*
X417924Y141036D01*
X417854Y141106D01*
X416436D01*
X416418Y141114D01*
X416417Y141137D01*
X416435Y141176D01*
X416472Y141231D01*
X416527Y141301D01*
X416691Y141488D01*
X417076Y141885D01*
X417854Y141106D01*
D02*
G37*
%LPC*%
G36*
X385268Y399260D02*
X383587D01*
Y397500D01*
X385268D01*
Y399260D01*
D02*
G37*
G36*
X403429Y399468D02*
X401158D01*
Y397000D01*
X403429D01*
Y399468D01*
D02*
G37*
G36*
X436000Y401413D02*
X435459Y401305D01*
X435001Y400999D01*
X434695Y400541D01*
X434587Y400000D01*
X433565Y398839D01*
X433421Y398760D01*
X433268D01*
Y396500D01*
X432268D01*
Y398760D01*
X430667D01*
X429339Y399173D01*
X429339Y399173D01*
X429339Y399173D01*
X427362D01*
Y396500D01*
X426362D01*
Y399173D01*
X424386D01*
X424114Y398673D01*
X420161D01*
Y398673D01*
X418839D01*
Y398673D01*
X414500Y398673D01*
X413386Y398673D01*
X410161D01*
Y395732D01*
X410140Y395624D01*
X410140Y395624D01*
Y395266D01*
X409905Y395042D01*
X409441Y394649D01*
X409254Y394512D01*
X409091Y394407D01*
X408963Y394339D01*
X408953Y394335D01*
X403512D01*
X403429Y394338D01*
Y396000D01*
X400658D01*
Y396500D01*
X400157D01*
Y399468D01*
X397886D01*
X397614Y398969D01*
X393071D01*
Y398969D01*
X391800Y398300D01*
X390913Y398760D01*
Y398760D01*
X387949D01*
Y399260D01*
X386268D01*
Y397000D01*
Y394651D01*
X386936Y394440D01*
X387469Y394252D01*
X387485Y394212D01*
Y390833D01*
X387469Y390794D01*
X387465Y390521D01*
X387440Y390071D01*
X387421Y389910D01*
X387400Y389800D01*
X387160Y389800D01*
X387131Y389288D01*
X387147Y389249D01*
X387145Y389165D01*
X387160Y389144D01*
Y383600D01*
X389107D01*
X390400Y383100D01*
X391653Y383100D01*
X392000D01*
Y386700D01*
X393000D01*
Y383100D01*
X394600Y383100D01*
X395893Y383600D01*
X397840D01*
Y385682D01*
X398277Y385863D01*
X406949D01*
X408055Y385717D01*
X409162Y385863D01*
X410193Y386290D01*
X411078Y386969D01*
X411589Y387635D01*
X411884Y387748D01*
X413171Y386998D01*
X413184Y386976D01*
X413384Y385559D01*
D01*
X413707Y384059D01*
X413695Y384041D01*
X413587Y383500D01*
X413695Y382959D01*
X413103Y381655D01*
X412758Y381427D01*
X412668Y381400D01*
X412039D01*
Y379634D01*
X410925D01*
Y378142D01*
X409925D01*
Y379634D01*
X408293D01*
Y379112D01*
X407272Y378035D01*
X406793Y378035D01*
X405000D01*
Y375461D01*
X404500D01*
Y374961D01*
X401728D01*
Y373907D01*
X401728Y372886D01*
X402228Y371593D01*
Y368465D01*
X402228D01*
X403087Y367000D01*
X403195Y366459D01*
X403501Y366001D01*
X403959Y365695D01*
X404500Y365587D01*
X405041Y365695D01*
X405499Y366001D01*
X405805Y366459D01*
X405913Y367000D01*
X406253Y367581D01*
X406897Y368122D01*
X407083Y368221D01*
X408171Y368221D01*
X409674D01*
X410215Y368329D01*
X410442Y368481D01*
X410791Y368630D01*
X411985Y368580D01*
X412222Y368459D01*
X412503Y368271D01*
X413044Y368163D01*
X413584Y368271D01*
X414043Y368577D01*
X414349Y369036D01*
X414457Y369576D01*
X415332Y370771D01*
X415597Y370948D01*
X415992D01*
Y372713D01*
X417509D01*
X418332Y372256D01*
X418728Y372035D01*
X418728Y371213D01*
Y369961D01*
X424272D01*
Y370228D01*
X424791Y370812D01*
X425976Y370980D01*
X426368Y370666D01*
Y354214D01*
X426438Y353863D01*
X426637Y353565D01*
X431021Y349181D01*
X431042Y349128D01*
X431131Y349033D01*
X431193Y348958D01*
X431240Y348894D01*
X431270Y348843D01*
X431287Y348806D01*
X431291Y348792D01*
X431284Y348774D01*
X431286Y348685D01*
X431116Y348273D01*
X431014Y347500D01*
X431116Y346727D01*
X431414Y346007D01*
X431888Y345389D01*
X432507Y344914D01*
X433227Y344616D01*
X434000Y344514D01*
X434773Y344616D01*
X435493Y344914D01*
X436111Y345389D01*
X436586Y346007D01*
X436884Y346727D01*
X436986Y347500D01*
X436884Y348273D01*
Y355727D01*
X436986Y356500D01*
X436884Y357273D01*
X436586Y357993D01*
X436111Y358611D01*
X435493Y359086D01*
X434773Y359384D01*
X434000Y359486D01*
X433227Y359384D01*
X432815Y359214D01*
X432726Y359216D01*
X432708Y359209D01*
X432694Y359213D01*
X432657Y359230D01*
X432606Y359260D01*
X432542Y359307D01*
X432467Y359369D01*
X432373Y359458D01*
X432319Y359479D01*
X431358Y360440D01*
Y374051D01*
X431381Y374104D01*
X431390Y374458D01*
X431413Y374731D01*
X431428Y374828D01*
X431445Y374907D01*
X431460Y374961D01*
X431469Y374983D01*
X431479Y374995D01*
X431483Y375009D01*
X431491Y375022D01*
X431493Y375041D01*
X431498Y375060D01*
X431745Y375430D01*
X431832Y375866D01*
X431842Y375883D01*
X431853Y375898D01*
X431857Y375913D01*
X431864Y375926D01*
X431866Y375941D01*
X431875Y375963D01*
X431902Y376012D01*
X431946Y376080D01*
X432002Y376155D01*
X432296Y376493D01*
X432420Y376620D01*
X432443Y376675D01*
X436724Y380956D01*
X436923Y381254D01*
X436992Y381605D01*
Y385485D01*
X437016Y385540D01*
X437018Y385680D01*
X437026Y385835D01*
X437165Y385835D01*
X437195Y386347D01*
X437178Y386386D01*
X437180Y386471D01*
X437165Y386491D01*
Y388173D01*
X437189Y388211D01*
X437178Y388252D01*
X437194Y388291D01*
X437165Y388362D01*
Y393571D01*
X437913Y394740D01*
X437913Y394740D01*
X437913Y394740D01*
Y398260D01*
X437913D01*
X437365Y399760D01*
X437413Y400000D01*
X437305Y400541D01*
X436999Y400999D01*
X436541Y401305D01*
X436000Y401413D01*
D02*
G37*
G36*
X385268Y396500D02*
X383587D01*
Y394740D01*
X385268D01*
Y396500D01*
D02*
G37*
G36*
X404000Y378035D02*
X401728D01*
Y375961D01*
X404000D01*
Y378035D01*
D02*
G37*
G36*
X390360Y380400D02*
X387160D01*
Y374200D01*
X390360D01*
Y380400D01*
D02*
G37*
G36*
X397840D02*
X394640D01*
Y375700D01*
X394640Y374865D01*
X394629Y374851D01*
X394631Y374759D01*
X394611Y374712D01*
X394640Y374200D01*
X394678Y373061D01*
X393568Y371969D01*
X391386D01*
X391114Y372468D01*
X388843D01*
Y369500D01*
X388342D01*
Y369000D01*
X385571D01*
Y368913D01*
X381500D01*
Y366732D01*
X381000D01*
Y366232D01*
X378740D01*
Y364551D01*
X379240D01*
X379240Y361698D01*
X379232Y361689D01*
X379232Y361454D01*
X380639Y361454D01*
X382143D01*
X383634Y361432D01*
X384766Y360530D01*
Y359516D01*
X386701D01*
Y358516D01*
X384766D01*
Y358084D01*
X384724Y358067D01*
X383231D01*
X383183Y358088D01*
X383010Y358093D01*
X382876Y358104D01*
X382772Y358121D01*
X382700Y358140D01*
X382681Y358148D01*
Y358551D01*
X382172Y358580D01*
X382159Y358575D01*
X382112Y358577D01*
X382064Y358551D01*
X379319D01*
Y355508D01*
X378819D01*
Y353728D01*
X381000D01*
Y353228D01*
X381500D01*
Y350949D01*
X383181D01*
X383441Y350689D01*
Y349256D01*
Y346000D01*
X387000D01*
Y345500D01*
X387500D01*
Y341744D01*
X390559D01*
X390559Y341744D01*
X390953Y341631D01*
X391623Y340194D01*
X391485Y339500D01*
X391623Y338806D01*
X391866Y338441D01*
X391908Y336995D01*
X391908Y336995D01*
X391904Y336215D01*
X391886Y335605D01*
X391885Y335586D01*
X391623Y335194D01*
X391485Y334500D01*
X391623Y333806D01*
X392016Y333217D01*
X392605Y332824D01*
X393299Y332686D01*
X393994Y332824D01*
X394582Y333217D01*
X394975Y333806D01*
X395114Y334500D01*
X394975Y335194D01*
X394732Y335559D01*
X394690Y337005D01*
X394690Y337005D01*
X394694Y337785D01*
X394712Y338395D01*
X394714Y338414D01*
X394975Y338806D01*
X395114Y339500D01*
X394975Y340194D01*
X394732Y340559D01*
X394722Y340893D01*
X395866Y342244D01*
X396358D01*
Y348756D01*
Y354036D01*
X396532Y355465D01*
X401469D01*
Y358886D01*
X401469Y359614D01*
X401469D01*
Y360386D01*
X401469D01*
Y364535D01*
X396532D01*
X395929Y365786D01*
Y369735D01*
X395939Y369748D01*
X395930Y369822D01*
X395958Y369891D01*
X395929Y369961D01*
Y369977D01*
X395942Y370003D01*
X396006Y370106D01*
X396101Y370237D01*
X396627Y370836D01*
X396864Y371078D01*
X396880Y371117D01*
X397101Y371338D01*
X397377Y371752D01*
X397475Y372239D01*
Y373166D01*
X397491Y373205D01*
X397495Y373476D01*
X397523Y373923D01*
X397544Y374081D01*
X397569Y374200D01*
X397840Y374200D01*
X397869Y374712D01*
X397856Y374745D01*
X397858Y374823D01*
X397840Y374849D01*
Y380400D01*
D02*
G37*
G36*
X387842Y372468D02*
X385571D01*
Y370000D01*
X387842D01*
Y372468D01*
D02*
G37*
G36*
X380500Y368913D02*
X378740D01*
Y367232D01*
X380500D01*
Y368913D01*
D02*
G37*
G36*
X424272Y368961D02*
X418728D01*
Y368012D01*
X418728Y366886D01*
X418728D01*
Y366820D01*
X418675Y366715D01*
X417531Y365645D01*
X416990Y365537D01*
X416532Y365231D01*
X416226Y364773D01*
X416118Y364232D01*
X416226Y363691D01*
X416532Y363233D01*
X416990Y362926D01*
X417531Y362819D01*
X417728Y362858D01*
X419228Y362465D01*
Y362465D01*
X423772D01*
Y366614D01*
X424272Y366886D01*
Y368961D01*
D02*
G37*
G36*
X380500Y352728D02*
X378819D01*
Y350949D01*
X380500D01*
Y352728D01*
D02*
G37*
G36*
X408055Y356785D02*
X406730Y356654D01*
X405456Y356268D01*
X404281Y355640D01*
X403252Y354795D01*
X402407Y353766D01*
X401780Y352591D01*
X401393Y351317D01*
X401263Y349992D01*
X401393Y348667D01*
X401780Y347393D01*
X402407Y346218D01*
X403252Y345189D01*
X404281Y344344D01*
X405456Y343717D01*
X406730Y343330D01*
X408055Y343200D01*
X409380Y343330D01*
X410654Y343717D01*
X411829Y344344D01*
X412858Y345189D01*
X413703Y346218D01*
X414331Y347393D01*
X414717Y348667D01*
X414848Y349992D01*
X414717Y351317D01*
X414331Y352591D01*
X413703Y353766D01*
X412858Y354795D01*
X411829Y355640D01*
X410654Y356268D01*
X409380Y356654D01*
X408055Y356785D01*
D02*
G37*
G36*
X386500Y345000D02*
X383441D01*
Y341744D01*
X386500D01*
Y345000D01*
D02*
G37*
G36*
X408583Y341370D02*
X407417D01*
X407083Y341370D01*
X402677D01*
Y336630D01*
X403942D01*
X403945Y336628D01*
X403954Y336608D01*
X403973Y336537D01*
X403990Y336434D01*
X404002Y336301D01*
X404006Y336128D01*
X404028Y336080D01*
Y328223D01*
X404006Y328175D01*
X404002Y327999D01*
X403990Y327865D01*
X403972Y327759D01*
X403953Y327685D01*
X403948Y327673D01*
X403161D01*
Y323327D01*
X407500Y323327D01*
X408614Y323327D01*
X411839D01*
Y323327D01*
X413339Y324119D01*
X413500Y324087D01*
X414041Y324195D01*
X414499Y324501D01*
X414805Y324959D01*
X414913Y325500D01*
X414805Y326041D01*
X414499Y326499D01*
X414041Y326805D01*
X413500Y326913D01*
X413339Y326881D01*
X411839Y327673D01*
Y327673D01*
X407339Y327673D01*
X406067Y329140D01*
Y335165D01*
X406716Y336102D01*
X407339Y336630D01*
X408583D01*
X408917Y336630D01*
X413323D01*
Y337641D01*
X413335Y337646D01*
X413409Y337665D01*
X413514Y337683D01*
X413649Y337695D01*
X413825Y337699D01*
X413873Y337721D01*
X420572D01*
X420620Y337699D01*
X420796Y337695D01*
X420931Y337683D01*
X421036Y337665D01*
X421110Y337646D01*
X421122Y337641D01*
Y336469D01*
X424878D01*
Y341012D01*
X421122D01*
Y339839D01*
X421110Y339834D01*
X421036Y339815D01*
X420931Y339797D01*
X420796Y339786D01*
X420620Y339781D01*
X420572Y339760D01*
X413873D01*
X413825Y339781D01*
X413649Y339786D01*
X413514Y339797D01*
X413409Y339815D01*
X413335Y339834D01*
X413323Y339839D01*
Y341370D01*
X408917D01*
X408583Y341370D01*
D02*
G37*
G36*
X426059Y334032D02*
Y331760D01*
X427937D01*
Y334032D01*
X426059D01*
D02*
G37*
G36*
X427839Y325000D02*
X425862D01*
Y322827D01*
X427839D01*
Y325000D01*
D02*
G37*
G36*
X430646Y301260D02*
X428965D01*
Y299500D01*
X430646D01*
Y301260D01*
D02*
G37*
G36*
Y298500D02*
X428965D01*
Y296740D01*
X430646D01*
Y298500D01*
D02*
G37*
G36*
X419760Y291913D02*
X418000D01*
Y290232D01*
X419760D01*
Y291913D01*
D02*
G37*
G36*
X429760Y291413D02*
X428000D01*
Y289732D01*
X429760D01*
Y291413D01*
D02*
G37*
G36*
X427000D02*
X425240D01*
Y289732D01*
X427000D01*
Y291413D01*
D02*
G37*
G36*
X438260Y279413D02*
X436500D01*
Y277732D01*
X438260D01*
Y279413D01*
D02*
G37*
G36*
X437464Y268094D02*
X435705D01*
Y266413D01*
X437464D01*
Y268094D01*
D02*
G37*
G36*
X397768Y264028D02*
X396087D01*
Y262268D01*
X397768D01*
Y264028D01*
D02*
G37*
G36*
Y261268D02*
X396087D01*
Y259508D01*
X397768D01*
Y261268D01*
D02*
G37*
G36*
X381646Y260858D02*
X379079D01*
Y258095D01*
X381646D01*
Y260858D01*
D02*
G37*
G36*
Y257095D02*
X379079D01*
Y254331D01*
X381646D01*
Y257095D01*
D02*
G37*
G36*
X381646Y247669D02*
X379079D01*
Y244905D01*
X381646D01*
Y247669D01*
D02*
G37*
G36*
Y243905D02*
X379079D01*
Y241142D01*
X381646D01*
Y243905D01*
D02*
G37*
G36*
X408055Y220800D02*
X406730Y220670D01*
X405456Y220283D01*
X404281Y219656D01*
X403252Y218811D01*
X402407Y217782D01*
X401780Y216607D01*
X401393Y215333D01*
X401263Y214008D01*
X401393Y212683D01*
X401780Y211408D01*
X402407Y210234D01*
X403252Y209205D01*
X404281Y208360D01*
X405456Y207732D01*
X406730Y207346D01*
X408055Y207215D01*
X409380Y207346D01*
X410654Y207732D01*
X411829Y208360D01*
X412858Y209205D01*
X413703Y210234D01*
X414331Y211408D01*
X414717Y212683D01*
X414848Y214008D01*
X414717Y215333D01*
X414331Y216607D01*
X413703Y217782D01*
X412858Y218811D01*
X411829Y219656D01*
X410654Y220283D01*
X409380Y220670D01*
X408055Y220800D01*
D02*
G37*
G36*
X412768Y206217D02*
X410693D01*
Y200500D01*
X412768D01*
Y206217D01*
D02*
G37*
G36*
Y199500D02*
X410693D01*
Y193783D01*
X412768D01*
Y199500D01*
D02*
G37*
%LPD*%
G36*
X436663Y399400D02*
X436632Y399330D01*
X436605Y399245D01*
X436582Y399145D01*
X436561Y399029D01*
X436532Y398751D01*
X436519Y398436D01*
X436520Y398394D01*
X436532Y398255D01*
X436552Y398134D01*
X436580Y398028D01*
X436616Y397939D01*
X436660Y397866D01*
X436712Y397809D01*
X436772Y397768D01*
X436840Y397744D01*
X436916Y397736D01*
X435316D01*
X435392Y397744D01*
X435460Y397768D01*
X435520Y397809D01*
X435572Y397866D01*
X435616Y397939D01*
X435652Y398028D01*
X435680Y398134D01*
X435700Y398255D01*
X435709Y398355D01*
X435676Y398773D01*
X435654Y398900D01*
X435627Y399011D01*
X435595Y399106D01*
X435558Y399184D01*
X435515Y399246D01*
X435468Y399292D01*
X436698Y399454D01*
X436663Y399400D01*
D02*
G37*
G36*
X420685Y396899D02*
X421714Y396924D01*
Y396076D01*
X421696Y396081D01*
X421655Y396087D01*
X421590Y396091D01*
X420713Y396106D01*
X420685Y396106D01*
Y395713D01*
X420677Y395787D01*
X420653Y395854D01*
X420613Y395913D01*
X420557Y395965D01*
X420486Y396008D01*
X420398Y396043D01*
X420294Y396071D01*
X420174Y396091D01*
X420038Y396102D01*
X419886Y396106D01*
Y396894D01*
X420038Y396898D01*
X420174Y396909D01*
X420294Y396929D01*
X420398Y396957D01*
X420486Y396992D01*
X420557Y397035D01*
X420613Y397087D01*
X420653Y397146D01*
X420677Y397213D01*
X420685Y397287D01*
Y396899D01*
D02*
G37*
G36*
X390416Y397857D02*
X390461Y397730D01*
X390536Y397618D01*
X390641Y397520D01*
X390776Y397438D01*
X390941Y397370D01*
X391136Y397318D01*
X391361Y397280D01*
X391616Y397257D01*
X391901Y397250D01*
Y395750D01*
X390401Y395752D01*
Y398000D01*
X390416Y397857D01*
D02*
G37*
G36*
X418334Y397213D02*
X418358Y397146D01*
X418398Y397087D01*
X418453Y397035D01*
X418523Y396992D01*
X418610Y396957D01*
X418712Y396929D01*
X418830Y396909D01*
X418964Y396898D01*
X419114Y396894D01*
Y396106D01*
X418964Y396102D01*
X418830Y396091D01*
X418712Y396071D01*
X418610Y396043D01*
X418523Y396008D01*
X418453Y395965D01*
X418398Y395913D01*
X418358Y395854D01*
X418334Y395787D01*
X418327Y395713D01*
Y397287D01*
X418334Y397213D01*
D02*
G37*
G36*
X393583Y395000D02*
X393568Y395143D01*
X393523Y395270D01*
X393448Y395382D01*
X393343Y395480D01*
X393208Y395563D01*
X393043Y395630D01*
X392848Y395683D01*
X392623Y395720D01*
X392368Y395743D01*
X392083Y395750D01*
Y397250D01*
X392368Y397257D01*
X392623Y397280D01*
X392848Y397318D01*
X393043Y397370D01*
X393208Y397438D01*
X393343Y397520D01*
X393448Y397618D01*
X393523Y397730D01*
X393568Y397857D01*
X393583Y398000D01*
Y395000D01*
D02*
G37*
G36*
X390117Y395748D02*
X389990Y395702D01*
X389877Y395626D01*
X389780Y395520D01*
X389697Y395384D01*
X389630Y395218D01*
X389577Y395022D01*
X389540Y394795D01*
X389517Y394539D01*
X389510Y394252D01*
X388010D01*
X388063Y395752D01*
X390260Y395764D01*
X390117Y395748D01*
D02*
G37*
G36*
X421680Y395182D02*
X421675Y395141D01*
X421670Y395076D01*
X421666Y394847D01*
X422049Y394851D01*
X421974Y394842D01*
X421907Y394818D01*
X421848Y394777D01*
X421797Y394721D01*
X421754Y394649D01*
X421718Y394561D01*
X421691Y394458D01*
X421671Y394338D01*
X421659Y394203D01*
X421655Y394056D01*
X421655Y393971D01*
X420868D01*
X420860Y394268D01*
X420837Y394555D01*
X420819Y394642D01*
X420798Y394713D01*
X420773Y394768D01*
X420743Y394807D01*
X420710Y394831D01*
X420673Y394839D01*
X420846Y394840D01*
X420837Y395200D01*
X421686D01*
X421680Y395182D01*
D02*
G37*
G36*
X436779Y395256D02*
X436711Y395232D01*
X436651Y395191D01*
X436599Y395134D01*
X436555Y395061D01*
X436519Y394972D01*
X436491Y394866D01*
X436471Y394744D01*
X436459Y394606D01*
X436456Y394503D01*
X436457Y394451D01*
X436487Y394091D01*
X436505Y394003D01*
X436526Y393931D01*
X436552Y393875D01*
X436582Y393835D01*
X436616Y393811D01*
X436653Y393803D01*
X435496D01*
X435527Y393811D01*
X435554Y393835D01*
X435577Y393875D01*
X435598Y393931D01*
X435615Y394003D01*
X435630Y394091D01*
X435641Y394195D01*
X435654Y394451D01*
X435654Y394496D01*
X435651Y394606D01*
X435639Y394744D01*
X435619Y394866D01*
X435591Y394972D01*
X435555Y395061D01*
X435511Y395134D01*
X435459Y395191D01*
X435399Y395232D01*
X435331Y395256D01*
X435255Y395264D01*
X436855D01*
X436779Y395256D01*
D02*
G37*
G36*
X433652D02*
X433584Y395232D01*
X433525Y395191D01*
X433472Y395134D01*
X433428Y395061D01*
X433392Y394972D01*
X433364Y394866D01*
X433345Y394744D01*
X433332Y394606D01*
X433330Y394498D01*
X433330Y394451D01*
X433357Y394091D01*
X433372Y394003D01*
X433392Y393931D01*
X433414Y393875D01*
X433441Y393835D01*
X433470Y393811D01*
X433504Y393803D01*
X432347D01*
X432381Y393811D01*
X432412Y393835D01*
X432439Y393875D01*
X432463Y393931D01*
X432483Y394003D01*
X432499Y394091D01*
X432512Y394195D01*
X432527Y394451D01*
X432527Y394500D01*
X432524Y394606D01*
X432513Y394744D01*
X432492Y394866D01*
X432465Y394972D01*
X432429Y395061D01*
X432384Y395134D01*
X432333Y395191D01*
X432272Y395232D01*
X432204Y395256D01*
X432128Y395264D01*
X433729D01*
X433652Y395256D01*
D02*
G37*
G36*
X411686Y394336D02*
X411448Y394091D01*
X411073Y393653D01*
X410935Y393461D01*
X410830Y393286D01*
X410758Y393129D01*
X410718Y392990D01*
X410712Y392868D01*
X410739Y392763D01*
X410799Y392676D01*
X408783Y393761D01*
X408899Y393757D01*
X409034Y393785D01*
X409190Y393846D01*
X409366Y393940D01*
X409561Y394066D01*
X409776Y394224D01*
X410267Y394639D01*
X410837Y395184D01*
X411686Y394336D01*
D02*
G37*
G36*
X397102Y394544D02*
X397081Y394529D01*
X397062Y394483D01*
X397045Y394408D01*
X397030Y394303D01*
X397008Y394004D01*
X396990Y393043D01*
X395490D01*
X395483Y393330D01*
X395460Y393587D01*
X395423Y393813D01*
X395370Y394009D01*
X395303Y394176D01*
X395220Y394312D01*
X395123Y394418D01*
X395010Y394494D01*
X394883Y394540D01*
X394740Y394555D01*
X397102Y394544D01*
D02*
G37*
G36*
X421540Y392983D02*
X421411Y392852D01*
X420978Y392355D01*
X420934Y392287D01*
X420904Y392229D01*
X420889Y392182D01*
X420887Y392145D01*
X420136Y392868D01*
X420172Y392871D01*
X420219Y392888D01*
X420277Y392920D01*
X420346Y392966D01*
X420425Y393026D01*
X420616Y393189D01*
X420983Y393540D01*
X421540Y392983D01*
D02*
G37*
G36*
X415601Y392349D02*
X415558Y392299D01*
X415519Y392233D01*
X415485Y392152D01*
X415455Y392054D01*
X415430Y391940D01*
X415410Y391811D01*
X415402Y391718D01*
X415410Y391670D01*
X415438Y391564D01*
X415474Y391475D01*
X415518Y391402D01*
X415570Y391345D01*
X415630Y391304D01*
X415698Y391280D01*
X415774Y391272D01*
X415377D01*
X415374Y391134D01*
X414574Y391161D01*
X414572Y391272D01*
X414174D01*
X414250Y391280D01*
X414318Y391304D01*
X414378Y391345D01*
X414430Y391402D01*
X414474Y391475D01*
X414510Y391564D01*
X414538Y391670D01*
X414547Y391727D01*
X414540Y391839D01*
X414521Y391969D01*
X414497Y392084D01*
X414470Y392183D01*
X414438Y392266D01*
X414402Y392334D01*
X414361Y392386D01*
X415601Y392349D01*
D02*
G37*
G36*
X423829Y390565D02*
X423841Y390426D01*
X423861Y390304D01*
X423889Y390198D01*
X423925Y390109D01*
X423968Y390035D01*
X424020Y389978D01*
X424080Y389938D01*
X424147Y389913D01*
X424223Y389905D01*
X422627D01*
X422703Y389913D01*
X422771Y389938D01*
X422830Y389978D01*
X422882Y390035D01*
X422926Y390109D01*
X422962Y390198D01*
X422989Y390304D01*
X423009Y390426D01*
X423021Y390565D01*
X423025Y390719D01*
X423825D01*
X423829Y390565D01*
D02*
G37*
G36*
X396993Y390503D02*
X397044Y389828D01*
X397075Y389663D01*
X397112Y389528D01*
X397156Y389423D01*
X397206Y389348D01*
X397264Y389303D01*
X397328Y389288D01*
X395152D01*
X395216Y389303D01*
X395274Y389348D01*
X395324Y389423D01*
X395369Y389528D01*
X395406Y389663D01*
X395436Y389828D01*
X395460Y390023D01*
X395487Y390503D01*
X395490Y390788D01*
X396990D01*
X396993Y390503D01*
D02*
G37*
G36*
X389513D02*
X389564Y389828D01*
X389594Y389663D01*
X389632Y389528D01*
X389675Y389423D01*
X389726Y389348D01*
X389784Y389303D01*
X389848Y389288D01*
X387672D01*
X387736Y389303D01*
X387793Y389348D01*
X387844Y389423D01*
X387888Y389528D01*
X387925Y389663D01*
X387956Y389828D01*
X387979Y390023D01*
X388006Y390503D01*
X388010Y390788D01*
X389510D01*
X389513Y390503D01*
D02*
G37*
G36*
X427541Y389884D02*
X427567Y389883D01*
X428341Y389879D01*
X428345Y389079D01*
X427531Y389070D01*
Y389886D01*
X427541Y389884D01*
D02*
G37*
G36*
X422469Y389070D02*
X422459Y389072D01*
X422433Y389073D01*
X421657Y389078D01*
Y389878D01*
X422469Y389886D01*
Y389070D01*
D02*
G37*
G36*
X436403Y388874D02*
X436423Y388644D01*
X436441Y388550D01*
X436463Y388471D01*
X436491Y388406D01*
X436524Y388356D01*
X436562Y388320D01*
X436605Y388298D01*
X436653Y388291D01*
X435496D01*
X435516Y388298D01*
X435534Y388320D01*
X435549Y388356D01*
X435563Y388406D01*
X435574Y388471D01*
X435583Y388550D01*
X435596Y388752D01*
X435600Y389011D01*
X436400D01*
X436403Y388874D01*
D02*
G37*
G36*
X427541Y388309D02*
X427567Y388308D01*
X428343Y388303D01*
Y387503D01*
X427531Y387495D01*
Y388311D01*
X427541Y388309D01*
D02*
G37*
G36*
X422469Y387495D02*
X422459Y387497D01*
X422433Y387498D01*
X421657Y387503D01*
Y388303D01*
X422469Y388311D01*
Y387495D01*
D02*
G37*
G36*
X432347Y388291D02*
X432359Y387103D01*
X432350Y387179D01*
X432325Y387247D01*
X432284Y387307D01*
X432227Y387359D01*
X432154Y387403D01*
X432064Y387439D01*
X431959Y387467D01*
X431838Y387487D01*
X431700Y387499D01*
X431547Y387503D01*
Y388303D01*
X432347Y388291D01*
D02*
G37*
G36*
X397343Y389281D02*
X397388Y389274D01*
X397463Y389269D01*
X398288Y389251D01*
X398828Y389250D01*
Y387750D01*
X398542Y387742D01*
X398285Y387720D01*
X398059Y387683D01*
X397862Y387630D01*
X397696Y387562D01*
X397560Y387480D01*
X397454Y387383D01*
X397378Y387270D01*
X397332Y387142D01*
X397316Y387000D01*
X397328Y389288D01*
X397343Y389281D01*
D02*
G37*
G36*
X406257Y386601D02*
X405803Y386819D01*
X405309Y387015D01*
X404776Y387187D01*
X404201Y387336D01*
X402933Y387566D01*
X402238Y387647D01*
X400728Y387738D01*
X399912Y387750D01*
X399683Y389250D01*
X400442Y389271D01*
X401139Y389336D01*
X401775Y389444D01*
X402348Y389594D01*
X402859Y389788D01*
X403308Y390025D01*
X403696Y390305D01*
X404021Y390627D01*
X404284Y390993D01*
X404485Y391402D01*
X406257Y386601D01*
D02*
G37*
G36*
X430752Y386843D02*
X431835Y385835D01*
X432008Y384350D01*
Y382305D01*
X427351Y377649D01*
X427152Y377351D01*
X427082Y377000D01*
Y374373D01*
X426745Y374305D01*
X426375Y374058D01*
X426357Y374053D01*
X426338Y374050D01*
X426324Y374043D01*
X426310Y374039D01*
X426298Y374029D01*
X426276Y374020D01*
X426223Y374005D01*
X426143Y373988D01*
X426051Y373974D01*
X425604Y373943D01*
X425426Y373941D01*
X425378Y373920D01*
X422475Y376823D01*
X422177Y377022D01*
X421826Y377092D01*
X419738D01*
Y377642D01*
X417606D01*
Y378142D01*
X417106D01*
Y379634D01*
X416769D01*
X416033Y380869D01*
X416018Y380942D01*
X415992Y381400D01*
X416207Y382811D01*
X416305Y382959D01*
X416413Y383500D01*
X416305Y384041D01*
X416293Y384059D01*
X416510Y385559D01*
X416689Y386985D01*
X421598D01*
X421654Y386962D01*
X422390Y386957D01*
Y386080D01*
X427610D01*
Y386955D01*
X428348Y386962D01*
X428403Y386985D01*
X430449D01*
X430752Y386843D01*
D02*
G37*
G36*
X436619Y386339D02*
X436589Y386315D01*
X436562Y386275D01*
X436539Y386219D01*
X436519Y386147D01*
X436503Y386059D01*
X436491Y385955D01*
X436477Y385699D01*
X436475Y385547D01*
X435675D01*
X435673Y385699D01*
X435646Y386059D01*
X435630Y386147D01*
X435610Y386219D01*
X435587Y386275D01*
X435561Y386315D01*
X435530Y386339D01*
X435496Y386347D01*
X436653D01*
X436619Y386339D01*
D02*
G37*
G36*
X433470D02*
X433439Y386315D01*
X433413Y386275D01*
X433390Y386219D01*
X433370Y386147D01*
X433354Y386059D01*
X433341Y385955D01*
X433327Y385699D01*
X433325Y385547D01*
X432525D01*
X432523Y385699D01*
X432497Y386059D01*
X432481Y386147D01*
X432461Y386219D01*
X432438Y386275D01*
X432411Y386315D01*
X432381Y386339D01*
X432347Y386347D01*
X433504D01*
X433470Y386339D01*
D02*
G37*
G36*
X415724Y386063D02*
X415656Y386039D01*
X415596Y385999D01*
X415544Y385943D01*
X415500Y385871D01*
X415464Y385783D01*
X415436Y385679D01*
X415416Y385559D01*
X415404Y385423D01*
X415401Y385296D01*
X415402Y385160D01*
X415435Y384676D01*
X415455Y384546D01*
X415479Y384432D01*
X415508Y384333D01*
X415541Y384250D01*
X415578Y384184D01*
X415620Y384133D01*
X414380D01*
X414422Y384184D01*
X414459Y384250D01*
X414492Y384333D01*
X414521Y384432D01*
X414545Y384546D01*
X414565Y384676D01*
X414591Y384983D01*
X414599Y385310D01*
X414596Y385423D01*
X414584Y385559D01*
X414564Y385679D01*
X414536Y385783D01*
X414500Y385871D01*
X414456Y385943D01*
X414404Y385999D01*
X414344Y386039D01*
X414276Y386063D01*
X414200Y386071D01*
X415800D01*
X415724Y386063D01*
D02*
G37*
G36*
X415578Y382816D02*
X415541Y382750D01*
X415508Y382667D01*
X415479Y382569D01*
X415455Y382454D01*
X415435Y382324D01*
X415409Y382017D01*
X415400Y381654D01*
X415401Y381536D01*
X415439Y380960D01*
X415451Y380920D01*
X415465Y380896D01*
X415480Y380888D01*
X414520D01*
X414535Y380896D01*
X414549Y380920D01*
X414561Y380960D01*
X414571Y381016D01*
X414580Y381088D01*
X414593Y381280D01*
X414600Y381672D01*
X414598Y381840D01*
X414565Y382324D01*
X414545Y382454D01*
X414521Y382569D01*
X414492Y382667D01*
X414459Y382750D01*
X414422Y382816D01*
X414380Y382867D01*
X415620D01*
X415578Y382816D01*
D02*
G37*
G36*
X432033Y376998D02*
X431898Y376860D01*
X431579Y376494D01*
X431501Y376388D01*
X431437Y376290D01*
X431388Y376200D01*
X431353Y376119D01*
X431332Y376045D01*
X431326Y375979D01*
X430449Y376856D01*
X430514Y376863D01*
X430588Y376884D01*
X430670Y376919D01*
X430760Y376968D01*
X430858Y377031D01*
X430964Y377109D01*
X431200Y377308D01*
X431468Y377564D01*
X432033Y376998D01*
D02*
G37*
G36*
X418734Y376639D02*
X418758Y376625D01*
X418798Y376613D01*
X418854Y376603D01*
X418926Y376594D01*
X419118Y376581D01*
X419526Y376574D01*
Y375774D01*
X419374Y375773D01*
X418798Y375735D01*
X418758Y375723D01*
X418734Y375709D01*
X418726Y375694D01*
Y376654D01*
X418734Y376639D01*
D02*
G37*
G36*
X410154Y377665D02*
X410086Y377640D01*
X410027Y377599D01*
X409974Y377542D01*
X409931Y377469D01*
X409895Y377379D01*
X409867Y377274D01*
X409848Y377160D01*
X409867Y377046D01*
X409895Y376942D01*
X409931Y376854D01*
X409974Y376782D01*
X410027Y376726D01*
X410086Y376686D01*
X410154Y376662D01*
X410230Y376654D01*
X409305D01*
Y375694D01*
X409297Y375709D01*
X409273Y375723D01*
X409233Y375735D01*
X409177Y375745D01*
X409105Y375754D01*
X408913Y375767D01*
X408505Y375774D01*
Y376574D01*
X408657Y376575D01*
X409233Y376613D01*
X409273Y376625D01*
X409297Y376639D01*
X409305Y376654D01*
X409253Y376662D01*
X409206Y376686D01*
X409165Y376726D01*
X409129Y376782D01*
X409099Y376854D01*
X409097Y376862D01*
X409030D01*
X409069Y376973D01*
X409055Y377046D01*
X409042Y377166D01*
X409033Y377302D01*
X409030Y377454D01*
X409234D01*
X409305Y377662D01*
X410230Y377674D01*
X410154Y377665D01*
D02*
G37*
G36*
X406256Y376898D02*
X406280Y376830D01*
X406321Y376770D01*
X406378Y376718D01*
X406451Y376674D01*
X406540Y376638D01*
X406645Y376610D01*
X406767Y376590D01*
X406905Y376578D01*
X407060Y376574D01*
Y375774D01*
X406905Y375770D01*
X406767Y375758D01*
X406645Y375738D01*
X406540Y375710D01*
X406451Y375674D01*
X406378Y375630D01*
X406321Y375578D01*
X406280Y375518D01*
X406256Y375450D01*
X406248Y375374D01*
Y376974D01*
X406256Y376898D01*
D02*
G37*
G36*
X431018Y375287D02*
X430981Y375220D01*
X430948Y375137D01*
X430919Y375039D01*
X430895Y374925D01*
X430875Y374795D01*
X430849Y374487D01*
X430840Y374117D01*
X430040D01*
X430038Y374310D01*
X430005Y374795D01*
X429985Y374925D01*
X429961Y375039D01*
X429932Y375137D01*
X429899Y375220D01*
X429862Y375287D01*
X429820Y375338D01*
X431060D01*
X431018Y375287D01*
D02*
G37*
G36*
X418734Y374670D02*
X418758Y374657D01*
X418798Y374645D01*
X418854Y374634D01*
X418926Y374625D01*
X419118Y374613D01*
X419526Y374605D01*
Y373805D01*
X419374Y373805D01*
X418798Y373766D01*
X418758Y373754D01*
X418734Y373741D01*
X418726Y373725D01*
Y374686D01*
X418734Y374670D01*
D02*
G37*
G36*
X415401Y374347D02*
X415439Y373771D01*
X415451Y373731D01*
X415465Y373707D01*
X415480Y373699D01*
X414520D01*
X414535Y373707D01*
X414549Y373731D01*
X414561Y373771D01*
X414571Y373827D01*
X414580Y373899D01*
X414593Y374091D01*
X414600Y374499D01*
X415400D01*
X415401Y374347D01*
D02*
G37*
G36*
X410398Y373728D02*
X410330Y373704D01*
X410270Y373662D01*
X410218Y373605D01*
X410174Y373532D01*
X410138Y373443D01*
X410110Y373338D01*
X410090Y373216D01*
X410078Y373079D01*
X410074Y372925D01*
X409274D01*
X409305Y373725D01*
X410474Y373737D01*
X410398Y373728D01*
D02*
G37*
G36*
X426653Y372380D02*
X426602Y372422D01*
X426535Y372459D01*
X426453Y372492D01*
X426354Y372521D01*
X426240Y372545D01*
X426110Y372565D01*
X425803Y372591D01*
X425432Y372600D01*
Y373400D01*
X425626Y373402D01*
X426110Y373435D01*
X426240Y373455D01*
X426354Y373479D01*
X426453Y373508D01*
X426535Y373541D01*
X426602Y373578D01*
X426653Y373620D01*
Y372380D01*
D02*
G37*
G36*
X427864Y372316D02*
X427827Y372250D01*
X427794Y372167D01*
X427765Y372069D01*
X427741Y371954D01*
X427721Y371824D01*
X427695Y371517D01*
X427686Y371147D01*
X426886D01*
X426884Y371340D01*
X426851Y371824D01*
X426831Y371954D01*
X426807Y372069D01*
X426778Y372167D01*
X426745Y372250D01*
X426708Y372316D01*
X426666Y372367D01*
X427906D01*
X427864Y372316D01*
D02*
G37*
G36*
X422137Y371669D02*
X422149Y371531D01*
X422169Y371409D01*
X422197Y371304D01*
X422233Y371214D01*
X422277Y371141D01*
X422329Y371084D01*
X422389Y371044D01*
X422457Y371020D01*
X422533Y371011D01*
X420933D01*
X421009Y371020D01*
X421077Y371044D01*
X421137Y371084D01*
X421189Y371141D01*
X421233Y371214D01*
X421269Y371304D01*
X421297Y371409D01*
X421317Y371531D01*
X421329Y371669D01*
X421333Y371823D01*
X422133D01*
X422137Y371669D01*
D02*
G37*
G36*
X410076Y371294D02*
X410109Y370810D01*
X410129Y370680D01*
X410153Y370566D01*
X410182Y370467D01*
X410215Y370385D01*
X410252Y370318D01*
X410294Y370267D01*
X409054D01*
X409096Y370318D01*
X409133Y370385D01*
X409166Y370467D01*
X409195Y370566D01*
X409219Y370680D01*
X409239Y370810D01*
X409265Y371117D01*
X409274Y371488D01*
X410074D01*
X410076Y371294D01*
D02*
G37*
G36*
X413499Y371451D02*
X413487Y371427D01*
X413477Y371388D01*
X413468Y371332D01*
X413461Y371259D01*
X413454Y371116D01*
X413479Y370752D01*
X413499Y370622D01*
X413523Y370508D01*
X413552Y370409D01*
X413585Y370327D01*
X413622Y370260D01*
X413664Y370209D01*
X412424D01*
X412465Y370260D01*
X412503Y370327D01*
X412536Y370409D01*
X412564Y370508D01*
X412589Y370622D01*
X412608Y370752D01*
X412631Y371009D01*
X412610Y371332D01*
X412598Y371388D01*
X412585Y371427D01*
X412569Y371451D01*
X412551Y371460D01*
X413512D01*
X413499Y371451D01*
D02*
G37*
G36*
X405224Y368969D02*
X405156Y368945D01*
X405096Y368905D01*
X405044Y368849D01*
X405000Y368777D01*
X404964Y368689D01*
X404936Y368585D01*
X404916Y368465D01*
X404916Y368461D01*
X404935Y368176D01*
X404955Y368046D01*
X404979Y367932D01*
X405008Y367833D01*
X405041Y367751D01*
X405078Y367684D01*
X405120Y367633D01*
X403880D01*
X403922Y367684D01*
X403959Y367751D01*
X403992Y367833D01*
X404021Y367932D01*
X404045Y368046D01*
X404065Y368176D01*
X404087Y368432D01*
X404084Y368465D01*
X404064Y368585D01*
X404036Y368689D01*
X404000Y368777D01*
X403956Y368849D01*
X403904Y368905D01*
X403844Y368945D01*
X403776Y368969D01*
X403700Y368977D01*
X405300D01*
X405224Y368969D01*
D02*
G37*
G36*
X432107Y358965D02*
X432210Y358878D01*
X432310Y358807D01*
X432407Y358750D01*
X432500Y358707D01*
X432591Y358679D01*
X432678Y358665D01*
X432762Y358666D01*
X432843Y358681D01*
X432920Y358711D01*
X431789Y357580D01*
X431819Y357657D01*
X431834Y357738D01*
X431835Y357822D01*
X431821Y357909D01*
X431793Y358000D01*
X431750Y358093D01*
X431693Y358190D01*
X431622Y358290D01*
X431535Y358393D01*
X431435Y358500D01*
X432000Y359065D01*
X432107Y358965D01*
D02*
G37*
G36*
Y349965D02*
X432210Y349878D01*
X432310Y349807D01*
X432407Y349749D01*
X432500Y349707D01*
X432591Y349679D01*
X432678Y349665D01*
X432762Y349666D01*
X432843Y349681D01*
X432920Y349711D01*
X431789Y348580D01*
X431819Y348657D01*
X431834Y348738D01*
X431835Y348822D01*
X431821Y348909D01*
X431793Y349000D01*
X431750Y349093D01*
X431693Y349190D01*
X431622Y349290D01*
X431535Y349393D01*
X431435Y349500D01*
X432000Y350065D01*
X432107Y349965D01*
D02*
G37*
%LPC*%
G36*
X419738Y379634D02*
X418106D01*
Y378642D01*
X419738D01*
Y379634D01*
D02*
G37*
%LPD*%
G36*
X397256Y374697D02*
X397192Y374652D01*
X397135Y374577D01*
X397086Y374472D01*
X397044Y374337D01*
X397010Y374172D01*
X396984Y373977D01*
X396954Y373497D01*
X396950Y373212D01*
X395450D01*
X395447Y373497D01*
X395402Y374172D01*
X395375Y374337D01*
X395343Y374472D01*
X395304Y374577D01*
X395259Y374652D01*
X395209Y374697D01*
X395152Y374712D01*
X397328D01*
X397256Y374697D01*
D02*
G37*
G36*
X396478Y371457D02*
X396231Y371204D01*
X395678Y370576D01*
X395556Y370409D01*
X395466Y370263D01*
X395407Y370138D01*
X395379Y370034D01*
X395382Y369952D01*
X395417Y369891D01*
X393851Y371457D01*
X393913Y371422D01*
X393995Y371418D01*
X394098Y371446D01*
X394223Y371505D01*
X394369Y371595D01*
X394536Y371717D01*
X394725Y371870D01*
X395165Y372270D01*
X395417Y372517D01*
X396478Y371457D01*
D02*
G37*
G36*
X394549Y367545D02*
X394464Y367515D01*
X394389Y367464D01*
X394324Y367394D01*
X394269Y367302D01*
X394224Y367191D01*
X394189Y367060D01*
X394164Y366908D01*
X394149Y366736D01*
X394144Y366544D01*
X393144D01*
X393139Y366736D01*
X393124Y366908D01*
X393099Y367060D01*
X393064Y367191D01*
X393019Y367302D01*
X392964Y367394D01*
X392899Y367464D01*
X392824Y367515D01*
X392739Y367545D01*
X392644Y367555D01*
X394644D01*
X394549Y367545D01*
D02*
G37*
G36*
X394145Y364341D02*
X394194Y363571D01*
X394207Y363541D01*
X394222Y363531D01*
X392644D01*
X392739Y363541D01*
X392824Y363571D01*
X392899Y363621D01*
X392964Y363691D01*
X393019Y363781D01*
X393064Y363891D01*
X393099Y364021D01*
X393124Y364171D01*
X393139Y364341D01*
X393144Y364531D01*
X394144D01*
X394145Y364341D01*
D02*
G37*
G36*
X392376Y362374D02*
X392366Y362389D01*
X392336Y362403D01*
X392286Y362414D01*
X392216Y362424D01*
X392016Y362440D01*
X391376Y362453D01*
Y363453D01*
X391566Y363454D01*
X392336Y363503D01*
X392366Y363516D01*
X392376Y363531D01*
Y362374D01*
D02*
G37*
G36*
X387634Y363516D02*
X387664Y363503D01*
X387714Y363491D01*
X387784Y363481D01*
X387984Y363465D01*
X388624Y363453D01*
Y362453D01*
X388434Y362452D01*
X387664Y362403D01*
X387634Y362389D01*
X387624Y362374D01*
Y363531D01*
X387634Y363516D01*
D02*
G37*
G36*
X385778Y362374D02*
X385768Y362385D01*
X385738Y362395D01*
X385688Y362404D01*
X385618Y362411D01*
X385288Y362427D01*
X384778Y362432D01*
Y363432D01*
X384968Y363433D01*
X385688Y363481D01*
X385738Y363495D01*
X385768Y363512D01*
X385778Y363531D01*
Y362374D01*
D02*
G37*
G36*
X382246Y363837D02*
X382277Y363752D01*
X382328Y363677D01*
X382399Y363612D01*
X382490Y363557D01*
X382602Y363512D01*
X382733Y363477D01*
X382885Y363452D01*
X383056Y363437D01*
X383248Y363432D01*
Y362432D01*
X383058Y362429D01*
X382738Y362402D01*
X382608Y362379D01*
X382498Y362349D01*
X382408Y362312D01*
X382338Y362269D01*
X382288Y362219D01*
X382258Y362162D01*
X382248Y362099D01*
X382236Y363932D01*
X382246Y363837D01*
D02*
G37*
G36*
X397043Y360898D02*
X397034Y360929D01*
X397004Y360957D01*
X396954Y360982D01*
X396884Y361004D01*
X396794Y361022D01*
X396684Y361037D01*
X396404Y361057D01*
X396043Y361063D01*
Y362063D01*
X396235Y362068D01*
X396407Y362083D01*
X396558Y362108D01*
X396689Y362143D01*
X396801Y362188D01*
X396892Y362243D01*
X396963Y362308D01*
X397014Y362383D01*
X397045Y362468D01*
X397056Y362563D01*
X397043Y360898D01*
D02*
G37*
G36*
X394232Y361548D02*
X394260Y361535D01*
X394306Y361523D01*
X394371Y361512D01*
X394455Y361504D01*
X394818Y361487D01*
X395153Y361484D01*
Y360484D01*
X394977Y360484D01*
X394260Y360434D01*
X394232Y360421D01*
X394222Y360406D01*
Y361563D01*
X394232Y361548D01*
D02*
G37*
G36*
X394232Y359579D02*
X394260Y359566D01*
X394308Y359554D01*
X394374Y359544D01*
X394565Y359528D01*
X394992Y359517D01*
X395173Y359516D01*
Y358516D01*
X394992Y358515D01*
X394260Y358466D01*
X394232Y358452D01*
X394222Y358437D01*
Y359594D01*
X394232Y359579D01*
D02*
G37*
G36*
X397056Y357446D02*
X397045Y357541D01*
X397014Y357626D01*
X396963Y357701D01*
X396892Y357766D01*
X396801Y357821D01*
X396689Y357866D01*
X396558Y357901D01*
X396407Y357926D01*
X396235Y357941D01*
X396043Y357946D01*
Y358946D01*
X396234Y358948D01*
X396794Y358985D01*
X396884Y359002D01*
X396954Y359023D01*
X397004Y359046D01*
X397034Y359073D01*
X397043Y359102D01*
X397056Y357446D01*
D02*
G37*
G36*
X387634Y357602D02*
X387664Y357580D01*
X387714Y357562D01*
X387784Y357545D01*
X387874Y357531D01*
X388114Y357511D01*
X388624Y357500D01*
Y356500D01*
X387624Y356469D01*
Y357626D01*
X387634Y357602D01*
D02*
G37*
G36*
X385778Y356469D02*
X385768Y356484D01*
X385738Y356497D01*
X385688Y356509D01*
X385618Y356519D01*
X385418Y356535D01*
X384778Y356547D01*
Y357547D01*
X384968Y357548D01*
X385738Y357597D01*
X385768Y357611D01*
X385778Y357626D01*
Y356469D01*
D02*
G37*
G36*
X382179Y357946D02*
X382209Y357862D01*
X382259Y357788D01*
X382329Y357724D01*
X382419Y357670D01*
X382529Y357626D01*
X382659Y357592D01*
X382809Y357567D01*
X382979Y357552D01*
X383169Y357547D01*
Y356547D01*
X382977Y356542D01*
X382806Y356527D01*
X382654Y356502D01*
X382523Y356467D01*
X382412Y356422D01*
X382320Y356367D01*
X382249Y356302D01*
X382199Y356227D01*
X382168Y356142D01*
X382157Y356047D01*
X382169Y358039D01*
X382179Y357946D01*
D02*
G37*
G36*
X394208Y356452D02*
X394196Y356401D01*
X394185Y356316D01*
X394167Y356044D01*
X394150Y354816D01*
X394153Y354546D01*
X394216Y353781D01*
X394254Y353594D01*
X394300Y353441D01*
X394354Y353322D01*
X394416Y353237D01*
X394487Y353186D01*
X394567Y353169D01*
X392032D01*
X392111Y353186D01*
X392182Y353237D01*
X392245Y353322D01*
X392299Y353441D01*
X392345Y353594D01*
X392382Y353781D01*
X392412Y354002D01*
X392445Y354546D01*
X392448Y354792D01*
X392376Y356469D01*
X394222D01*
X394208Y356452D01*
D02*
G37*
G36*
X390261Y353977D02*
X390276Y353805D01*
X390301Y353653D01*
X390336Y353521D01*
X390381Y353410D01*
X390436Y353319D01*
X390501Y353248D01*
X390576Y353198D01*
X390661Y353167D01*
X390756Y353157D01*
X388756D01*
X388851Y353167D01*
X388936Y353198D01*
X389011Y353248D01*
X389076Y353319D01*
X389131Y353410D01*
X389176Y353521D01*
X389211Y353653D01*
X389236Y353805D01*
X389251Y353977D01*
X389256Y354169D01*
X390256D01*
X390261Y353977D01*
D02*
G37*
G36*
X394487Y350814D02*
X394416Y350763D01*
X394354Y350678D01*
X394300Y350559D01*
X394254Y350406D01*
X394216Y350219D01*
X394187Y349998D01*
X394161Y349580D01*
X394183Y349328D01*
X394226Y349071D01*
X394285Y348848D01*
X394362Y348660D01*
X394455Y348506D01*
X394566Y348386D01*
X394693Y348300D01*
X394838Y348249D01*
X394999Y348232D01*
X391599D01*
X391761Y348249D01*
X391905Y348300D01*
X392033Y348386D01*
X392143Y348506D01*
X392237Y348660D01*
X392313Y348848D01*
X392373Y349071D01*
X392415Y349328D01*
X392436Y349565D01*
X392382Y350219D01*
X392345Y350406D01*
X392299Y350559D01*
X392245Y350678D01*
X392182Y350763D01*
X392111Y350814D01*
X392032Y350831D01*
X394567D01*
X394487Y350814D01*
D02*
G37*
G36*
X394838Y342751D02*
X394693Y342700D01*
X394566Y342614D01*
X394455Y342494D01*
X394362Y342340D01*
X394285Y342152D01*
X394226Y341929D01*
X394183Y341672D01*
X394165Y341460D01*
X394195Y340414D01*
X392404D01*
X392412Y340438D01*
X392420Y340491D01*
X392427Y340575D01*
X392445Y341206D01*
X392445Y341212D01*
X392441Y341381D01*
X392415Y341672D01*
X392373Y341929D01*
X392313Y342152D01*
X392237Y342340D01*
X392143Y342494D01*
X392033Y342614D01*
X391905Y342700D01*
X391761Y342751D01*
X391599Y342768D01*
X394999D01*
X394838Y342751D01*
D02*
G37*
G36*
X394186Y338562D02*
X394178Y338509D01*
X394172Y338425D01*
X394153Y337794D01*
X394149Y337008D01*
X392449D01*
X392404Y338586D01*
X394195D01*
X394186Y338562D01*
D02*
G37*
G36*
X394195Y335414D02*
X392404D01*
X392412Y335438D01*
X392420Y335491D01*
X392427Y335575D01*
X392445Y336206D01*
X392449Y336992D01*
X394149D01*
X394195Y335414D01*
D02*
G37*
G36*
X419752Y363432D02*
X419744Y363508D01*
X419720Y363576D01*
X419679Y363636D01*
X419622Y363688D01*
X419549Y363732D01*
X419460Y363768D01*
X419354Y363796D01*
X419233Y363816D01*
X419126Y363825D01*
X418707Y363797D01*
X418577Y363777D01*
X418463Y363753D01*
X418364Y363724D01*
X418282Y363691D01*
X418215Y363654D01*
X418164Y363612D01*
Y364852D01*
X418215Y364810D01*
X418282Y364773D01*
X418364Y364740D01*
X418463Y364711D01*
X418577Y364687D01*
X418707Y364667D01*
X419014Y364641D01*
X419121Y364638D01*
X419233Y364648D01*
X419354Y364668D01*
X419460Y364696D01*
X419549Y364732D01*
X419622Y364776D01*
X419679Y364828D01*
X419720Y364888D01*
X419744Y364956D01*
X419752Y365032D01*
Y363432D01*
D02*
G37*
G36*
X421646Y337740D02*
X421636Y337835D01*
X421606Y337920D01*
X421555Y337995D01*
X421484Y338060D01*
X421393Y338115D01*
X421282Y338160D01*
X421150Y338195D01*
X420998Y338220D01*
X420826Y338235D01*
X420634Y338240D01*
Y339240D01*
X420826Y339245D01*
X420998Y339260D01*
X421150Y339285D01*
X421282Y339320D01*
X421393Y339365D01*
X421484Y339420D01*
X421555Y339485D01*
X421606Y339560D01*
X421636Y339645D01*
X421646Y339740D01*
Y337740D01*
D02*
G37*
G36*
X412809Y339645D02*
X412839Y339560D01*
X412890Y339485D01*
X412961Y339420D01*
X413052Y339365D01*
X413163Y339320D01*
X413295Y339285D01*
X413447Y339260D01*
X413619Y339245D01*
X413811Y339240D01*
Y338240D01*
X413619Y338235D01*
X413447Y338220D01*
X413295Y338195D01*
X413163Y338160D01*
X413052Y338115D01*
X412961Y338060D01*
X412890Y337995D01*
X412839Y337920D01*
X412809Y337835D01*
X412799Y337740D01*
Y339740D01*
X412809Y339645D01*
D02*
G37*
G36*
X405952Y337132D02*
X405867Y337102D01*
X405792Y337052D01*
X405727Y336982D01*
X405672Y336892D01*
X405627Y336782D01*
X405592Y336652D01*
X405567Y336502D01*
X405552Y336332D01*
X405547Y336142D01*
X404547D01*
X404542Y336332D01*
X404527Y336502D01*
X404502Y336652D01*
X404467Y336782D01*
X404422Y336892D01*
X404367Y336982D01*
X404302Y337052D01*
X404227Y337102D01*
X404142Y337132D01*
X404047Y337142D01*
X406047D01*
X405952Y337132D01*
D02*
G37*
G36*
X405552Y327969D02*
X405567Y327797D01*
X405592Y327645D01*
X405627Y327514D01*
X405672Y327402D01*
X405727Y327311D01*
X405792Y327240D01*
X405867Y327190D01*
X405952Y327159D01*
X406047Y327149D01*
X404047D01*
X404142Y327159D01*
X404227Y327190D01*
X404302Y327240D01*
X404367Y327311D01*
X404422Y327402D01*
X404467Y327514D01*
X404502Y327645D01*
X404527Y327797D01*
X404542Y327969D01*
X404547Y328161D01*
X405547D01*
X405552Y327969D01*
D02*
G37*
G36*
X411323Y326213D02*
X411347Y326146D01*
X411386Y326087D01*
X411443Y326035D01*
X411514Y325992D01*
X411602Y325957D01*
X411706Y325929D01*
X411826Y325909D01*
X411916Y325902D01*
X412320Y325930D01*
X412451Y325950D01*
X412565Y325975D01*
X412664Y326005D01*
X412747Y326039D01*
X412815Y326077D01*
X412867Y326120D01*
Y324880D01*
X412815Y324923D01*
X412747Y324961D01*
X412664Y324995D01*
X412565Y325025D01*
X412451Y325050D01*
X412320Y325070D01*
X412013Y325097D01*
X411927Y325099D01*
X411826Y325091D01*
X411706Y325071D01*
X411602Y325043D01*
X411514Y325008D01*
X411443Y324965D01*
X411386Y324913D01*
X411347Y324854D01*
X411323Y324787D01*
X411315Y324713D01*
Y326287D01*
X411323Y326213D01*
D02*
G37*
%LPC*%
G36*
X437295Y254252D02*
X435732D01*
Y252669D01*
X437295D01*
Y254252D01*
D02*
G37*
G36*
X438413Y235000D02*
X436732D01*
Y233240D01*
X438413D01*
Y235000D01*
D02*
G37*
G36*
X436913Y219260D02*
X435232D01*
Y217500D01*
X436913D01*
Y219260D01*
D02*
G37*
G36*
Y211500D02*
X435232D01*
Y209740D01*
X436913D01*
Y211500D01*
D02*
G37*
G36*
X422232Y206217D02*
Y200500D01*
X424307D01*
Y206217D01*
X422232D01*
D02*
G37*
G36*
X425929Y189000D02*
X423658D01*
Y186531D01*
X425929D01*
Y189000D01*
D02*
G37*
G36*
X422653Y176971D02*
X421071D01*
Y175408D01*
X422653D01*
Y176971D01*
D02*
G37*
G36*
Y174408D02*
X421071D01*
Y172845D01*
X422653D01*
Y174408D01*
D02*
G37*
G36*
Y163699D02*
X421071D01*
Y162136D01*
X422653D01*
Y163699D01*
D02*
G37*
G36*
Y161136D02*
X421071D01*
Y159573D01*
X422653D01*
Y161136D01*
D02*
G37*
%LPD*%
D10*
X398000Y308567D02*
X399885Y308567D01*
X397687Y309813D02*
X398000Y310125D01*
Y308567D02*
X401769Y308567D01*
X398000Y309500D02*
Y310125D01*
X401732Y254732D02*
Y261768D01*
X388000Y257740D02*
Y274316D01*
X387854Y257594D02*
X388000Y257740D01*
Y276875D02*
Y285411D01*
X395500Y292911D01*
Y301878D01*
X393000Y304378D02*
X395500Y301878D01*
X393000Y304378D02*
Y304500D01*
X389000Y257240D02*
X389354Y257594D01*
X395500Y244339D02*
X406476D01*
X387854Y244406D02*
X388122Y244138D01*
X395500D01*
Y248862D02*
X400921D01*
X401000Y248941D01*
X409862Y325500D02*
X413500D01*
X412776Y312776D02*
X420500Y320500D01*
Y330825D01*
X418789Y298901D02*
X421897D01*
X418690Y299000D02*
X418789Y298901D01*
X418679Y298989D02*
X418690Y299000D01*
X414414Y299711D02*
X415135Y298989D01*
X414875Y302843D02*
X419796D01*
X414414Y299711D02*
Y302382D01*
X414875Y302843D01*
X412776Y264811D02*
Y312776D01*
X425374Y237999D02*
X427018Y236355D01*
X431980D02*
X432657Y235678D01*
X427018Y236355D02*
X431980D01*
X432657Y231729D02*
Y235678D01*
X386799Y294492D02*
X391364Y299058D01*
X392558D01*
X393000Y299500D01*
X398000Y304000D02*
Y304500D01*
X386266Y294000D02*
X386758Y294492D01*
X386799D01*
X433245Y242511D02*
X434234Y243500D01*
X432768Y240500D02*
X433245Y240977D01*
Y242511D01*
X434234Y243500D02*
X434500D01*
X430098Y261661D02*
X436000D01*
X425374Y237999D02*
Y241189D01*
X419796Y302843D02*
X420138Y303185D01*
X414350Y264811D02*
Y299350D01*
X408500Y237000D02*
X409626Y238126D01*
X417500Y264811D02*
Y268576D01*
X417450Y268625D02*
X417500Y268576D01*
X420000Y392000D02*
X421261Y393261D01*
X427421Y276000D02*
Y285689D01*
X427500Y285768D01*
X421261Y393261D02*
Y395624D01*
X416862Y396500D02*
X422138D01*
X392000Y311125D02*
Y328500D01*
X425374Y268374D02*
X427000Y270000D01*
Y275579D02*
X427421Y276000D01*
X427000Y270000D02*
Y275579D01*
X425374Y264811D02*
Y268374D01*
X436000Y271843D02*
Y273768D01*
X430500Y270500D02*
X434657D01*
X436000Y271843D01*
X426949Y266949D02*
X430500Y270500D01*
X408500Y236969D02*
Y237000D01*
X411201Y237299D02*
Y241189D01*
Y237299D02*
X411276Y237224D01*
X392000Y311125D02*
X393000Y310125D01*
Y309500D02*
Y310125D01*
X409626Y238126D02*
Y241189D01*
X399492Y243634D02*
X399500Y243626D01*
X432657Y231729D02*
X433320Y231067D01*
X427535Y222791D02*
X428326Y222000D01*
X427343Y226933D02*
X427500Y226776D01*
Y222791D02*
Y226776D01*
Y222791D02*
X427535Y222755D01*
Y222000D02*
Y222755D01*
X424567Y226933D02*
X427343D01*
X423799Y264811D02*
Y268261D01*
X417579Y274425D02*
X419153Y272850D01*
X417579Y274425D02*
Y276000D01*
X419153Y272850D02*
X419210D01*
X423799Y268261D01*
X417500Y276000D02*
Y286637D01*
X434543Y258512D02*
X435232Y257823D01*
X423799Y227701D02*
Y241189D01*
Y227701D02*
X424567Y226933D01*
X426949Y264811D02*
Y266949D01*
X430098Y258512D02*
X434543D01*
X420650Y220850D02*
Y241189D01*
X431135Y212133D02*
X431268Y212000D01*
X420650Y220850D02*
X429367Y212133D01*
X431135D01*
X422224Y222276D02*
X427500Y217000D01*
X431268D01*
X422224Y222276D02*
Y241189D01*
X417500Y204900D02*
Y241189D01*
X413787Y253000D02*
X414575Y252213D01*
D13*
X383824Y360298D02*
X384915Y359206D01*
X382575Y361063D02*
X382610Y361028D01*
X386657D01*
X386510Y359206D02*
X386701Y359016D01*
X384915Y359206D02*
X386510D01*
X386657Y361028D02*
X386701Y360984D01*
X401732Y250390D02*
Y254732D01*
X401000Y249658D02*
X401732Y250390D01*
X401000Y248941D02*
Y249658D01*
X424000Y392237D02*
Y392500D01*
X423425Y391662D02*
X424000Y392237D01*
X423425Y389478D02*
Y391662D01*
X414947Y390213D02*
X414974Y390239D01*
Y392974D01*
X415000Y393000D01*
X424862Y299138D02*
X425000Y299000D01*
X424862Y299138D02*
Y303185D01*
X421897Y298901D02*
X424466D01*
X426575Y387903D02*
X432735D01*
X432925Y387319D02*
Y387713D01*
X432735Y387903D02*
X432925Y387713D01*
Y381925D02*
Y387319D01*
X428000Y377000D02*
X432925Y381925D01*
X428000Y373955D02*
Y377000D01*
X427286Y373240D02*
X428000Y373955D01*
X427286Y373000D02*
Y373240D01*
X425000Y373000D02*
X427286D01*
Y354214D02*
X434000Y347500D01*
X427286Y354214D02*
Y373000D01*
X430440Y360060D02*
X434000Y356500D01*
X430440Y360060D02*
Y375970D01*
X436075Y381605D01*
X426949Y240020D02*
X426969Y240000D01*
X431987D02*
Y240987D01*
X426969Y240000D02*
X431987D01*
X426949Y240020D02*
Y241189D01*
X416500Y310272D02*
X420138D01*
X437947Y262930D02*
X437972Y262956D01*
X435230Y262930D02*
X437947D01*
X415000Y383500D02*
Y387465D01*
X404461Y370500D02*
X404500Y370461D01*
X415000Y387465D02*
X415360Y387825D01*
X416079Y387903D02*
X423425D01*
X416001Y387825D02*
X416079Y387903D01*
X415360Y387825D02*
X416001D01*
X435205Y262904D02*
X435230Y262930D01*
X436116Y396616D02*
X436232Y396500D01*
X436116Y396616D02*
Y399884D01*
X436000Y400000D02*
X436116Y399884D01*
X399500Y272500D02*
X402728D01*
X399500Y277500D02*
X402728D01*
X426069Y234055D02*
X426100Y234086D01*
X426069Y232143D02*
Y234055D01*
Y232143D02*
X427146Y231067D01*
X427343D01*
X398134Y261402D02*
X398500Y261768D01*
X398000Y262268D02*
X398500Y261768D01*
X402571Y261661D02*
X402571Y261661D01*
X406476D01*
X406272Y277500D02*
X409500D01*
X409763D01*
X411201Y264811D02*
Y276062D01*
X409763Y277500D02*
X411201Y276062D01*
X430550Y310279D02*
X430558Y310287D01*
X428020Y313776D02*
X428059Y313738D01*
X424901Y313776D02*
X428020D01*
X424870Y310279D02*
X430550D01*
X424862Y310272D02*
X424870Y310279D01*
X417265Y378142D02*
X417606D01*
X421500Y369500D02*
X421602Y369398D01*
X421438D02*
X421602D01*
X420028Y369000D02*
X420534Y368495D01*
X421438Y369398D02*
X421500Y369461D01*
X420630Y369398D02*
X421438D01*
X420534Y368495D02*
X421438Y369398D01*
X420028Y369000D02*
X420528Y369500D01*
X421203Y369000D02*
X421602Y369398D01*
X420528Y369500D02*
X420630Y369398D01*
X417531Y364232D02*
X421193D01*
X415000Y379768D02*
Y383500D01*
X417606Y376174D02*
X421826D01*
X425000Y373000D01*
X421733Y370227D02*
X422000Y369961D01*
X417606Y374205D02*
X419795D01*
X417265D02*
X417606D01*
X404500Y376174D02*
X409523D01*
X404500Y375736D02*
X404736Y375500D01*
X404500Y375736D02*
Y376174D01*
X426575Y389478D02*
X426576Y389479D01*
X435531D01*
X436000Y389011D01*
Y387394D02*
Y389011D01*
X432768Y396500D02*
X432929Y396339D01*
X432925Y392831D02*
X432929Y392834D01*
Y396339D01*
X436055Y392850D02*
X436075Y392831D01*
X436055Y396323D02*
X436232Y396500D01*
X436055Y392850D02*
Y396323D01*
X436000Y387394D02*
X436075Y387319D01*
Y381605D02*
Y387319D01*
X414947Y390193D02*
X415610Y389530D01*
X416026D01*
X416079Y389478D01*
X423425D01*
X387350Y345500D02*
X388516Y346665D01*
X404500Y367000D02*
Y370461D01*
X404461Y370500D02*
X404500Y370539D01*
X394779Y328500D02*
X398000D01*
X414000Y376000D02*
X415000Y375000D01*
Y372579D02*
Y375000D01*
X421193Y364232D02*
X421500Y364539D01*
X419795Y374205D02*
X421733Y372267D01*
Y370227D02*
Y372267D01*
X413044Y369576D02*
Y371932D01*
X409523Y376174D02*
X410083D01*
X409674Y369634D02*
Y374113D01*
X409766Y374205D01*
X410083D01*
X409431Y378050D02*
X409523Y378142D01*
X409431Y376266D02*
X409523Y376174D01*
X409431Y376266D02*
Y378050D01*
X409523Y378142D02*
X410083D01*
X424862Y313815D02*
X424901Y313776D01*
X409217Y272215D02*
X409626Y271806D01*
X406272Y272500D02*
X406309Y272462D01*
X408707D01*
X408954Y272215D01*
X409217D01*
X409626Y265986D02*
Y271806D01*
X423700Y192200D02*
X427500Y196000D01*
X419075Y219925D02*
X427500Y211500D01*
Y196000D02*
Y211500D01*
X423158Y189500D02*
X423700Y190042D01*
Y192200D01*
X419075Y219925D02*
Y241189D01*
X420287Y255000D02*
X422224Y256937D01*
X418287Y253000D02*
X420287Y255000D01*
X422224Y256937D02*
X430098D01*
D15*
X410953Y339000D02*
X411213Y338740D01*
X423000D01*
X405047Y325500D02*
Y339000D01*
X381000Y363268D02*
X381336Y362932D01*
X386680D02*
X386701Y362953D01*
X381336Y362932D02*
X386680D01*
X386701Y362953D02*
X393299D01*
X389756Y352000D02*
Y356244D01*
X389000Y357000D02*
X389756Y356244D01*
X386748Y357000D02*
X389000D01*
X386701Y357047D02*
X386748Y357000D01*
X381953Y357047D02*
X386701D01*
X393644Y362953D02*
Y369486D01*
X393299Y362953D02*
X393644D01*
Y369486D02*
X393657Y369500D01*
X393299Y360984D02*
X395153D01*
X395733Y361563D01*
X397603D01*
X398500Y362461D01*
X395742Y358446D02*
X397593D01*
X395173Y359016D02*
X395742Y358446D01*
X397593D02*
X398500Y357539D01*
X393299Y359016D02*
X395173D01*
D17*
X398000Y304000D02*
X398290Y303710D01*
Y302526D02*
Y303710D01*
X400343Y298400D02*
Y300474D01*
X398290Y302526D02*
X400343Y300474D01*
Y298400D02*
X403259Y295483D01*
D56*
X398000Y299500D02*
D03*
Y304500D02*
D03*
X393000Y309500D02*
D03*
Y304500D02*
D03*
Y299500D02*
D03*
X398000Y309500D02*
D03*
D72*
X382146Y244406D02*
D03*
Y257594D02*
D03*
X387854D02*
D03*
Y244406D02*
D03*
D73*
X395500Y244138D02*
D03*
Y248862D02*
D03*
X432657Y226933D02*
D03*
X427343D02*
D03*
Y231067D02*
D03*
X432657D02*
D03*
D74*
X401000Y244342D02*
D03*
Y249658D02*
D03*
D75*
X405047Y339000D02*
D03*
X410953D02*
D03*
D76*
X409862Y325500D02*
D03*
X405138D02*
D03*
X425362D02*
D03*
X420638D02*
D03*
X412138Y396500D02*
D03*
X416862D02*
D03*
X422138D02*
D03*
X426862D02*
D03*
D77*
X420441Y331260D02*
D03*
X425559D02*
D03*
X423000Y338740D02*
D03*
D78*
X381000Y366732D02*
D03*
Y363268D02*
D03*
X435205Y262449D02*
D03*
Y265913D02*
D03*
X436000Y277232D02*
D03*
Y273768D02*
D03*
X427500Y285768D02*
D03*
Y289232D02*
D03*
X417500Y286268D02*
D03*
Y289732D02*
D03*
D79*
X415135Y298989D02*
D03*
X418679D02*
D03*
X402728Y277500D02*
D03*
X406272D02*
D03*
X402728Y272500D02*
D03*
X406272D02*
D03*
X389756Y352000D02*
D03*
X393299D02*
D03*
D80*
X425000Y299000D02*
D03*
X428465D02*
D03*
X432768Y235500D02*
D03*
X436232D02*
D03*
X434732Y212000D02*
D03*
X431268D02*
D03*
X434732Y217000D02*
D03*
X431268D02*
D03*
X431000Y222000D02*
D03*
X427535D02*
D03*
X389232Y397000D02*
D03*
X385768D02*
D03*
X432768Y240500D02*
D03*
X436232D02*
D03*
X401732Y261768D02*
D03*
X398268D02*
D03*
X436232Y396500D02*
D03*
X432768D02*
D03*
D81*
X434000Y356500D02*
D03*
Y347500D02*
D03*
D82*
X400658Y396500D02*
D03*
X395342D02*
D03*
X393657Y369500D02*
D03*
X388342D02*
D03*
X417842Y189500D02*
D03*
X423158D02*
D03*
D83*
X414947Y387142D02*
D03*
Y390213D02*
D03*
X417500Y153465D02*
D03*
Y156535D02*
D03*
Y169808D02*
D03*
Y166737D02*
D03*
X435232Y254752D02*
D03*
Y257823D02*
D03*
D84*
X427421Y276000D02*
D03*
X417579D02*
D03*
D85*
X417606Y376174D02*
D03*
Y378142D02*
D03*
X410425D02*
D03*
Y376174D02*
D03*
Y374205D02*
D03*
X417606D02*
D03*
D86*
X415000Y379768D02*
D03*
X413031D02*
D03*
Y372579D02*
D03*
X415000D02*
D03*
D87*
X423425Y387903D02*
D03*
X426575D02*
D03*
Y389478D02*
D03*
X423425D02*
D03*
D88*
X388000Y274316D02*
D03*
Y276875D02*
D03*
D89*
X394779Y328500D02*
D03*
X392220D02*
D03*
D90*
X418287Y253000D02*
D03*
D91*
X430098Y261661D02*
D03*
Y260087D02*
D03*
Y258512D02*
D03*
Y256937D02*
D03*
Y255362D02*
D03*
Y253787D02*
D03*
Y252213D02*
D03*
Y250638D02*
D03*
Y249063D02*
D03*
Y247488D02*
D03*
Y245913D02*
D03*
Y244339D02*
D03*
X406476D02*
D03*
Y245913D02*
D03*
Y247488D02*
D03*
Y249063D02*
D03*
Y250638D02*
D03*
Y252213D02*
D03*
Y253787D02*
D03*
Y255362D02*
D03*
Y256937D02*
D03*
Y258512D02*
D03*
Y260087D02*
D03*
Y261661D02*
D03*
D92*
X426949Y241189D02*
D03*
X425374D02*
D03*
X423799D02*
D03*
X422224D02*
D03*
X420650D02*
D03*
X419075D02*
D03*
X417500D02*
D03*
X415925D02*
D03*
X414350D02*
D03*
X412776D02*
D03*
X411201D02*
D03*
X409626D02*
D03*
Y264811D02*
D03*
X411201D02*
D03*
X412776D02*
D03*
X414350D02*
D03*
X415925D02*
D03*
X417500D02*
D03*
X419075D02*
D03*
X420650D02*
D03*
X422224D02*
D03*
X423799D02*
D03*
X425374D02*
D03*
X426949D02*
D03*
D93*
X420571Y161636D02*
D03*
X417500D02*
D03*
X420571Y174908D02*
D03*
X417500D02*
D03*
D94*
X393299Y357047D02*
D03*
Y359016D02*
D03*
Y360984D02*
D03*
Y362953D02*
D03*
X386701D02*
D03*
Y360984D02*
D03*
Y359016D02*
D03*
Y357047D02*
D03*
D95*
X421500Y369461D02*
D03*
Y364539D02*
D03*
X404500Y375461D02*
D03*
Y370539D02*
D03*
D96*
X396240Y386700D02*
D03*
X392500D02*
D03*
X388760D02*
D03*
Y377300D02*
D03*
X396240D02*
D03*
D97*
X424862Y313815D02*
D03*
Y306728D02*
D03*
Y303185D02*
D03*
X420138D02*
D03*
Y306728D02*
D03*
Y313815D02*
D03*
Y310272D02*
D03*
X424862D02*
D03*
D98*
X432925Y392831D02*
D03*
X436075D02*
D03*
Y387319D02*
D03*
X432925D02*
D03*
D99*
X381000Y353228D02*
D03*
Y356772D02*
D03*
D100*
X417500Y183395D02*
D03*
Y179930D02*
D03*
D101*
X399000Y362461D02*
D03*
Y357539D02*
D03*
D102*
X395961Y136000D02*
D03*
X416039D02*
D03*
D103*
X393299Y345500D02*
D03*
X387000D02*
D03*
D104*
X417500Y204900D02*
D03*
D105*
X421732Y200000D02*
D03*
X413268D02*
D03*
D106*
X417500Y195200D02*
D03*
D107*
X396240Y388500D02*
Y395000D01*
X395342Y396500D02*
X395342Y396500D01*
X396240Y387700D02*
Y388500D01*
X388760Y387700D02*
Y396500D01*
X388801D02*
X395342D01*
X396200Y372239D02*
Y377260D01*
X393657Y369697D02*
X396200Y372239D01*
X393657Y369500D02*
Y369697D01*
X396200Y377260D02*
X396240Y377300D01*
X404891Y388500D02*
X406384Y389992D01*
X396590Y387200D02*
Y388500D01*
X404891D01*
X406384Y389992D02*
X408055D01*
X421732Y200000D02*
X421732Y200000D01*
X413268D02*
X413268Y200000D01*
X420571Y174908D02*
X420663Y175000D01*
X417500Y189842D02*
Y195200D01*
Y189842D02*
X417842Y189500D01*
X417500Y183395D02*
Y188200D01*
Y174908D02*
Y179930D01*
Y161636D02*
Y166737D01*
Y156535D02*
Y161636D01*
Y141461D02*
Y153465D01*
Y169808D02*
Y174908D01*
D108*
X393299Y334500D02*
Y339500D01*
Y345500D02*
Y352000D01*
Y339500D02*
Y345500D01*
Y352000D02*
Y356621D01*
D109*
X421261Y395624D02*
X422138Y396500D01*
X408055Y389992D02*
Y391554D01*
X411261Y394760D01*
Y395624D01*
X412138Y396500D01*
X416039Y140000D02*
X417500Y141461D01*
D110*
X408055Y389992D02*
D03*
Y174008D02*
D03*
D111*
X424287Y259000D02*
D03*
X420287D02*
D03*
X416287D02*
D03*
X412287D02*
D03*
Y255000D02*
D03*
Y251000D02*
D03*
Y247000D02*
D03*
X416287D02*
D03*
Y251000D02*
D03*
Y255000D02*
D03*
X420287D02*
D03*
X424287D02*
D03*
Y251000D02*
D03*
X420287D02*
D03*
Y247000D02*
D03*
X424287D02*
D03*
D112*
X378646Y389992D02*
D03*
D113*
X408055Y349992D02*
D03*
Y214008D02*
D03*
D114*
X425500Y195500D02*
D03*
X422500Y294500D02*
D03*
X401769Y308567D02*
D03*
X382500Y250500D02*
D03*
X395500Y255500D02*
D03*
X401732Y254732D02*
D03*
X398000Y285500D02*
D03*
X391500Y271000D02*
D03*
X407621Y265285D02*
D03*
X387476Y295380D02*
D03*
X424000Y392500D02*
D03*
X415000Y393000D02*
D03*
X413500Y325500D02*
D03*
X383692Y360166D02*
D03*
X421897Y298901D02*
D03*
X430500Y385500D02*
D03*
X430440Y375970D02*
D03*
X409500Y204500D02*
D03*
Y195500D02*
D03*
X408500Y292000D02*
D03*
X403259Y295483D02*
D03*
X437972Y262956D02*
D03*
X409500Y364000D02*
D03*
X400500Y383500D02*
D03*
X410500D02*
D03*
X381000D02*
D03*
X385500Y390500D02*
D03*
X434500Y243500D02*
D03*
X424500Y175000D02*
D03*
X425405Y205152D02*
D03*
X399195Y367459D02*
D03*
X398000Y352000D02*
D03*
X392500Y374000D02*
D03*
Y378600D02*
D03*
X422500Y282000D02*
D03*
X400000Y269000D02*
D03*
X400500Y240500D02*
D03*
X408500Y281500D02*
D03*
X413000Y332000D02*
D03*
X399000Y322500D02*
D03*
X416500Y310272D02*
D03*
X424000Y379500D02*
D03*
Y383500D02*
D03*
X419500D02*
D03*
X383500Y371000D02*
D03*
X436000Y400000D02*
D03*
X399500Y277500D02*
D03*
Y272500D02*
D03*
X426100Y234086D02*
D03*
X427500Y189500D02*
D03*
X424000Y161636D02*
D03*
X409500Y277500D02*
D03*
X417450Y268625D02*
D03*
X430558Y310287D02*
D03*
X428059Y313738D02*
D03*
X427286Y373000D02*
D03*
X417000Y369500D02*
D03*
X417531Y364232D02*
D03*
X415000Y383500D02*
D03*
X420015Y391991D02*
D03*
X404500Y379500D02*
D03*
Y367000D02*
D03*
X398000Y328500D02*
D03*
X414000Y376000D02*
D03*
X413044Y369576D02*
D03*
X409674Y369634D02*
D03*
X409217Y272215D02*
D03*
X408500Y237224D02*
D03*
X411276D02*
D03*
X431437Y401000D02*
D03*
X423375D02*
D03*
X415312D02*
D03*
X407250D02*
D03*
X399187D02*
D03*
X391125D02*
D03*
X383063D02*
D03*
X375000Y401000D02*
D03*
X439500Y364030D02*
D03*
Y371424D02*
D03*
Y378818D02*
D03*
Y386212D02*
D03*
Y393606D02*
D03*
X439500Y401000D02*
D03*
X439500Y297485D02*
D03*
Y304879D02*
D03*
Y312273D02*
D03*
Y319667D02*
D03*
Y327060D02*
D03*
Y334454D02*
D03*
Y341848D02*
D03*
Y349242D02*
D03*
Y356636D02*
D03*
X439500Y230939D02*
D03*
Y238333D02*
D03*
Y245727D02*
D03*
Y253121D02*
D03*
Y260515D02*
D03*
Y267909D02*
D03*
Y275303D02*
D03*
Y282697D02*
D03*
Y290091D02*
D03*
X427167Y157000D02*
D03*
X433333D02*
D03*
X375000Y378500D02*
D03*
Y371117D02*
D03*
Y363733D02*
D03*
Y356350D02*
D03*
Y348967D02*
D03*
Y341583D02*
D03*
Y334200D02*
D03*
Y326817D02*
D03*
Y319433D02*
D03*
Y312050D02*
D03*
Y304667D02*
D03*
Y297283D02*
D03*
Y289900D02*
D03*
Y282517D02*
D03*
Y275133D02*
D03*
Y267750D02*
D03*
Y260367D02*
D03*
Y252983D02*
D03*
Y245600D02*
D03*
Y238217D02*
D03*
Y230833D02*
D03*
Y223450D02*
D03*
Y216067D02*
D03*
Y208683D02*
D03*
Y201300D02*
D03*
Y193917D02*
D03*
Y186533D02*
D03*
Y179150D02*
D03*
X439500Y223545D02*
D03*
Y216151D02*
D03*
Y208757D02*
D03*
Y201364D02*
D03*
Y193970D02*
D03*
Y186576D02*
D03*
Y179182D02*
D03*
Y171788D02*
D03*
X425500Y200000D02*
D03*
X409500D02*
D03*
X439500Y164394D02*
D03*
X439500Y157000D02*
D03*
X375000Y164383D02*
D03*
Y171767D02*
D03*
Y157000D02*
D03*
X382800D02*
D03*
X390600D02*
D03*
X398400D02*
D03*
X406200D02*
D03*
X414000D02*
D03*
X419500Y216500D02*
D03*
X421000Y157000D02*
D03*
X414000Y180500D02*
D03*
X415500Y225500D02*
D03*
Y230000D02*
D03*
X414000Y162500D02*
D03*
Y167000D02*
D03*
X421000Y185000D02*
D03*
Y180500D02*
D03*
Y171000D02*
D03*
Y166000D02*
D03*
X414000Y171500D02*
D03*
Y176000D02*
D03*
Y185000D02*
D03*
Y189500D02*
D03*
X415500Y234500D02*
D03*
X419500Y212000D02*
D03*
Y208000D02*
D03*
X415500D02*
D03*
Y212000D02*
D03*
Y216500D02*
D03*
Y221000D02*
D03*
D115*
X393299Y334500D02*
D03*
Y339500D02*
D03*
M02*
