G04*
G04 #@! TF.GenerationSoftware,Altium Limited,Altium Designer,20.2.5 (213)*
G04*
G04 Layer_Color=8388736*
%FSLAX25Y25*%
%MOIN*%
G70*
G04*
G04 #@! TF.SameCoordinates,4658FE5A-7A30-472D-B718-34B1B9A5D075*
G04*
G04*
G04 #@! TF.FilePolarity,Positive*
G04*
G01*
G75*
%ADD15C,0.01000*%
%ADD17C,0.00600*%
D15*
X442750Y404500D02*
X455500D01*
X442750Y128000D02*
X455500D01*
X454500Y279746D02*
Y404500D01*
Y128000D02*
Y249554D01*
X452500Y398500D02*
X454500Y404500D01*
X456500Y398500D01*
X454500Y128000D02*
X456500Y134000D01*
X452500D02*
X454500Y128000D01*
X441500Y114000D02*
Y126750D01*
X373000Y114000D02*
Y126750D01*
X420246Y115000D02*
X441500D01*
X373000D02*
X391054D01*
X435500Y117000D02*
X441500Y115000D01*
X435500Y113000D02*
X441500Y115000D01*
X373000D02*
X379000Y113000D01*
X373000Y115000D02*
X379000Y117000D01*
D17*
X452101Y251154D02*
Y255153D01*
X453101D01*
X457099Y251154D01*
X458099D01*
X453101Y257152D02*
X452101Y258152D01*
Y260152D01*
X453101Y261151D01*
X457099D01*
X458099Y260152D01*
Y258152D01*
X457099Y257152D01*
X453101D01*
X458099Y263151D02*
X457099D01*
Y264150D01*
X458099D01*
Y263151D01*
Y272148D02*
Y268149D01*
X454100Y272148D01*
X453101D01*
X452101Y271148D01*
Y269148D01*
X453101Y268149D01*
Y274147D02*
X452101Y275147D01*
Y277146D01*
X453101Y278146D01*
X454100D01*
X455100Y277146D01*
Y276146D01*
Y277146D01*
X456100Y278146D01*
X457099D01*
X458099Y277146D01*
Y275147D01*
X457099Y274147D01*
X392654Y111401D02*
X394654D01*
X393654D01*
Y117399D01*
X392654Y116399D01*
X397653Y117399D02*
X401651D01*
Y116399D01*
X397653Y112401D01*
Y111401D01*
X403651D02*
Y112401D01*
X404650D01*
Y111401D01*
X403651D01*
X411648D02*
Y117399D01*
X408649Y114400D01*
X412648D01*
X414647Y116399D02*
X415647Y117399D01*
X417646D01*
X418646Y116399D01*
Y112401D01*
X417646Y111401D01*
X415647D01*
X414647Y112401D01*
Y116399D01*
M02*
