G04*
G04 #@! TF.GenerationSoftware,Altium Limited,Altium Designer,20.2.5 (213)*
G04*
G04 Layer_Physical_Order=4*
G04 Layer_Color=16711680*
%FSLAX25Y25*%
%MOIN*%
G70*
G04*
G04 #@! TF.SameCoordinates,4658FE5A-7A30-472D-B718-34B1B9A5D075*
G04*
G04*
G04 #@! TF.FilePolarity,Positive*
G04*
G01*
G75*
%ADD10C,0.00787*%
%ADD13C,0.00800*%
%ADD110C,0.07677*%
%ADD111C,0.02400*%
%ADD112C,0.09291*%
%ADD113C,0.12520*%
%ADD114C,0.01772*%
%ADD115C,0.02559*%
G36*
X440500Y264367D02*
X439000Y263912D01*
X438971Y263955D01*
X438513Y264261D01*
X437972Y264369D01*
X437431Y264261D01*
X436973Y263955D01*
X436667Y263496D01*
X436559Y262956D01*
X436667Y262415D01*
X436973Y261956D01*
X437431Y261650D01*
X437972Y261543D01*
X438513Y261650D01*
X438971Y261956D01*
X439000Y261999D01*
X440500Y261544D01*
Y155000D01*
X374000D01*
Y382424D01*
X381241Y385497D01*
X382316Y386322D01*
X383140Y387397D01*
X383659Y388649D01*
X383836Y389992D01*
X383659Y391335D01*
X383140Y392587D01*
X382316Y393662D01*
X381241Y394487D01*
X381210Y394500D01*
Y394500D01*
X374000Y397574D01*
Y403500D01*
X440500D01*
Y264367D01*
D02*
G37*
%LPC*%
G36*
X436000Y401413D02*
X435459Y401305D01*
X435001Y400999D01*
X434695Y400541D01*
X434587Y400000D01*
X434695Y399459D01*
X435001Y399001D01*
X435459Y398695D01*
X436000Y398587D01*
X436541Y398695D01*
X436999Y399001D01*
X437305Y399459D01*
X437413Y400000D01*
X437305Y400541D01*
X436999Y400999D01*
X436541Y401305D01*
X436000Y401413D01*
D02*
G37*
G36*
X408055Y394267D02*
X406949Y394122D01*
X405918Y393694D01*
X405032Y393015D01*
X404353Y392130D01*
X403926Y391099D01*
X403780Y389992D01*
X403926Y388886D01*
X404353Y387855D01*
X405032Y386969D01*
X405918Y386290D01*
X406949Y385863D01*
X408055Y385717D01*
X409162Y385863D01*
X410193Y386290D01*
X411078Y386969D01*
X411758Y387855D01*
X412185Y388886D01*
X412330Y389992D01*
X412185Y391099D01*
X411758Y392130D01*
X411078Y393015D01*
X410193Y393694D01*
X409162Y394122D01*
X408055Y394267D01*
D02*
G37*
G36*
X415000Y384913D02*
X414459Y384805D01*
X414001Y384499D01*
X413695Y384041D01*
X413587Y383500D01*
X413695Y382959D01*
X414001Y382501D01*
X414459Y382195D01*
X415000Y382087D01*
X415541Y382195D01*
X415999Y382501D01*
X416305Y382959D01*
X416413Y383500D01*
X416305Y384041D01*
X415999Y384499D01*
X415541Y384805D01*
X415000Y384913D01*
D02*
G37*
G36*
X420015Y393404D02*
X419474Y393296D01*
X419016Y392990D01*
X418710Y392532D01*
X418602Y391991D01*
X418710Y391450D01*
X419016Y390992D01*
X419474Y390686D01*
X419912Y390599D01*
X419937Y390585D01*
X419947Y390577D01*
X419958Y390574D01*
X419972Y390566D01*
X419991Y390565D01*
X420015Y390554D01*
X420065Y390528D01*
X420133Y390484D01*
X420208Y390429D01*
X420545Y390136D01*
X420671Y390013D01*
X420727Y389990D01*
X431589Y379129D01*
Y378568D01*
X431561Y378508D01*
X430440Y377383D01*
X429899Y377276D01*
X429579Y377062D01*
X429538Y377051D01*
X429523Y377049D01*
X429513Y377044D01*
X429498Y377040D01*
X429483Y377029D01*
X429457Y377018D01*
X429400Y377003D01*
X429318Y376986D01*
X429224Y376972D01*
X428775Y376943D01*
X428596Y376941D01*
X428541Y376918D01*
X415919D01*
X415866Y376941D01*
X415513Y376949D01*
X415240Y376973D01*
X415143Y376988D01*
X415063Y377005D01*
X415009Y377020D01*
X414988Y377029D01*
X414976Y377039D01*
X414961Y377043D01*
X414948Y377050D01*
X414929Y377053D01*
X414910Y377058D01*
X414541Y377305D01*
X414000Y377413D01*
X413459Y377305D01*
X413001Y376999D01*
X412695Y376541D01*
X412587Y376000D01*
X412695Y375459D01*
X413001Y375001D01*
X413459Y374695D01*
X414000Y374587D01*
X414541Y374695D01*
X414910Y374942D01*
X414929Y374947D01*
X414948Y374950D01*
X414961Y374957D01*
X414976Y374961D01*
X414988Y374971D01*
X415009Y374980D01*
X415063Y374995D01*
X415143Y375012D01*
X415235Y375026D01*
X415682Y375057D01*
X415860Y375059D01*
X415915Y375082D01*
X425344D01*
X425472Y374935D01*
X426008Y373582D01*
X425980Y373541D01*
X425873Y373000D01*
X425980Y372459D01*
X426287Y372001D01*
X426745Y371695D01*
X427141Y371616D01*
Y315657D01*
X427118Y315604D01*
X427109Y315250D01*
X427086Y314978D01*
X427071Y314880D01*
X427054Y314801D01*
X427039Y314747D01*
X427030Y314725D01*
X427020Y314714D01*
X427016Y314699D01*
X427008Y314686D01*
X427006Y314667D01*
X427001Y314648D01*
X426754Y314279D01*
X426646Y313738D01*
X426754Y313197D01*
X427001Y312827D01*
X427006Y312809D01*
X427008Y312790D01*
X427016Y312776D01*
X427020Y312762D01*
X427030Y312750D01*
X427039Y312728D01*
X427054Y312674D01*
X427071Y312595D01*
X427085Y312503D01*
X427116Y312056D01*
X427118Y311878D01*
X427141Y311823D01*
Y296439D01*
X410208Y279506D01*
X410154Y279485D01*
X409898Y279241D01*
X409689Y279064D01*
X409610Y279006D01*
X409542Y278962D01*
X409492Y278935D01*
X409471Y278926D01*
X409455Y278924D01*
X409442Y278917D01*
X409427Y278913D01*
X409413Y278902D01*
X409395Y278892D01*
X408959Y278805D01*
X408501Y278499D01*
X408195Y278041D01*
X408087Y277500D01*
X408195Y276959D01*
X408501Y276501D01*
X408369Y275043D01*
X408300Y274692D01*
Y274134D01*
X408276Y274081D01*
X408268Y273727D01*
X408244Y273454D01*
X408230Y273357D01*
X408213Y273278D01*
X408197Y273224D01*
X408188Y273202D01*
X408179Y273190D01*
X408174Y273176D01*
X408167Y273163D01*
X408165Y273144D01*
X408159Y273125D01*
X407912Y272755D01*
X407804Y272215D01*
X407912Y271674D01*
X408218Y271215D01*
X408677Y270909D01*
X409217Y270802D01*
X409758Y270909D01*
X410216Y271215D01*
X410523Y271674D01*
X410630Y272215D01*
X410523Y272755D01*
X410276Y273125D01*
X410270Y273144D01*
X410268Y273163D01*
X410260Y273176D01*
X410256Y273190D01*
X410246Y273202D01*
X410238Y273224D01*
X410222Y273278D01*
X410205Y273357D01*
X410191Y273449D01*
X410160Y273896D01*
X410158Y274074D01*
X410135Y274129D01*
Y274312D01*
X415039Y279216D01*
X416539Y278594D01*
Y270548D01*
X416515Y270495D01*
X416507Y270143D01*
X416483Y269871D01*
X416468Y269775D01*
X416450Y269695D01*
X416434Y269641D01*
X416425Y269617D01*
X416412Y269602D01*
X416408Y269587D01*
X416402Y269578D01*
X416401Y269564D01*
X416393Y269537D01*
X416145Y269166D01*
X416037Y268625D01*
X416145Y268085D01*
X416451Y267626D01*
X416910Y267320D01*
X417450Y267213D01*
X417991Y267320D01*
X418449Y267626D01*
X418756Y268085D01*
X418863Y268625D01*
X418756Y269166D01*
X418508Y269537D01*
X418500Y269564D01*
X418498Y269578D01*
X418493Y269587D01*
X418488Y269602D01*
X418476Y269617D01*
X418466Y269641D01*
X418450Y269695D01*
X418433Y269775D01*
X418418Y269866D01*
X418387Y270311D01*
X418385Y270488D01*
X418361Y270544D01*
Y279573D01*
X433144Y294356D01*
X433342Y294651D01*
X433411Y295000D01*
Y379506D01*
X433342Y379855D01*
X433144Y380150D01*
X422019Y391276D01*
X421998Y391330D01*
X421755Y391585D01*
X421580Y391794D01*
X421522Y391873D01*
X421478Y391941D01*
X421452Y391991D01*
X421441Y392015D01*
X421440Y392034D01*
X421432Y392048D01*
X421429Y392059D01*
X421421Y392069D01*
X421408Y392094D01*
X421320Y392532D01*
X421014Y392990D01*
X420556Y393296D01*
X420015Y393404D01*
D02*
G37*
G36*
X409674Y371047D02*
X409133Y370940D01*
X408675Y370633D01*
X408368Y370175D01*
X408261Y369634D01*
X408368Y369093D01*
X408675Y368635D01*
X409133Y368329D01*
X409674Y368221D01*
X409674Y368221D01*
X410215Y368329D01*
X411380Y368534D01*
X412503Y368271D01*
X413044Y368163D01*
X413044Y368163D01*
X413584Y368271D01*
X414043Y368577D01*
X414349Y369036D01*
X414457Y369576D01*
X414349Y370117D01*
X414043Y370575D01*
X413584Y370882D01*
X413044Y370989D01*
X412503Y370882D01*
X412281Y370734D01*
X411973Y370601D01*
X411503Y370613D01*
X410665Y370671D01*
X410457Y370778D01*
X410215Y370940D01*
X409674Y371047D01*
D02*
G37*
G36*
X404500Y368413D02*
X403959Y368305D01*
X403501Y367999D01*
X403195Y367541D01*
X403087Y367000D01*
X403195Y366459D01*
X403501Y366001D01*
X403959Y365695D01*
X404500Y365587D01*
X405041Y365695D01*
X405499Y366001D01*
X405805Y366459D01*
X405913Y367000D01*
X405805Y367541D01*
X405499Y367999D01*
X405041Y368305D01*
X404500Y368413D01*
D02*
G37*
G36*
X417531Y365645D02*
X416990Y365537D01*
X416532Y365231D01*
X416226Y364773D01*
X416118Y364232D01*
X416226Y363691D01*
X416532Y363233D01*
X416990Y362926D01*
X417531Y362819D01*
X418072Y362926D01*
X418530Y363233D01*
X418836Y363691D01*
X418944Y364232D01*
X418836Y364773D01*
X418530Y365231D01*
X418072Y365537D01*
X417531Y365645D01*
D02*
G37*
G36*
X408055Y356785D02*
X406730Y356654D01*
X405456Y356268D01*
X404281Y355640D01*
X403252Y354795D01*
X402407Y353766D01*
X401780Y352591D01*
X401393Y351317D01*
X401263Y349992D01*
X401393Y348667D01*
X401780Y347393D01*
X402407Y346218D01*
X403252Y345189D01*
X404281Y344344D01*
X405456Y343717D01*
X406730Y343330D01*
X408055Y343200D01*
X409380Y343330D01*
X410654Y343717D01*
X411829Y344344D01*
X412858Y345189D01*
X413703Y346218D01*
X414331Y347393D01*
X414717Y348667D01*
X414848Y349992D01*
X414717Y351317D01*
X414331Y352591D01*
X413703Y353766D01*
X412858Y354795D01*
X411829Y355640D01*
X410654Y356268D01*
X409380Y356654D01*
X408055Y356785D01*
D02*
G37*
G36*
X393299Y341314D02*
X392605Y341176D01*
X392016Y340783D01*
X391623Y340194D01*
X391485Y339500D01*
X391623Y338806D01*
X392016Y338217D01*
X392605Y337824D01*
X392632Y337801D01*
Y336199D01*
X392605Y336176D01*
X392368Y336018D01*
X392016Y335783D01*
X391623Y335194D01*
X391485Y334500D01*
X391623Y333806D01*
X392016Y333217D01*
X392605Y332824D01*
X393299Y332686D01*
X393994Y332824D01*
X394582Y333217D01*
X394975Y333806D01*
X395114Y334500D01*
X394975Y335194D01*
X394582Y335783D01*
X393994Y336176D01*
X393967Y336199D01*
Y337801D01*
X393994Y337824D01*
X394231Y337982D01*
X394582Y338217D01*
X394975Y338806D01*
X395114Y339500D01*
X394975Y340194D01*
X394582Y340783D01*
X393994Y341176D01*
X393299Y341314D01*
D02*
G37*
G36*
X398000Y329913D02*
X397459Y329805D01*
X397001Y329499D01*
X396695Y329041D01*
X396587Y328500D01*
X396695Y327959D01*
X397001Y327501D01*
X397459Y327195D01*
X398000Y327087D01*
X398541Y327195D01*
X398999Y327501D01*
X399305Y327959D01*
X399413Y328500D01*
X399305Y329041D01*
X398999Y329499D01*
X398541Y329805D01*
X398000Y329913D01*
D02*
G37*
G36*
X413500Y326913D02*
X412959Y326805D01*
X412501Y326499D01*
X412195Y326041D01*
X412087Y325500D01*
X412195Y324959D01*
X412501Y324501D01*
X412959Y324195D01*
X413500Y324087D01*
X414041Y324195D01*
X414499Y324501D01*
X414805Y324959D01*
X414913Y325500D01*
X414805Y326041D01*
X414499Y326499D01*
X414041Y326805D01*
X413500Y326913D01*
D02*
G37*
G36*
X405500Y319720D02*
X404149Y319542D01*
X402890Y319021D01*
X401809Y318191D01*
X400980Y317110D01*
X400458Y315851D01*
X400280Y314500D01*
X399121Y313563D01*
X397999Y314500D01*
X397809Y315456D01*
X397267Y316267D01*
X396456Y316809D01*
X395500Y316999D01*
X394544Y316809D01*
X393733Y316267D01*
X393191Y315456D01*
X393001Y314500D01*
X391879Y313562D01*
X390720Y314500D01*
X390542Y315851D01*
X390020Y317110D01*
X389191Y318191D01*
X388110Y319021D01*
X386851Y319542D01*
X385500Y319720D01*
X384149Y319542D01*
X382890Y319021D01*
X381809Y318191D01*
X380979Y317110D01*
X380458Y315851D01*
X380280Y314500D01*
X380458Y313149D01*
X380979Y311890D01*
X381809Y310809D01*
X382890Y309980D01*
X384149Y309458D01*
X385500Y309280D01*
X386851Y309458D01*
X388110Y309980D01*
X388500Y310279D01*
X390000Y309539D01*
X390000Y306961D01*
X388500Y306221D01*
X388110Y306521D01*
X386851Y307042D01*
X385500Y307220D01*
X384149Y307042D01*
X382890Y306521D01*
X381809Y305691D01*
X380979Y304610D01*
X380458Y303351D01*
X380280Y302000D01*
X380458Y300649D01*
X380979Y299390D01*
X381809Y298309D01*
X382890Y297480D01*
X384149Y296958D01*
X385500Y296780D01*
X386851Y296958D01*
X387674Y297299D01*
X388903Y296754D01*
X389234Y296452D01*
X389350Y295693D01*
X389192Y295456D01*
X389191Y295456D01*
X389133Y295163D01*
X389001Y294500D01*
X389191Y293544D01*
X389733Y292733D01*
X390544Y292191D01*
X391500Y292001D01*
X392456Y292191D01*
X393267Y292733D01*
X393809Y293544D01*
X393999Y294500D01*
X393899Y295000D01*
X394608Y296211D01*
X394915Y296500D01*
X396085Y296500D01*
X396392Y296211D01*
X397101Y295000D01*
X397001Y294500D01*
X397191Y293544D01*
X397733Y292733D01*
X398544Y292191D01*
X399500Y292001D01*
X400456Y292191D01*
X401101Y292622D01*
X401838Y292431D01*
X402601Y292029D01*
Y257486D01*
X401732Y256145D01*
X401192Y256038D01*
X400733Y255731D01*
X400427Y255273D01*
X400319Y254732D01*
X400427Y254192D01*
X400733Y253733D01*
X401192Y253427D01*
X401732Y253319D01*
X402601Y251979D01*
Y241957D01*
X402670Y241608D01*
X402868Y241313D01*
X406457Y237723D01*
X406480Y237667D01*
X406609Y237535D01*
X406825Y237302D01*
X406985Y237110D01*
X407037Y237039D01*
X407076Y236980D01*
X407098Y236941D01*
X407104Y236928D01*
X407111Y236901D01*
X407164Y236835D01*
X407195Y236684D01*
X407501Y236225D01*
X407959Y235919D01*
X408500Y235811D01*
X409041Y235919D01*
X409499Y236225D01*
X410277D01*
X410735Y235919D01*
X411276Y235811D01*
X411816Y235919D01*
X412275Y236225D01*
X412581Y236684D01*
X412689Y237224D01*
X412581Y237765D01*
X412275Y238224D01*
X411816Y238530D01*
X411379Y238617D01*
X411354Y238630D01*
X411343Y238638D01*
X411333Y238641D01*
X411319Y238649D01*
X411300Y238651D01*
X411276Y238661D01*
X411226Y238688D01*
X411158Y238732D01*
X411083Y238786D01*
X410746Y239079D01*
X410619Y239203D01*
X410564Y239225D01*
X405900Y243889D01*
Y292111D01*
X411994Y298205D01*
X412191Y298500D01*
X412260Y298849D01*
Y304651D01*
X412191Y305000D01*
X411994Y305295D01*
X408689Y308599D01*
X408616Y308775D01*
X408711Y310335D01*
X408816Y310522D01*
X409191Y310809D01*
X410020Y311890D01*
X410542Y313149D01*
X410720Y314500D01*
X410542Y315851D01*
X410020Y317110D01*
X409191Y318191D01*
X408110Y319021D01*
X406851Y319542D01*
X405500Y319720D01*
D02*
G37*
G36*
X421897Y300313D02*
X421357Y300206D01*
X420898Y299900D01*
X420592Y299441D01*
X420484Y298901D01*
X420592Y298360D01*
X420898Y297901D01*
X421357Y297595D01*
X421897Y297487D01*
X422438Y297595D01*
X422896Y297901D01*
X423203Y298360D01*
X423310Y298901D01*
X423203Y299441D01*
X422896Y299900D01*
X422438Y300206D01*
X421897Y300313D01*
D02*
G37*
G36*
X399500Y278913D02*
X398959Y278805D01*
X398501Y278499D01*
X398195Y278041D01*
X398087Y277500D01*
X398195Y276959D01*
X398501Y276501D01*
X398959Y276195D01*
X399500Y276087D01*
X400041Y276195D01*
X400499Y276501D01*
X400805Y276959D01*
X400913Y277500D01*
X400805Y278041D01*
X400499Y278499D01*
X400041Y278805D01*
X399500Y278913D01*
D02*
G37*
G36*
Y273913D02*
X398959Y273805D01*
X398501Y273499D01*
X398195Y273041D01*
X398087Y272500D01*
X398195Y271959D01*
X398501Y271501D01*
X398959Y271195D01*
X399500Y271087D01*
X400041Y271195D01*
X400499Y271501D01*
X400805Y271959D01*
X400913Y272500D01*
X400805Y273041D01*
X400499Y273499D01*
X400041Y273805D01*
X399500Y273913D01*
D02*
G37*
G36*
X434500Y244913D02*
X433959Y244805D01*
X433501Y244499D01*
X433195Y244041D01*
X433087Y243500D01*
X433195Y242959D01*
X433501Y242501D01*
X433959Y242195D01*
X434500Y242087D01*
X435041Y242195D01*
X435499Y242501D01*
X435805Y242959D01*
X435913Y243500D01*
X435805Y244041D01*
X435499Y244499D01*
X435041Y244805D01*
X434500Y244913D01*
D02*
G37*
G36*
X408055Y220800D02*
X406730Y220670D01*
X405456Y220283D01*
X404281Y219656D01*
X403252Y218811D01*
X402407Y217782D01*
X401780Y216607D01*
X401393Y215333D01*
X401263Y214008D01*
X401393Y212683D01*
X401780Y211408D01*
X402407Y210234D01*
X403252Y209205D01*
X404281Y208360D01*
X405456Y207732D01*
X406730Y207346D01*
X408055Y207215D01*
X409380Y207346D01*
X410654Y207732D01*
X411829Y208360D01*
X412858Y209205D01*
X413703Y210234D01*
X414331Y211408D01*
X414717Y212683D01*
X414848Y214008D01*
X414717Y215333D01*
X414331Y216607D01*
X413703Y217782D01*
X412858Y218811D01*
X411829Y219656D01*
X410654Y220283D01*
X409380Y220670D01*
X408055Y220800D01*
D02*
G37*
%LPD*%
G36*
X420907Y391915D02*
X420928Y391840D01*
X420963Y391757D01*
X421012Y391666D01*
X421076Y391567D01*
X421153Y391461D01*
X421351Y391224D01*
X421606Y390957D01*
X421049Y390400D01*
X420912Y390534D01*
X420545Y390853D01*
X420439Y390930D01*
X420340Y390994D01*
X420249Y391043D01*
X420166Y391078D01*
X420091Y391099D01*
X420024Y391105D01*
X420901Y391982D01*
X420907Y391915D01*
D02*
G37*
G36*
X414684Y376578D02*
X414750Y376541D01*
X414833Y376508D01*
X414931Y376479D01*
X415046Y376455D01*
X415176Y376435D01*
X415483Y376409D01*
X415853Y376400D01*
Y375600D01*
X415660Y375598D01*
X415176Y375565D01*
X415046Y375545D01*
X414931Y375521D01*
X414833Y375492D01*
X414750Y375459D01*
X414684Y375422D01*
X414633Y375380D01*
Y376620D01*
X414684Y376578D01*
D02*
G37*
G36*
X429787Y375372D02*
X429737Y375415D01*
X429671Y375454D01*
X429590Y375488D01*
X429492Y375518D01*
X429379Y375543D01*
X429249Y375564D01*
X428943Y375591D01*
X428572Y375600D01*
X428602Y376400D01*
X428795Y376402D01*
X429281Y376434D01*
X429411Y376453D01*
X429526Y376476D01*
X429625Y376503D01*
X429709Y376535D01*
X429776Y376571D01*
X429829Y376611D01*
X429787Y375372D01*
D02*
G37*
G36*
X431104Y375372D02*
X431073Y375302D01*
X431046Y375217D01*
X431023Y375116D01*
X431003Y375000D01*
X430974Y374722D01*
X430959Y374382D01*
X430958Y374188D01*
X430158Y374068D01*
X430155Y374261D01*
X430118Y374742D01*
X430096Y374870D01*
X430068Y374981D01*
X430036Y375076D01*
X429999Y375154D01*
X429956Y375216D01*
X429909Y375261D01*
X431139Y375426D01*
X431104Y375372D01*
D02*
G37*
G36*
X428461Y315398D02*
X428494Y314913D01*
X428514Y314783D01*
X428538Y314669D01*
X428567Y314571D01*
X428600Y314488D01*
X428637Y314421D01*
X428679Y314370D01*
X427439D01*
X427481Y314421D01*
X427518Y314488D01*
X427551Y314571D01*
X427580Y314669D01*
X427604Y314783D01*
X427624Y314913D01*
X427650Y315221D01*
X427659Y315591D01*
X428459D01*
X428461Y315398D01*
D02*
G37*
G36*
X428637Y313054D02*
X428600Y312987D01*
X428567Y312905D01*
X428538Y312806D01*
X428514Y312692D01*
X428494Y312562D01*
X428468Y312255D01*
X428459Y311884D01*
X427659D01*
X427657Y312078D01*
X427624Y312562D01*
X427604Y312692D01*
X427580Y312806D01*
X427551Y312905D01*
X427518Y312987D01*
X427481Y313054D01*
X427439Y313105D01*
X428679D01*
X428637Y313054D01*
D02*
G37*
G36*
X430960Y311947D02*
X430993Y311463D01*
X431013Y311333D01*
X431037Y311219D01*
X431065Y311120D01*
X431098Y311038D01*
X431136Y310971D01*
X431178Y310920D01*
X429938D01*
X429979Y310971D01*
X430017Y311038D01*
X430050Y311120D01*
X430078Y311219D01*
X430103Y311333D01*
X430122Y311463D01*
X430149Y311770D01*
X430158Y312141D01*
X430958D01*
X430960Y311947D01*
D02*
G37*
G36*
X431135Y309616D02*
X431090Y309567D01*
X431051Y309503D01*
X431015Y309422D01*
X430985Y309325D01*
X430959Y309212D01*
X430938Y309084D01*
X430909Y308777D01*
X430900Y308407D01*
X430100Y308466D01*
X430098Y308659D01*
X430049Y309276D01*
X430027Y309391D01*
X430001Y309491D01*
X429971Y309575D01*
X429936Y309643D01*
X429898Y309696D01*
X431135Y309616D01*
D02*
G37*
G36*
X411093Y278528D02*
X410958Y278390D01*
X410639Y278024D01*
X410561Y277918D01*
X410498Y277820D01*
X410448Y277730D01*
X410413Y277648D01*
X410392Y277574D01*
X410386Y277509D01*
X409509Y278386D01*
X409575Y278392D01*
X409648Y278413D01*
X409730Y278448D01*
X409820Y278498D01*
X409918Y278561D01*
X410023Y278639D01*
X410259Y278838D01*
X410528Y279093D01*
X411093Y278528D01*
D02*
G37*
G36*
X409620Y273875D02*
X409653Y273390D01*
X409672Y273260D01*
X409696Y273146D01*
X409725Y273048D01*
X409758Y272965D01*
X409796Y272898D01*
X409837Y272847D01*
X408597D01*
X408639Y272898D01*
X408676Y272965D01*
X408709Y273048D01*
X408738Y273146D01*
X408762Y273260D01*
X408782Y273390D01*
X408809Y273697D01*
X408817Y274068D01*
X409617D01*
X409620Y273875D01*
D02*
G37*
G36*
X417846Y270289D02*
X417880Y269805D01*
X417901Y269675D01*
X417925Y269560D01*
X417955Y269461D01*
X417989Y269378D01*
X418027Y269310D01*
X418070Y269258D01*
X416830D01*
X416873Y269310D01*
X416912Y269378D01*
X416946Y269461D01*
X416975Y269560D01*
X417000Y269675D01*
X417020Y269805D01*
X417047Y270112D01*
X417057Y270482D01*
X417844D01*
X417846Y270289D01*
D02*
G37*
G36*
X402454Y309144D02*
X402522Y309106D01*
X402605Y309072D01*
X402704Y309043D01*
X402819Y309018D01*
X402949Y308997D01*
X403256Y308970D01*
X403626Y308961D01*
Y308174D01*
X403433Y308171D01*
X402949Y308137D01*
X402819Y308117D01*
X402704Y308092D01*
X402605Y308063D01*
X402522Y308029D01*
X402454Y307990D01*
X402402Y307947D01*
Y309188D01*
X402454Y309144D01*
D02*
G37*
G36*
X403998Y294982D02*
X403978Y294919D01*
X403961Y294839D01*
X403946Y294743D01*
X403924Y294500D01*
X403907Y294011D01*
X403905Y293815D01*
X403118Y293546D01*
X403115Y293739D01*
X403075Y294215D01*
X403050Y294339D01*
X403020Y294446D01*
X402984Y294536D01*
X402944Y294608D01*
X402897Y294663D01*
X402845Y294700D01*
X404019Y295028D01*
X403998Y294982D01*
D02*
G37*
G36*
X410379Y238681D02*
X410745Y238363D01*
X410852Y238285D01*
X410951Y238222D01*
X411041Y238172D01*
X411124Y238137D01*
X411199Y238117D01*
X411267Y238110D01*
X410390Y237233D01*
X410383Y237301D01*
X410363Y237376D01*
X410328Y237459D01*
X410279Y237549D01*
X410215Y237648D01*
X410137Y237755D01*
X409939Y237991D01*
X409685Y238259D01*
X410241Y238815D01*
X410379Y238681D01*
D02*
G37*
G36*
X407429Y238600D02*
X407796Y238290D01*
X407902Y238217D01*
X408000Y238161D01*
X408090Y238120D01*
X408171Y238094D01*
X408245Y238084D01*
X408311Y238090D01*
X407631Y237052D01*
X407613Y237114D01*
X407582Y237183D01*
X407538Y237262D01*
X407481Y237348D01*
X407411Y237443D01*
X407232Y237659D01*
X407001Y237909D01*
X406865Y238047D01*
X407291Y238735D01*
X407429Y238600D01*
D02*
G37*
D10*
X407433Y308567D02*
X411349Y304651D01*
X401769Y308567D02*
X407433D01*
X403512Y241957D02*
Y295231D01*
X403259Y295483D02*
X403512Y295231D01*
Y241957D02*
X408500Y236969D01*
X420015Y391991D02*
X432500Y379506D01*
Y295000D02*
Y379506D01*
X404988Y292488D02*
X411349Y298849D01*
X404988Y243512D02*
X411276Y237224D01*
X404988Y243512D02*
Y292488D01*
X411349Y298849D02*
Y304651D01*
X417450Y268625D02*
Y279950D01*
X432500Y295000D01*
D13*
X428059Y313738D02*
Y372045D01*
Y296059D02*
Y313738D01*
X430410Y376000D02*
X430440Y375970D01*
X414000Y376000D02*
X430410D01*
X427286Y372819D02*
Y373000D01*
Y372819D02*
X428059Y372045D01*
X409500Y277500D02*
X428059Y296059D01*
X409217Y274692D02*
X430500Y295974D01*
Y310000D01*
X409217Y272215D02*
Y274692D01*
X430558Y310287D02*
Y375500D01*
D110*
X408055Y389992D02*
D03*
Y174008D02*
D03*
D111*
X424287Y259000D02*
D03*
X420287D02*
D03*
X416287D02*
D03*
X412287D02*
D03*
Y255000D02*
D03*
Y251000D02*
D03*
Y247000D02*
D03*
X416287D02*
D03*
Y251000D02*
D03*
Y255000D02*
D03*
X420287D02*
D03*
X424287D02*
D03*
Y251000D02*
D03*
X420287D02*
D03*
Y247000D02*
D03*
X424287D02*
D03*
D112*
X378646Y389992D02*
D03*
D113*
X408055Y349992D02*
D03*
Y214008D02*
D03*
D114*
X425500Y195500D02*
D03*
X422500Y294500D02*
D03*
X401769Y308567D02*
D03*
X382500Y250500D02*
D03*
X395500Y255500D02*
D03*
X401732Y254732D02*
D03*
X398000Y285500D02*
D03*
X391500Y271000D02*
D03*
X407621Y265285D02*
D03*
X387476Y295380D02*
D03*
X424000Y392500D02*
D03*
X415000Y393000D02*
D03*
X413500Y325500D02*
D03*
X383692Y360166D02*
D03*
X421897Y298901D02*
D03*
X430500Y385500D02*
D03*
X430440Y375970D02*
D03*
X409500Y204500D02*
D03*
Y195500D02*
D03*
X408500Y292000D02*
D03*
X403259Y295483D02*
D03*
X437972Y262956D02*
D03*
X409500Y364000D02*
D03*
X400500Y383500D02*
D03*
X410500D02*
D03*
X381000D02*
D03*
X385500Y390500D02*
D03*
X434500Y243500D02*
D03*
X424500Y175000D02*
D03*
X425405Y205152D02*
D03*
X399195Y367459D02*
D03*
X398000Y352000D02*
D03*
X392500Y374000D02*
D03*
Y378600D02*
D03*
X422500Y282000D02*
D03*
X400000Y269000D02*
D03*
X400500Y240500D02*
D03*
X408500Y281500D02*
D03*
X413000Y332000D02*
D03*
X399000Y322500D02*
D03*
X416500Y310272D02*
D03*
X424000Y379500D02*
D03*
Y383500D02*
D03*
X419500D02*
D03*
X383500Y371000D02*
D03*
X436000Y400000D02*
D03*
X399500Y277500D02*
D03*
Y272500D02*
D03*
X426100Y234086D02*
D03*
X427500Y189500D02*
D03*
X424000Y161636D02*
D03*
X409500Y277500D02*
D03*
X417450Y268625D02*
D03*
X430558Y310287D02*
D03*
X428059Y313738D02*
D03*
X427286Y373000D02*
D03*
X417000Y369500D02*
D03*
X417531Y364232D02*
D03*
X415000Y383500D02*
D03*
X420015Y391991D02*
D03*
X404500Y379500D02*
D03*
Y367000D02*
D03*
X398000Y328500D02*
D03*
X414000Y376000D02*
D03*
X413044Y369576D02*
D03*
X409674Y369634D02*
D03*
X409217Y272215D02*
D03*
X408500Y237224D02*
D03*
X411276D02*
D03*
X431437Y401000D02*
D03*
X423375D02*
D03*
X415312D02*
D03*
X407250D02*
D03*
X399187D02*
D03*
X391125D02*
D03*
X383063D02*
D03*
X375000Y401000D02*
D03*
X439500Y364030D02*
D03*
Y371424D02*
D03*
Y378818D02*
D03*
Y386212D02*
D03*
Y393606D02*
D03*
X439500Y401000D02*
D03*
X439500Y297485D02*
D03*
Y304879D02*
D03*
Y312273D02*
D03*
Y319667D02*
D03*
Y327060D02*
D03*
Y334454D02*
D03*
Y341848D02*
D03*
Y349242D02*
D03*
Y356636D02*
D03*
X439500Y230939D02*
D03*
Y238333D02*
D03*
Y245727D02*
D03*
Y253121D02*
D03*
Y260515D02*
D03*
Y267909D02*
D03*
Y275303D02*
D03*
Y282697D02*
D03*
Y290091D02*
D03*
X427167Y157000D02*
D03*
X433333D02*
D03*
X375000Y378500D02*
D03*
Y371117D02*
D03*
Y363733D02*
D03*
Y356350D02*
D03*
Y348967D02*
D03*
Y341583D02*
D03*
Y334200D02*
D03*
Y326817D02*
D03*
Y319433D02*
D03*
Y312050D02*
D03*
Y304667D02*
D03*
Y297283D02*
D03*
Y289900D02*
D03*
Y282517D02*
D03*
Y275133D02*
D03*
Y267750D02*
D03*
Y260367D02*
D03*
Y252983D02*
D03*
Y245600D02*
D03*
Y238217D02*
D03*
Y230833D02*
D03*
Y223450D02*
D03*
Y216067D02*
D03*
Y208683D02*
D03*
Y201300D02*
D03*
Y193917D02*
D03*
Y186533D02*
D03*
Y179150D02*
D03*
X439500Y223545D02*
D03*
Y216151D02*
D03*
Y208757D02*
D03*
Y201364D02*
D03*
Y193970D02*
D03*
Y186576D02*
D03*
Y179182D02*
D03*
Y171788D02*
D03*
X425500Y200000D02*
D03*
X409500D02*
D03*
X439500Y164394D02*
D03*
X439500Y157000D02*
D03*
X375000Y164383D02*
D03*
Y171767D02*
D03*
Y157000D02*
D03*
X382800D02*
D03*
X390600D02*
D03*
X398400D02*
D03*
X406200D02*
D03*
X414000D02*
D03*
X419500Y216500D02*
D03*
X421000Y157000D02*
D03*
X414000Y180500D02*
D03*
X415500Y225500D02*
D03*
Y230000D02*
D03*
X414000Y162500D02*
D03*
Y167000D02*
D03*
X421000Y185000D02*
D03*
Y180500D02*
D03*
Y171000D02*
D03*
Y166000D02*
D03*
X414000Y171500D02*
D03*
Y176000D02*
D03*
Y185000D02*
D03*
Y189500D02*
D03*
X415500Y234500D02*
D03*
X419500Y212000D02*
D03*
Y208000D02*
D03*
X415500D02*
D03*
Y212000D02*
D03*
Y216500D02*
D03*
Y221000D02*
D03*
D115*
X393299Y334500D02*
D03*
Y339500D02*
D03*
M02*
