G04*
G04 #@! TF.GenerationSoftware,Altium Limited,Altium Designer,20.2.5 (213)*
G04*
G04 Layer_Physical_Order=3*
G04 Layer_Color=16711935*
%FSLAX25Y25*%
%MOIN*%
G70*
G04*
G04 #@! TF.SameCoordinates,4658FE5A-7A30-472D-B718-34B1B9A5D075*
G04*
G04*
G04 #@! TF.FilePolarity,Positive*
G04*
G01*
G75*
%ADD114C,0.01772*%
%ADD115C,0.02559*%
G36*
X440500Y402600D02*
X440063Y402320D01*
X440000Y402313D01*
X439500Y402413D01*
X438959Y402305D01*
X438501Y401999D01*
X438195Y401540D01*
X438087Y401000D01*
X438195Y400459D01*
X438501Y400001D01*
X438959Y399694D01*
X439500Y399587D01*
X440000Y399686D01*
X440063Y399680D01*
X440500Y399400D01*
Y395206D01*
X440063Y394926D01*
X440000Y394919D01*
X439500Y395019D01*
X438959Y394911D01*
X438501Y394605D01*
X438195Y394146D01*
X438087Y393606D01*
X438195Y393065D01*
X438501Y392607D01*
X438959Y392300D01*
X439500Y392193D01*
X440000Y392292D01*
X440063Y392286D01*
X440500Y392006D01*
Y387812D01*
X440063Y387532D01*
X440000Y387525D01*
X439500Y387625D01*
X438959Y387517D01*
X438501Y387211D01*
X438195Y386753D01*
X438087Y386212D01*
X438195Y385671D01*
X438501Y385213D01*
X438959Y384906D01*
X439500Y384799D01*
X440000Y384898D01*
X440063Y384892D01*
X440500Y384612D01*
Y380418D01*
X440063Y380138D01*
X440000Y380131D01*
X439500Y380231D01*
X438959Y380123D01*
X438501Y379817D01*
X438195Y379359D01*
X438087Y378818D01*
X438195Y378277D01*
X438501Y377819D01*
X438959Y377513D01*
X439500Y377405D01*
X440000Y377504D01*
X440063Y377498D01*
X440500Y377218D01*
Y373024D01*
X440063Y372744D01*
X440000Y372738D01*
X439500Y372837D01*
X438959Y372729D01*
X438501Y372423D01*
X438195Y371965D01*
X438087Y371424D01*
X438195Y370883D01*
X438501Y370425D01*
X438959Y370119D01*
X439500Y370011D01*
X440000Y370110D01*
X440063Y370104D01*
X440500Y369824D01*
Y365630D01*
X440063Y365350D01*
X440000Y365344D01*
X439500Y365443D01*
X438959Y365335D01*
X438501Y365029D01*
X438195Y364571D01*
X438087Y364030D01*
X438195Y363489D01*
X438501Y363031D01*
X438959Y362725D01*
X439500Y362617D01*
X440000Y362717D01*
X440063Y362710D01*
X440500Y362430D01*
Y358236D01*
X440063Y357956D01*
X440000Y357950D01*
X439500Y358049D01*
X438959Y357942D01*
X438501Y357635D01*
X438195Y357177D01*
X438087Y356636D01*
X438195Y356095D01*
X438501Y355637D01*
X438959Y355331D01*
X439500Y355223D01*
X440000Y355323D01*
X440063Y355316D01*
X440500Y355036D01*
Y350842D01*
X440063Y350562D01*
X440000Y350556D01*
X439500Y350655D01*
X438959Y350548D01*
X438501Y350241D01*
X438195Y349783D01*
X438087Y349242D01*
X438195Y348702D01*
X438501Y348243D01*
X438959Y347937D01*
X439500Y347829D01*
X440000Y347929D01*
X440063Y347922D01*
X440500Y347642D01*
Y343448D01*
X440063Y343168D01*
X440000Y343162D01*
X439500Y343261D01*
X438959Y343154D01*
X438501Y342847D01*
X438195Y342389D01*
X438087Y341848D01*
X438195Y341307D01*
X438501Y340849D01*
X438959Y340543D01*
X439500Y340435D01*
X440000Y340535D01*
X440063Y340528D01*
X440500Y340248D01*
Y336054D01*
X440063Y335774D01*
X440000Y335768D01*
X439500Y335867D01*
X438959Y335760D01*
X438501Y335453D01*
X438195Y334995D01*
X438087Y334454D01*
X438195Y333914D01*
X438501Y333455D01*
X438959Y333149D01*
X439500Y333041D01*
X440000Y333141D01*
X440063Y333134D01*
X440500Y332854D01*
Y328660D01*
X440063Y328380D01*
X440000Y328374D01*
X439500Y328473D01*
X438959Y328366D01*
X438501Y328060D01*
X438195Y327601D01*
X438087Y327060D01*
X438195Y326520D01*
X438501Y326061D01*
X438959Y325755D01*
X439500Y325647D01*
X440000Y325747D01*
X440063Y325740D01*
X440500Y325461D01*
Y321266D01*
X440063Y320987D01*
X440000Y320980D01*
X439500Y321079D01*
X438959Y320972D01*
X438501Y320666D01*
X438195Y320207D01*
X438087Y319667D01*
X438195Y319126D01*
X438501Y318667D01*
X438959Y318361D01*
X439500Y318253D01*
X440000Y318353D01*
X440063Y318347D01*
X440500Y318067D01*
Y313872D01*
X440063Y313593D01*
X440000Y313586D01*
X439500Y313685D01*
X438959Y313578D01*
X438501Y313272D01*
X438195Y312813D01*
X438087Y312273D01*
X438195Y311732D01*
X438501Y311273D01*
X438959Y310967D01*
X439500Y310860D01*
X440000Y310959D01*
X440063Y310952D01*
X440500Y310673D01*
Y306479D01*
X440063Y306199D01*
X440000Y306192D01*
X439500Y306292D01*
X438959Y306184D01*
X438501Y305878D01*
X438195Y305419D01*
X438087Y304879D01*
X438195Y304338D01*
X438501Y303879D01*
X438959Y303573D01*
X439500Y303466D01*
X440000Y303565D01*
X440063Y303559D01*
X440500Y303279D01*
Y299085D01*
X440063Y298805D01*
X440000Y298798D01*
X439500Y298898D01*
X438959Y298790D01*
X438501Y298484D01*
X438195Y298025D01*
X438087Y297485D01*
X438195Y296944D01*
X438501Y296486D01*
X438959Y296179D01*
X439500Y296072D01*
X440000Y296171D01*
X440063Y296165D01*
X440500Y295885D01*
Y291691D01*
X440063Y291411D01*
X440000Y291404D01*
X439500Y291504D01*
X438959Y291396D01*
X438501Y291090D01*
X438195Y290632D01*
X438087Y290091D01*
X438195Y289550D01*
X438501Y289092D01*
X438959Y288785D01*
X439500Y288678D01*
X440000Y288777D01*
X440063Y288771D01*
X440500Y288491D01*
Y284297D01*
X440063Y284017D01*
X440000Y284010D01*
X439500Y284110D01*
X438959Y284002D01*
X438501Y283696D01*
X438195Y283238D01*
X438087Y282697D01*
X438195Y282156D01*
X438501Y281698D01*
X438959Y281391D01*
X439500Y281284D01*
X440000Y281383D01*
X440063Y281377D01*
X440500Y281097D01*
Y276903D01*
X440063Y276623D01*
X440000Y276616D01*
X439500Y276716D01*
X438959Y276608D01*
X438501Y276302D01*
X438195Y275844D01*
X438087Y275303D01*
X438195Y274762D01*
X438501Y274304D01*
X438959Y273997D01*
X439500Y273890D01*
X440000Y273989D01*
X440063Y273983D01*
X440500Y273703D01*
Y269509D01*
X440063Y269229D01*
X440000Y269222D01*
X439500Y269322D01*
X438959Y269214D01*
X438501Y268908D01*
X438195Y268450D01*
X438087Y267909D01*
X438195Y267368D01*
X438501Y266910D01*
X438959Y266603D01*
X439500Y266496D01*
X440000Y266595D01*
X440063Y266589D01*
X440500Y266309D01*
Y262115D01*
X440063Y261835D01*
X440000Y261828D01*
X439500Y261928D01*
X438959Y261820D01*
X438501Y261514D01*
X438195Y261056D01*
X438087Y260515D01*
X438195Y259974D01*
X438501Y259516D01*
X438959Y259210D01*
X439500Y259102D01*
X440000Y259202D01*
X440063Y259195D01*
X440500Y258915D01*
Y254721D01*
X440063Y254441D01*
X440000Y254435D01*
X439500Y254534D01*
X438959Y254427D01*
X438501Y254120D01*
X438195Y253662D01*
X438087Y253121D01*
X438195Y252580D01*
X438501Y252122D01*
X438959Y251816D01*
X439500Y251708D01*
X440000Y251808D01*
X440063Y251801D01*
X440500Y251521D01*
Y247327D01*
X440063Y247047D01*
X440000Y247041D01*
X439500Y247140D01*
X438959Y247033D01*
X438501Y246726D01*
X438195Y246268D01*
X438087Y245727D01*
X438195Y245186D01*
X438501Y244728D01*
X438959Y244422D01*
X439500Y244314D01*
X440000Y244414D01*
X440063Y244407D01*
X440500Y244127D01*
Y239933D01*
X440063Y239653D01*
X440000Y239647D01*
X439500Y239746D01*
X438959Y239639D01*
X438501Y239332D01*
X438195Y238874D01*
X438087Y238333D01*
X438195Y237792D01*
X438501Y237334D01*
X438959Y237028D01*
X439500Y236920D01*
X440000Y237020D01*
X440063Y237013D01*
X440500Y236733D01*
Y232539D01*
X440063Y232259D01*
X440000Y232253D01*
X439500Y232352D01*
X438959Y232245D01*
X438501Y231938D01*
X438195Y231480D01*
X438087Y230939D01*
X438195Y230399D01*
X438501Y229940D01*
X438959Y229634D01*
X439500Y229526D01*
X440000Y229626D01*
X440063Y229619D01*
X440500Y229339D01*
Y225145D01*
X440063Y224865D01*
X440000Y224859D01*
X439500Y224958D01*
X438959Y224851D01*
X438501Y224545D01*
X438195Y224086D01*
X438087Y223545D01*
X438195Y223005D01*
X438501Y222546D01*
X438959Y222240D01*
X439500Y222132D01*
X440000Y222232D01*
X440063Y222225D01*
X440500Y221946D01*
Y217751D01*
X440063Y217471D01*
X440000Y217465D01*
X439500Y217564D01*
X438959Y217457D01*
X438501Y217151D01*
X438195Y216692D01*
X438087Y216151D01*
X438195Y215611D01*
X438501Y215152D01*
X438959Y214846D01*
X439500Y214738D01*
X440000Y214838D01*
X440063Y214831D01*
X440500Y214552D01*
Y210357D01*
X440063Y210078D01*
X440000Y210071D01*
X439500Y210171D01*
X438959Y210063D01*
X438501Y209757D01*
X438195Y209298D01*
X438087Y208757D01*
X438195Y208217D01*
X438501Y207758D01*
X438959Y207452D01*
X439500Y207345D01*
X440000Y207444D01*
X440063Y207438D01*
X440500Y207158D01*
Y202963D01*
X440063Y202683D01*
X440000Y202677D01*
X439500Y202777D01*
X438959Y202669D01*
X438501Y202363D01*
X438195Y201904D01*
X438087Y201364D01*
X438195Y200823D01*
X438501Y200364D01*
X438959Y200058D01*
X439500Y199951D01*
X440000Y200050D01*
X440063Y200044D01*
X440500Y199764D01*
Y195570D01*
X440063Y195290D01*
X440000Y195283D01*
X439500Y195383D01*
X438959Y195275D01*
X438501Y194969D01*
X438195Y194510D01*
X438087Y193970D01*
X438195Y193429D01*
X438501Y192971D01*
X438959Y192664D01*
X439500Y192557D01*
X440000Y192656D01*
X440063Y192650D01*
X440500Y192370D01*
Y188176D01*
X440063Y187896D01*
X440000Y187889D01*
X439500Y187989D01*
X438959Y187881D01*
X438501Y187575D01*
X438195Y187116D01*
X438087Y186576D01*
X438195Y186035D01*
X438501Y185577D01*
X438959Y185270D01*
X439500Y185163D01*
X440000Y185262D01*
X440063Y185256D01*
X440500Y184976D01*
Y180782D01*
X440063Y180502D01*
X440000Y180495D01*
X439500Y180595D01*
X438959Y180487D01*
X438501Y180181D01*
X438195Y179722D01*
X438087Y179182D01*
X438195Y178641D01*
X438501Y178183D01*
X438959Y177876D01*
X439500Y177769D01*
X440000Y177868D01*
X440063Y177862D01*
X440500Y177582D01*
Y173388D01*
X440063Y173108D01*
X440000Y173101D01*
X439500Y173201D01*
X438959Y173093D01*
X438501Y172787D01*
X438195Y172329D01*
X438087Y171788D01*
X438195Y171247D01*
X438501Y170789D01*
X438959Y170482D01*
X439500Y170375D01*
X440000Y170474D01*
X440063Y170468D01*
X440500Y170188D01*
Y165994D01*
X440063Y165714D01*
X440000Y165707D01*
X439500Y165807D01*
X438959Y165699D01*
X438501Y165393D01*
X438195Y164935D01*
X438087Y164394D01*
X438195Y163853D01*
X438501Y163395D01*
X438959Y163089D01*
X439500Y162981D01*
X440000Y163080D01*
X440063Y163074D01*
X440500Y162794D01*
Y158600D01*
X440063Y158320D01*
X440000Y158314D01*
X439500Y158413D01*
X438959Y158305D01*
X438501Y157999D01*
X438195Y157541D01*
X438087Y157000D01*
X438195Y156459D01*
X438501Y156001D01*
X438959Y155695D01*
X439500Y155587D01*
X439883Y155663D01*
X440163Y155434D01*
X440274Y155261D01*
X440198Y155000D01*
X374302D01*
X374226Y155261D01*
X374337Y155434D01*
X374618Y155663D01*
X375000Y155587D01*
X375541Y155695D01*
X375999Y156001D01*
X376305Y156459D01*
X376413Y157000D01*
X376305Y157541D01*
X375999Y157999D01*
X375541Y158305D01*
X375000Y158413D01*
X374500Y158314D01*
X374437Y158320D01*
X374000Y158600D01*
Y162783D01*
X374437Y163063D01*
X374500Y163070D01*
X375000Y162970D01*
X375541Y163078D01*
X375999Y163384D01*
X376305Y163843D01*
X376413Y164383D01*
X376305Y164924D01*
X375999Y165382D01*
X375541Y165689D01*
X375000Y165796D01*
X374500Y165697D01*
X374437Y165703D01*
X374000Y165983D01*
Y170167D01*
X374437Y170447D01*
X374500Y170453D01*
X375000Y170354D01*
X375541Y170461D01*
X375999Y170767D01*
X376305Y171226D01*
X376413Y171767D01*
X376305Y172307D01*
X375999Y172766D01*
X375541Y173072D01*
X375000Y173180D01*
X374500Y173080D01*
X374437Y173087D01*
X374000Y173366D01*
Y177550D01*
X374437Y177830D01*
X374500Y177837D01*
X375000Y177737D01*
X375541Y177845D01*
X375999Y178151D01*
X376305Y178609D01*
X376413Y179150D01*
X376305Y179691D01*
X375999Y180149D01*
X375541Y180455D01*
X375000Y180563D01*
X374500Y180464D01*
X374437Y180470D01*
X374000Y180750D01*
Y184933D01*
X374437Y185213D01*
X374500Y185220D01*
X375000Y185120D01*
X375541Y185228D01*
X375999Y185534D01*
X376305Y185993D01*
X376413Y186533D01*
X376305Y187074D01*
X375999Y187532D01*
X375541Y187839D01*
X375000Y187946D01*
X374500Y187847D01*
X374437Y187853D01*
X374000Y188133D01*
Y192317D01*
X374437Y192597D01*
X374500Y192603D01*
X375000Y192504D01*
X375541Y192611D01*
X375999Y192918D01*
X376305Y193376D01*
X376413Y193917D01*
X376305Y194457D01*
X375999Y194916D01*
X375541Y195222D01*
X375000Y195330D01*
X374500Y195230D01*
X374437Y195237D01*
X374000Y195517D01*
Y199700D01*
X374437Y199980D01*
X374500Y199987D01*
X375000Y199887D01*
X375541Y199995D01*
X375999Y200301D01*
X376305Y200759D01*
X376413Y201300D01*
X376305Y201841D01*
X375999Y202299D01*
X375541Y202605D01*
X375000Y202713D01*
X374500Y202613D01*
X374437Y202620D01*
X374000Y202900D01*
Y207083D01*
X374437Y207363D01*
X374500Y207370D01*
X375000Y207270D01*
X375541Y207378D01*
X375999Y207684D01*
X376305Y208143D01*
X376413Y208683D01*
X376305Y209224D01*
X375999Y209682D01*
X375541Y209989D01*
X375000Y210096D01*
X374500Y209997D01*
X374437Y210003D01*
X374000Y210283D01*
Y214467D01*
X374437Y214747D01*
X374500Y214753D01*
X375000Y214654D01*
X375541Y214761D01*
X375999Y215068D01*
X376305Y215526D01*
X376413Y216067D01*
X376305Y216607D01*
X375999Y217066D01*
X375541Y217372D01*
X375000Y217480D01*
X374500Y217380D01*
X374437Y217387D01*
X374000Y217667D01*
Y221850D01*
X374437Y222130D01*
X374500Y222136D01*
X375000Y222037D01*
X375541Y222145D01*
X375999Y222451D01*
X376305Y222909D01*
X376413Y223450D01*
X376305Y223991D01*
X375999Y224449D01*
X375541Y224755D01*
X375000Y224863D01*
X374500Y224763D01*
X374437Y224770D01*
X374000Y225050D01*
Y229233D01*
X374437Y229513D01*
X374500Y229520D01*
X375000Y229420D01*
X375541Y229528D01*
X375999Y229834D01*
X376305Y230293D01*
X376413Y230833D01*
X376305Y231374D01*
X375999Y231832D01*
X375541Y232139D01*
X375000Y232246D01*
X374500Y232147D01*
X374437Y232153D01*
X374000Y232433D01*
Y236617D01*
X374437Y236897D01*
X374500Y236903D01*
X375000Y236804D01*
X375541Y236911D01*
X375999Y237217D01*
X376305Y237676D01*
X376413Y238217D01*
X376305Y238757D01*
X375999Y239216D01*
X375541Y239522D01*
X375000Y239630D01*
X374500Y239530D01*
X374437Y239537D01*
X374000Y239816D01*
Y244000D01*
X374437Y244280D01*
X374500Y244286D01*
X375000Y244187D01*
X375541Y244295D01*
X375999Y244601D01*
X376305Y245059D01*
X376413Y245600D01*
X376305Y246141D01*
X375999Y246599D01*
X375541Y246905D01*
X375000Y247013D01*
X374500Y246914D01*
X374437Y246920D01*
X374000Y247200D01*
Y251383D01*
X374437Y251663D01*
X374500Y251670D01*
X375000Y251570D01*
X375541Y251678D01*
X375999Y251984D01*
X376305Y252443D01*
X376413Y252983D01*
X376305Y253524D01*
X375999Y253982D01*
X375541Y254289D01*
X375000Y254396D01*
X374500Y254297D01*
X374437Y254303D01*
X374000Y254583D01*
Y258767D01*
X374437Y259047D01*
X374500Y259053D01*
X375000Y258954D01*
X375541Y259061D01*
X375999Y259367D01*
X376305Y259826D01*
X376413Y260367D01*
X376305Y260907D01*
X375999Y261366D01*
X375541Y261672D01*
X375000Y261780D01*
X374500Y261680D01*
X374437Y261687D01*
X374000Y261966D01*
Y266150D01*
X374437Y266430D01*
X374500Y266436D01*
X375000Y266337D01*
X375541Y266444D01*
X375999Y266751D01*
X376305Y267209D01*
X376413Y267750D01*
X376305Y268291D01*
X375999Y268749D01*
X375541Y269055D01*
X375000Y269163D01*
X374500Y269063D01*
X374437Y269070D01*
X374000Y269350D01*
Y273533D01*
X374437Y273813D01*
X374500Y273820D01*
X375000Y273720D01*
X375541Y273828D01*
X375999Y274134D01*
X376305Y274593D01*
X376413Y275133D01*
X376305Y275674D01*
X375999Y276132D01*
X375541Y276439D01*
X375000Y276546D01*
X374500Y276447D01*
X374437Y276453D01*
X374000Y276733D01*
Y280917D01*
X374437Y281197D01*
X374500Y281203D01*
X375000Y281104D01*
X375541Y281211D01*
X375999Y281518D01*
X376305Y281976D01*
X376413Y282517D01*
X376305Y283057D01*
X375999Y283516D01*
X375541Y283822D01*
X375000Y283930D01*
X374500Y283830D01*
X374437Y283837D01*
X374000Y284117D01*
Y288300D01*
X374437Y288580D01*
X374500Y288586D01*
X375000Y288487D01*
X375541Y288595D01*
X375999Y288901D01*
X376305Y289359D01*
X376413Y289900D01*
X376305Y290441D01*
X375999Y290899D01*
X375541Y291205D01*
X375000Y291313D01*
X374500Y291213D01*
X374437Y291220D01*
X374000Y291500D01*
Y295683D01*
X374437Y295963D01*
X374500Y295970D01*
X375000Y295870D01*
X375541Y295978D01*
X375999Y296284D01*
X376305Y296743D01*
X376413Y297283D01*
X376305Y297824D01*
X375999Y298282D01*
X375541Y298589D01*
X375000Y298696D01*
X374500Y298597D01*
X374437Y298603D01*
X374000Y298883D01*
Y303067D01*
X374437Y303347D01*
X374500Y303353D01*
X375000Y303254D01*
X375541Y303361D01*
X375999Y303667D01*
X376305Y304126D01*
X376413Y304667D01*
X376305Y305207D01*
X375999Y305666D01*
X375541Y305972D01*
X375000Y306080D01*
X374500Y305980D01*
X374437Y305986D01*
X374000Y306266D01*
Y310450D01*
X374437Y310730D01*
X374500Y310736D01*
X375000Y310637D01*
X375541Y310745D01*
X375999Y311051D01*
X376305Y311509D01*
X376413Y312050D01*
X376305Y312591D01*
X375999Y313049D01*
X375541Y313355D01*
X375000Y313463D01*
X374500Y313363D01*
X374437Y313370D01*
X374000Y313650D01*
Y317833D01*
X374437Y318113D01*
X374500Y318120D01*
X375000Y318020D01*
X375541Y318128D01*
X375999Y318434D01*
X376305Y318893D01*
X376413Y319433D01*
X376305Y319974D01*
X375999Y320432D01*
X375541Y320739D01*
X375000Y320846D01*
X374500Y320747D01*
X374437Y320753D01*
X374000Y321033D01*
Y325217D01*
X374437Y325497D01*
X374500Y325503D01*
X375000Y325404D01*
X375541Y325511D01*
X375999Y325817D01*
X376305Y326276D01*
X376413Y326817D01*
X376305Y327357D01*
X375999Y327816D01*
X375541Y328122D01*
X375000Y328230D01*
X374500Y328130D01*
X374437Y328136D01*
X374000Y328416D01*
Y332600D01*
X374437Y332880D01*
X374500Y332886D01*
X375000Y332787D01*
X375541Y332894D01*
X375999Y333201D01*
X376305Y333659D01*
X376413Y334200D01*
X376305Y334741D01*
X375999Y335199D01*
X375541Y335505D01*
X375000Y335613D01*
X374500Y335513D01*
X374437Y335520D01*
X374000Y335800D01*
Y339983D01*
X374437Y340263D01*
X374500Y340270D01*
X375000Y340170D01*
X375541Y340278D01*
X375999Y340584D01*
X376305Y341042D01*
X376413Y341583D01*
X376305Y342124D01*
X375999Y342582D01*
X375541Y342889D01*
X375000Y342996D01*
X374500Y342897D01*
X374437Y342903D01*
X374000Y343183D01*
Y347367D01*
X374437Y347647D01*
X374500Y347653D01*
X375000Y347554D01*
X375541Y347661D01*
X375999Y347968D01*
X376305Y348426D01*
X376413Y348967D01*
X376305Y349507D01*
X375999Y349966D01*
X375541Y350272D01*
X375000Y350380D01*
X374500Y350280D01*
X374437Y350287D01*
X374000Y350567D01*
Y354750D01*
X374437Y355030D01*
X374500Y355036D01*
X375000Y354937D01*
X375541Y355045D01*
X375999Y355351D01*
X376305Y355809D01*
X376413Y356350D01*
X376305Y356891D01*
X375999Y357349D01*
X375541Y357655D01*
X375000Y357763D01*
X374500Y357663D01*
X374437Y357670D01*
X374000Y357950D01*
Y362133D01*
X374437Y362413D01*
X374500Y362420D01*
X375000Y362320D01*
X375541Y362428D01*
X375999Y362734D01*
X376305Y363193D01*
X376413Y363733D01*
X376305Y364274D01*
X375999Y364732D01*
X375541Y365039D01*
X375000Y365146D01*
X374500Y365047D01*
X374437Y365053D01*
X374000Y365333D01*
Y369517D01*
X374437Y369797D01*
X374500Y369803D01*
X375000Y369704D01*
X375541Y369811D01*
X375999Y370117D01*
X376305Y370576D01*
X376413Y371117D01*
X376305Y371657D01*
X375999Y372116D01*
X375541Y372422D01*
X375000Y372530D01*
X374500Y372430D01*
X374437Y372436D01*
X374000Y372716D01*
Y376900D01*
X374437Y377180D01*
X374500Y377186D01*
X375000Y377087D01*
X375541Y377194D01*
X375999Y377501D01*
X376305Y377959D01*
X376413Y378500D01*
X376305Y379041D01*
X375999Y379499D01*
X375541Y379805D01*
X375000Y379913D01*
X374500Y379813D01*
X374437Y379820D01*
X374000Y380100D01*
Y382424D01*
X379659Y384826D01*
X379935Y384400D01*
X379695Y384041D01*
X379587Y383500D01*
X379695Y382959D01*
X380001Y382501D01*
X380459Y382195D01*
X381000Y382087D01*
X381541Y382195D01*
X381999Y382501D01*
X382305Y382959D01*
X382413Y383500D01*
X382305Y384041D01*
X381999Y384499D01*
X381541Y384805D01*
X381098Y384893D01*
X380987Y385253D01*
X380982Y385388D01*
X381241Y385497D01*
X382316Y386322D01*
X383140Y387397D01*
X383659Y388649D01*
X383792Y389662D01*
X384313Y389783D01*
X384501Y389501D01*
X384959Y389195D01*
X385500Y389087D01*
X386041Y389195D01*
X386499Y389501D01*
X386805Y389959D01*
X386913Y390500D01*
X386805Y391041D01*
X386499Y391499D01*
X386041Y391805D01*
X385500Y391913D01*
X384959Y391805D01*
X384501Y391499D01*
X384201Y391050D01*
X384163Y391043D01*
X383693Y391080D01*
X383659Y391335D01*
X383140Y392587D01*
X382316Y393662D01*
X381241Y394487D01*
X381210Y394500D01*
Y394500D01*
X374000Y397574D01*
Y399400D01*
X374437Y399680D01*
X374500Y399687D01*
X375000Y399587D01*
X375541Y399695D01*
X375999Y400001D01*
X376305Y400459D01*
X376413Y401000D01*
X376305Y401541D01*
X375999Y401999D01*
X375541Y402305D01*
X375000Y402413D01*
X374500Y402314D01*
X374437Y402320D01*
X374000Y402600D01*
Y403500D01*
X440500D01*
Y402600D01*
D02*
G37*
%LPC*%
G36*
X431437Y402413D02*
X430897Y402305D01*
X430438Y401999D01*
X430132Y401541D01*
X430024Y401000D01*
X430132Y400459D01*
X430438Y400001D01*
X430897Y399695D01*
X431437Y399587D01*
X431978Y399695D01*
X432437Y400001D01*
X432743Y400459D01*
X432851Y401000D01*
X432743Y401541D01*
X432437Y401999D01*
X431978Y402305D01*
X431437Y402413D01*
D02*
G37*
G36*
X423375D02*
X422834Y402305D01*
X422376Y401999D01*
X422070Y401541D01*
X421962Y401000D01*
X422070Y400459D01*
X422376Y400001D01*
X422834Y399695D01*
X423375Y399587D01*
X423916Y399695D01*
X424374Y400001D01*
X424680Y400459D01*
X424788Y401000D01*
X424680Y401541D01*
X424374Y401999D01*
X423916Y402305D01*
X423375Y402413D01*
D02*
G37*
G36*
X415312D02*
X414772Y402305D01*
X414313Y401999D01*
X414007Y401541D01*
X413900Y401000D01*
X414007Y400459D01*
X414313Y400001D01*
X414772Y399695D01*
X415312Y399587D01*
X415853Y399695D01*
X416312Y400001D01*
X416618Y400459D01*
X416725Y401000D01*
X416618Y401541D01*
X416312Y401999D01*
X415853Y402305D01*
X415312Y402413D01*
D02*
G37*
G36*
X407250D02*
X406709Y402305D01*
X406251Y401999D01*
X405945Y401541D01*
X405837Y401000D01*
X405945Y400459D01*
X406251Y400001D01*
X406709Y399695D01*
X407250Y399587D01*
X407791Y399695D01*
X408249Y400001D01*
X408555Y400459D01*
X408663Y401000D01*
X408555Y401541D01*
X408249Y401999D01*
X407791Y402305D01*
X407250Y402413D01*
D02*
G37*
G36*
X399187D02*
X398647Y402305D01*
X398188Y401999D01*
X397882Y401541D01*
X397775Y401000D01*
X397882Y400459D01*
X398188Y400001D01*
X398647Y399695D01*
X399187Y399587D01*
X399728Y399695D01*
X400187Y400001D01*
X400493Y400459D01*
X400600Y401000D01*
X400493Y401541D01*
X400187Y401999D01*
X399728Y402305D01*
X399187Y402413D01*
D02*
G37*
G36*
X391125D02*
X390584Y402305D01*
X390126Y401999D01*
X389820Y401541D01*
X389712Y401000D01*
X389820Y400459D01*
X390126Y400001D01*
X390584Y399695D01*
X391125Y399587D01*
X391666Y399695D01*
X392124Y400001D01*
X392430Y400459D01*
X392538Y401000D01*
X392430Y401541D01*
X392124Y401999D01*
X391666Y402305D01*
X391125Y402413D01*
D02*
G37*
G36*
X383063D02*
X382522Y402305D01*
X382063Y401999D01*
X381757Y401541D01*
X381649Y401000D01*
X381757Y400459D01*
X382063Y400001D01*
X382522Y399695D01*
X383063Y399587D01*
X383603Y399695D01*
X384062Y400001D01*
X384368Y400459D01*
X384475Y401000D01*
X384368Y401541D01*
X384062Y401999D01*
X383603Y402305D01*
X383063Y402413D01*
D02*
G37*
G36*
X415000Y394413D02*
X414459Y394305D01*
X414001Y393999D01*
X413695Y393541D01*
X413587Y393000D01*
X413695Y392459D01*
X414001Y392001D01*
X414459Y391695D01*
X415000Y391587D01*
X415541Y391695D01*
X415999Y392001D01*
X416305Y392459D01*
X416413Y393000D01*
X416305Y393541D01*
X415999Y393999D01*
X415541Y394305D01*
X415000Y394413D01*
D02*
G37*
G36*
X424000Y393913D02*
X423459Y393805D01*
X423001Y393499D01*
X422695Y393041D01*
X422587Y392500D01*
X422695Y391959D01*
X423001Y391501D01*
X423459Y391195D01*
X424000Y391087D01*
X424541Y391195D01*
X424999Y391501D01*
X425305Y391959D01*
X425413Y392500D01*
X425305Y393041D01*
X424999Y393499D01*
X424541Y393805D01*
X424000Y393913D01*
D02*
G37*
G36*
X420015Y393404D02*
X419474Y393296D01*
X419016Y392990D01*
X418710Y392532D01*
X418602Y391991D01*
X418710Y391450D01*
X419016Y390992D01*
X419474Y390686D01*
X420015Y390578D01*
X420556Y390686D01*
X421014Y390992D01*
X421320Y391450D01*
X421428Y391991D01*
X421320Y392532D01*
X421014Y392990D01*
X420556Y393296D01*
X420015Y393404D01*
D02*
G37*
G36*
X408055Y394267D02*
X406949Y394122D01*
X405918Y393694D01*
X405032Y393015D01*
X404353Y392130D01*
X403926Y391099D01*
X403780Y389992D01*
X403926Y388886D01*
X404353Y387855D01*
X405032Y386969D01*
X405918Y386290D01*
X406949Y385863D01*
X408055Y385717D01*
X409162Y385863D01*
X410193Y386290D01*
X411078Y386969D01*
X411758Y387855D01*
X412185Y388886D01*
X412330Y389992D01*
X412185Y391099D01*
X411758Y392130D01*
X411078Y393015D01*
X410193Y393694D01*
X409162Y394122D01*
X408055Y394267D01*
D02*
G37*
G36*
X430500Y386913D02*
X429959Y386805D01*
X429501Y386499D01*
X429195Y386041D01*
X429087Y385500D01*
X429195Y384959D01*
X429501Y384501D01*
X429959Y384195D01*
X430500Y384087D01*
X431041Y384195D01*
X431499Y384501D01*
X431805Y384959D01*
X431913Y385500D01*
X431805Y386041D01*
X431499Y386499D01*
X431041Y386805D01*
X430500Y386913D01*
D02*
G37*
G36*
X424000Y384913D02*
X423459Y384805D01*
X423001Y384499D01*
X422695Y384041D01*
X422587Y383500D01*
X422695Y382959D01*
X423001Y382501D01*
X423459Y382195D01*
X424000Y382087D01*
X424541Y382195D01*
X424999Y382501D01*
X425305Y382959D01*
X425413Y383500D01*
X425305Y384041D01*
X424999Y384499D01*
X424541Y384805D01*
X424000Y384913D01*
D02*
G37*
G36*
X419500D02*
X418959Y384805D01*
X418501Y384499D01*
X418195Y384041D01*
X418087Y383500D01*
X418195Y382959D01*
X418501Y382501D01*
X418959Y382195D01*
X419500Y382087D01*
X420041Y382195D01*
X420499Y382501D01*
X420805Y382959D01*
X420913Y383500D01*
X420805Y384041D01*
X420499Y384499D01*
X420041Y384805D01*
X419500Y384913D01*
D02*
G37*
G36*
X410500D02*
X409959Y384805D01*
X409501Y384499D01*
X409195Y384041D01*
X409087Y383500D01*
X409195Y382959D01*
X409501Y382501D01*
X409959Y382195D01*
X410500Y382087D01*
X411041Y382195D01*
X411499Y382501D01*
X411805Y382959D01*
X411913Y383500D01*
X411805Y384041D01*
X411499Y384499D01*
X411041Y384805D01*
X410500Y384913D01*
D02*
G37*
G36*
X400500D02*
X399959Y384805D01*
X399501Y384499D01*
X399195Y384041D01*
X399087Y383500D01*
X399195Y382959D01*
X399501Y382501D01*
X399959Y382195D01*
X400500Y382087D01*
X401041Y382195D01*
X401499Y382501D01*
X401805Y382959D01*
X401913Y383500D01*
X401805Y384041D01*
X401499Y384499D01*
X401041Y384805D01*
X400500Y384913D01*
D02*
G37*
G36*
X424000Y380913D02*
X423459Y380805D01*
X423001Y380499D01*
X422695Y380041D01*
X422587Y379500D01*
X422695Y378959D01*
X423001Y378501D01*
X423459Y378195D01*
X424000Y378087D01*
X424541Y378195D01*
X424999Y378501D01*
X425305Y378959D01*
X425413Y379500D01*
X425305Y380041D01*
X424999Y380499D01*
X424541Y380805D01*
X424000Y380913D01*
D02*
G37*
G36*
X404500D02*
X403959Y380805D01*
X403501Y380499D01*
X403195Y380041D01*
X403087Y379500D01*
X403195Y378959D01*
X403501Y378501D01*
X403959Y378195D01*
X404500Y378087D01*
X405041Y378195D01*
X405499Y378501D01*
X405805Y378959D01*
X405913Y379500D01*
X405805Y380041D01*
X405499Y380499D01*
X405041Y380805D01*
X404500Y380913D01*
D02*
G37*
G36*
X392500Y380013D02*
X391959Y379905D01*
X391501Y379599D01*
X391195Y379141D01*
X391087Y378600D01*
X391195Y378059D01*
X391501Y377601D01*
X391959Y377295D01*
X392500Y377187D01*
X393041Y377295D01*
X393499Y377601D01*
X393805Y378059D01*
X393913Y378600D01*
X393805Y379141D01*
X393499Y379599D01*
X393041Y379905D01*
X392500Y380013D01*
D02*
G37*
G36*
X414000Y377413D02*
X413459Y377305D01*
X413001Y376999D01*
X412695Y376541D01*
X412587Y376000D01*
X412695Y375459D01*
X413001Y375001D01*
X413459Y374695D01*
X414000Y374587D01*
X414541Y374695D01*
X414999Y375001D01*
X415305Y375459D01*
X415413Y376000D01*
X415305Y376541D01*
X414999Y376999D01*
X414541Y377305D01*
X414000Y377413D01*
D02*
G37*
G36*
X430440Y377383D02*
X429899Y377276D01*
X429441Y376970D01*
X429135Y376511D01*
X429027Y375970D01*
X429135Y375430D01*
X429441Y374971D01*
X429899Y374665D01*
X430440Y374557D01*
X430981Y374665D01*
X431439Y374971D01*
X431745Y375430D01*
X431853Y375970D01*
X431745Y376511D01*
X431439Y376970D01*
X430981Y377276D01*
X430440Y377383D01*
D02*
G37*
G36*
X392500Y375413D02*
X391959Y375305D01*
X391501Y374999D01*
X391195Y374541D01*
X391087Y374000D01*
X391195Y373459D01*
X391501Y373001D01*
X391959Y372695D01*
X392500Y372587D01*
X393041Y372695D01*
X393499Y373001D01*
X393805Y373459D01*
X393913Y374000D01*
X393805Y374541D01*
X393499Y374999D01*
X393041Y375305D01*
X392500Y375413D01*
D02*
G37*
G36*
X427286Y374413D02*
X426745Y374305D01*
X426287Y373999D01*
X425980Y373541D01*
X425873Y373000D01*
X425980Y372459D01*
X426287Y372001D01*
X426745Y371695D01*
X427286Y371587D01*
X427827Y371695D01*
X428285Y372001D01*
X428591Y372459D01*
X428699Y373000D01*
X428591Y373541D01*
X428285Y373999D01*
X427827Y374305D01*
X427286Y374413D01*
D02*
G37*
G36*
X383500Y372413D02*
X382959Y372305D01*
X382501Y371999D01*
X382195Y371541D01*
X382087Y371000D01*
X382195Y370459D01*
X382501Y370001D01*
X382959Y369695D01*
X383500Y369587D01*
X384041Y369695D01*
X384499Y370001D01*
X384805Y370459D01*
X384913Y371000D01*
X384805Y371541D01*
X384499Y371999D01*
X384041Y372305D01*
X383500Y372413D01*
D02*
G37*
G36*
X417000Y370913D02*
X416459Y370805D01*
X416001Y370499D01*
X415695Y370041D01*
X415587Y369500D01*
X415695Y368959D01*
X416001Y368501D01*
X416459Y368195D01*
X417000Y368087D01*
X417541Y368195D01*
X417999Y368501D01*
X418305Y368959D01*
X418413Y369500D01*
X418305Y370041D01*
X417999Y370499D01*
X417541Y370805D01*
X417000Y370913D01*
D02*
G37*
G36*
X399195Y368872D02*
X398654Y368765D01*
X398196Y368458D01*
X397889Y368000D01*
X397782Y367459D01*
X397889Y366919D01*
X398196Y366460D01*
X398654Y366154D01*
X399195Y366046D01*
X399735Y366154D01*
X400194Y366460D01*
X400500Y366919D01*
X400608Y367459D01*
X400500Y368000D01*
X400194Y368458D01*
X399735Y368765D01*
X399195Y368872D01*
D02*
G37*
G36*
X409500Y365413D02*
X408959Y365305D01*
X408501Y364999D01*
X408195Y364541D01*
X408087Y364000D01*
X408195Y363459D01*
X408501Y363001D01*
X408959Y362695D01*
X409500Y362587D01*
X410041Y362695D01*
X410499Y363001D01*
X410805Y363459D01*
X410913Y364000D01*
X410805Y364541D01*
X410499Y364999D01*
X410041Y365305D01*
X409500Y365413D01*
D02*
G37*
G36*
X383692Y361579D02*
X383152Y361472D01*
X382693Y361165D01*
X382387Y360707D01*
X382279Y360166D01*
X382387Y359625D01*
X382693Y359167D01*
X383152Y358861D01*
X383692Y358753D01*
X384233Y358861D01*
X384692Y359167D01*
X384998Y359625D01*
X385105Y360166D01*
X384998Y360707D01*
X384692Y361165D01*
X384233Y361472D01*
X383692Y361579D01*
D02*
G37*
G36*
X398000Y353413D02*
X397459Y353305D01*
X397001Y352999D01*
X396695Y352541D01*
X396587Y352000D01*
X396695Y351459D01*
X397001Y351001D01*
X397459Y350695D01*
X398000Y350587D01*
X398541Y350695D01*
X398999Y351001D01*
X399305Y351459D01*
X399413Y352000D01*
X399305Y352541D01*
X398999Y352999D01*
X398541Y353305D01*
X398000Y353413D01*
D02*
G37*
G36*
X408055Y356785D02*
X406730Y356654D01*
X405456Y356268D01*
X404281Y355640D01*
X403252Y354795D01*
X402407Y353766D01*
X401780Y352591D01*
X401393Y351317D01*
X401263Y349992D01*
X401393Y348667D01*
X401780Y347393D01*
X402407Y346218D01*
X403252Y345189D01*
X404281Y344344D01*
X405456Y343717D01*
X406730Y343330D01*
X408055Y343200D01*
X409380Y343330D01*
X410654Y343717D01*
X411829Y344344D01*
X412858Y345189D01*
X413703Y346218D01*
X414331Y347393D01*
X414717Y348667D01*
X414848Y349992D01*
X414717Y351317D01*
X414331Y352591D01*
X413703Y353766D01*
X412858Y354795D01*
X411829Y355640D01*
X410654Y356268D01*
X409380Y356654D01*
X408055Y356785D01*
D02*
G37*
G36*
X413000Y333413D02*
X412459Y333305D01*
X412001Y332999D01*
X411695Y332541D01*
X411587Y332000D01*
X411695Y331459D01*
X412001Y331001D01*
X412459Y330695D01*
X413000Y330587D01*
X413541Y330695D01*
X413999Y331001D01*
X414305Y331459D01*
X414413Y332000D01*
X414305Y332541D01*
X413999Y332999D01*
X413541Y333305D01*
X413000Y333413D01*
D02*
G37*
G36*
X399000Y323913D02*
X398459Y323805D01*
X398001Y323499D01*
X397695Y323041D01*
X397587Y322500D01*
X397695Y321959D01*
X398001Y321501D01*
X398459Y321195D01*
X399000Y321087D01*
X399541Y321195D01*
X399999Y321501D01*
X400305Y321959D01*
X400413Y322500D01*
X400305Y323041D01*
X399999Y323499D01*
X399541Y323805D01*
X399000Y323913D01*
D02*
G37*
G36*
X405500Y319720D02*
X404149Y319542D01*
X402890Y319021D01*
X401809Y318191D01*
X400980Y317110D01*
X400458Y315851D01*
X400280Y314500D01*
X400458Y313149D01*
X400555Y312916D01*
X400277Y312500D01*
X397712D01*
X397445Y313000D01*
X397809Y313544D01*
X397999Y314500D01*
X397809Y315456D01*
X397267Y316267D01*
X396456Y316809D01*
X395500Y316999D01*
X394544Y316809D01*
X393733Y316267D01*
X393191Y315456D01*
X393001Y314500D01*
X393191Y313544D01*
X393555Y313000D01*
X393287Y312500D01*
X390723D01*
X390445Y312916D01*
X390542Y313149D01*
X390720Y314500D01*
X390542Y315851D01*
X390020Y317110D01*
X389191Y318191D01*
X388110Y319021D01*
X386851Y319542D01*
X385500Y319720D01*
X384149Y319542D01*
X382890Y319021D01*
X381809Y318191D01*
X380979Y317110D01*
X380458Y315851D01*
X380280Y314500D01*
X380458Y313149D01*
X380979Y311890D01*
X381809Y310809D01*
X382890Y309980D01*
X384149Y309458D01*
X385500Y309280D01*
X386851Y309458D01*
X388110Y309980D01*
X389191Y310809D01*
X389527Y311246D01*
X390000Y311086D01*
X390000Y305414D01*
X389527Y305254D01*
X389191Y305691D01*
X388110Y306521D01*
X386851Y307042D01*
X385500Y307220D01*
X384149Y307042D01*
X382890Y306521D01*
X381809Y305691D01*
X380979Y304610D01*
X380458Y303351D01*
X380280Y302000D01*
X380458Y300649D01*
X380979Y299390D01*
X381809Y298309D01*
X382890Y297480D01*
X384149Y296958D01*
X385500Y296780D01*
X386344Y296891D01*
X386525Y296411D01*
X386477Y296379D01*
X386171Y295920D01*
X386063Y295380D01*
X386171Y294839D01*
X386477Y294381D01*
X386936Y294074D01*
X387476Y293967D01*
X388017Y294074D01*
X388475Y294381D01*
X388520Y294447D01*
X389037Y294321D01*
X389191Y293544D01*
X389733Y292733D01*
X390544Y292191D01*
X391500Y292001D01*
X392456Y292191D01*
X393267Y292733D01*
X393809Y293544D01*
X393999Y294500D01*
X393809Y295456D01*
X393445Y296000D01*
X393712Y296500D01*
X397288Y296500D01*
X397555Y296000D01*
X397191Y295456D01*
X397001Y294500D01*
X397191Y293544D01*
X397733Y292733D01*
X398544Y292191D01*
X399500Y292001D01*
X400456Y292191D01*
X401267Y292733D01*
X401809Y293544D01*
X401929Y294148D01*
X402477Y294339D01*
X402718Y294178D01*
X403259Y294070D01*
X403800Y294178D01*
X404258Y294484D01*
X404565Y294943D01*
X404672Y295483D01*
X404565Y296024D01*
X404290Y296435D01*
X404347Y296627D01*
X404520Y296909D01*
X405500Y296780D01*
X406851Y296958D01*
X408110Y297480D01*
X409191Y298309D01*
X410020Y299390D01*
X410542Y300649D01*
X410720Y302000D01*
X410542Y303351D01*
X410020Y304610D01*
X409191Y305691D01*
X408110Y306521D01*
X406851Y307042D01*
X405500Y307220D01*
X404149Y307042D01*
X402890Y306521D01*
X401809Y305691D01*
X401474Y305254D01*
X401000Y305414D01*
Y306859D01*
X401500Y307208D01*
X401769Y307154D01*
X402310Y307262D01*
X402768Y307568D01*
X403075Y308027D01*
X403182Y308567D01*
X403075Y309108D01*
X402840Y309459D01*
X403131Y309880D01*
X404149Y309458D01*
X405500Y309280D01*
X406851Y309458D01*
X408110Y309980D01*
X409191Y310809D01*
X410020Y311890D01*
X410542Y313149D01*
X410720Y314500D01*
X410542Y315851D01*
X410020Y317110D01*
X409191Y318191D01*
X408110Y319021D01*
X406851Y319542D01*
X405500Y319720D01*
D02*
G37*
G36*
X428059Y315151D02*
X427518Y315043D01*
X427060Y314737D01*
X426754Y314279D01*
X426646Y313738D01*
X426754Y313197D01*
X427060Y312739D01*
X427518Y312432D01*
X428059Y312325D01*
X428600Y312432D01*
X429058Y312739D01*
X429364Y313197D01*
X429472Y313738D01*
X429364Y314279D01*
X429058Y314737D01*
X428600Y315043D01*
X428059Y315151D01*
D02*
G37*
G36*
X430558Y311700D02*
X430017Y311593D01*
X429559Y311286D01*
X429252Y310828D01*
X429145Y310287D01*
X429252Y309747D01*
X429559Y309288D01*
X430017Y308982D01*
X430558Y308874D01*
X431098Y308982D01*
X431557Y309288D01*
X431863Y309747D01*
X431971Y310287D01*
X431863Y310828D01*
X431557Y311286D01*
X431098Y311593D01*
X430558Y311700D01*
D02*
G37*
G36*
X416500Y311685D02*
X415959Y311577D01*
X415501Y311271D01*
X415195Y310812D01*
X415087Y310272D01*
X415195Y309731D01*
X415501Y309273D01*
X415959Y308966D01*
X416500Y308859D01*
X417041Y308966D01*
X417499Y309273D01*
X417805Y309731D01*
X417913Y310272D01*
X417805Y310812D01*
X417499Y311271D01*
X417041Y311577D01*
X416500Y311685D01*
D02*
G37*
G36*
X422500Y295913D02*
X421959Y295805D01*
X421501Y295499D01*
X421195Y295041D01*
X421087Y294500D01*
X421195Y293959D01*
X421501Y293501D01*
X421959Y293195D01*
X422500Y293087D01*
X423041Y293195D01*
X423499Y293501D01*
X423805Y293959D01*
X423913Y294500D01*
X423805Y295041D01*
X423499Y295499D01*
X423041Y295805D01*
X422500Y295913D01*
D02*
G37*
G36*
X408500Y293413D02*
X407959Y293305D01*
X407501Y292999D01*
X407195Y292541D01*
X407087Y292000D01*
X407195Y291459D01*
X407501Y291001D01*
X407959Y290695D01*
X408500Y290587D01*
X409041Y290695D01*
X409499Y291001D01*
X409805Y291459D01*
X409913Y292000D01*
X409805Y292541D01*
X409499Y292999D01*
X409041Y293305D01*
X408500Y293413D01*
D02*
G37*
G36*
X398000Y286913D02*
X397459Y286805D01*
X397001Y286499D01*
X396695Y286041D01*
X396587Y285500D01*
X396695Y284959D01*
X397001Y284501D01*
X397459Y284195D01*
X398000Y284087D01*
X398541Y284195D01*
X398999Y284501D01*
X399305Y284959D01*
X399413Y285500D01*
X399305Y286041D01*
X398999Y286499D01*
X398541Y286805D01*
X398000Y286913D01*
D02*
G37*
G36*
X422500Y283413D02*
X421959Y283305D01*
X421501Y282999D01*
X421195Y282541D01*
X421087Y282000D01*
X421195Y281459D01*
X421501Y281001D01*
X421959Y280695D01*
X422500Y280587D01*
X423041Y280695D01*
X423499Y281001D01*
X423805Y281459D01*
X423913Y282000D01*
X423805Y282541D01*
X423499Y282999D01*
X423041Y283305D01*
X422500Y283413D01*
D02*
G37*
G36*
X408500Y282913D02*
X407959Y282805D01*
X407501Y282499D01*
X407195Y282041D01*
X407087Y281500D01*
X407195Y280959D01*
X407501Y280501D01*
X407959Y280195D01*
X408500Y280087D01*
X409041Y280195D01*
X409499Y280501D01*
X409805Y280959D01*
X409913Y281500D01*
X409805Y282041D01*
X409499Y282499D01*
X409041Y282805D01*
X408500Y282913D01*
D02*
G37*
G36*
X409500Y278913D02*
X408959Y278805D01*
X408501Y278499D01*
X408195Y278041D01*
X408087Y277500D01*
X408195Y276959D01*
X408501Y276501D01*
X408959Y276195D01*
X409500Y276087D01*
X410041Y276195D01*
X410499Y276501D01*
X410805Y276959D01*
X410913Y277500D01*
X410805Y278041D01*
X410499Y278499D01*
X410041Y278805D01*
X409500Y278913D01*
D02*
G37*
G36*
X409217Y273627D02*
X408677Y273520D01*
X408218Y273214D01*
X407912Y272755D01*
X407804Y272215D01*
X407912Y271674D01*
X408218Y271215D01*
X408677Y270909D01*
X409217Y270802D01*
X409758Y270909D01*
X410216Y271215D01*
X410523Y271674D01*
X410630Y272215D01*
X410523Y272755D01*
X410216Y273214D01*
X409758Y273520D01*
X409217Y273627D01*
D02*
G37*
G36*
X391500Y272413D02*
X390959Y272305D01*
X390501Y271999D01*
X390195Y271541D01*
X390087Y271000D01*
X390195Y270459D01*
X390501Y270001D01*
X390959Y269695D01*
X391500Y269587D01*
X392041Y269695D01*
X392499Y270001D01*
X392805Y270459D01*
X392913Y271000D01*
X392805Y271541D01*
X392499Y271999D01*
X392041Y272305D01*
X391500Y272413D01*
D02*
G37*
G36*
X400000Y270413D02*
X399459Y270305D01*
X399001Y269999D01*
X398695Y269541D01*
X398587Y269000D01*
X398695Y268459D01*
X399001Y268001D01*
X399459Y267695D01*
X400000Y267587D01*
X400541Y267695D01*
X400999Y268001D01*
X401305Y268459D01*
X401413Y269000D01*
X401305Y269541D01*
X400999Y269999D01*
X400541Y270305D01*
X400000Y270413D01*
D02*
G37*
G36*
X417450Y270038D02*
X416910Y269931D01*
X416451Y269625D01*
X416145Y269166D01*
X416037Y268625D01*
X416145Y268085D01*
X416451Y267626D01*
X416910Y267320D01*
X417450Y267213D01*
X417991Y267320D01*
X418449Y267626D01*
X418756Y268085D01*
X418863Y268625D01*
X418756Y269166D01*
X418449Y269625D01*
X417991Y269931D01*
X417450Y270038D01*
D02*
G37*
G36*
X407621Y266698D02*
X407080Y266591D01*
X406622Y266284D01*
X406316Y265826D01*
X406208Y265285D01*
X406316Y264745D01*
X406622Y264286D01*
X407080Y263980D01*
X407621Y263872D01*
X408162Y263980D01*
X408620Y264286D01*
X408926Y264745D01*
X409034Y265285D01*
X408926Y265826D01*
X408620Y266284D01*
X408162Y266591D01*
X407621Y266698D01*
D02*
G37*
G36*
X424287Y260631D02*
X423663Y260507D01*
X423134Y260154D01*
X422780Y259624D01*
X422656Y259000D01*
X422780Y258376D01*
X423134Y257846D01*
X423663Y257493D01*
X424287Y257369D01*
X424912Y257493D01*
X425441Y257846D01*
X425795Y258376D01*
X425919Y259000D01*
X425795Y259624D01*
X425441Y260154D01*
X424912Y260507D01*
X424287Y260631D01*
D02*
G37*
G36*
X420287D02*
X419663Y260507D01*
X419134Y260154D01*
X418780Y259624D01*
X418656Y259000D01*
X418780Y258376D01*
X419134Y257846D01*
X419663Y257493D01*
X420287Y257369D01*
X420912Y257493D01*
X421441Y257846D01*
X421795Y258376D01*
X421919Y259000D01*
X421795Y259624D01*
X421441Y260154D01*
X420912Y260507D01*
X420287Y260631D01*
D02*
G37*
G36*
X416287D02*
X415663Y260507D01*
X415134Y260154D01*
X414780Y259624D01*
X414656Y259000D01*
X414780Y258376D01*
X415134Y257846D01*
X415663Y257493D01*
X416287Y257369D01*
X416912Y257493D01*
X417441Y257846D01*
X417795Y258376D01*
X417919Y259000D01*
X417795Y259624D01*
X417441Y260154D01*
X416912Y260507D01*
X416287Y260631D01*
D02*
G37*
G36*
X412287D02*
X411663Y260507D01*
X411134Y260154D01*
X410780Y259624D01*
X410656Y259000D01*
X410780Y258376D01*
X411134Y257846D01*
X411663Y257493D01*
X412287Y257369D01*
X412912Y257493D01*
X413441Y257846D01*
X413795Y258376D01*
X413919Y259000D01*
X413795Y259624D01*
X413441Y260154D01*
X412912Y260507D01*
X412287Y260631D01*
D02*
G37*
G36*
X395500Y256913D02*
X394959Y256805D01*
X394501Y256499D01*
X394195Y256041D01*
X394087Y255500D01*
X394195Y254959D01*
X394501Y254501D01*
X394959Y254195D01*
X395500Y254087D01*
X396041Y254195D01*
X396499Y254501D01*
X396805Y254959D01*
X396913Y255500D01*
X396805Y256041D01*
X396499Y256499D01*
X396041Y256805D01*
X395500Y256913D01*
D02*
G37*
G36*
X424287Y256631D02*
X423663Y256507D01*
X423134Y256153D01*
X422780Y255624D01*
X422656Y255000D01*
X422780Y254376D01*
X423134Y253847D01*
X423663Y253493D01*
X424287Y253369D01*
X424912Y253493D01*
X425441Y253847D01*
X425795Y254376D01*
X425919Y255000D01*
X425795Y255624D01*
X425441Y256153D01*
X424912Y256507D01*
X424287Y256631D01*
D02*
G37*
G36*
X420287D02*
X419663Y256507D01*
X419134Y256153D01*
X418780Y255624D01*
X418656Y255000D01*
X418780Y254376D01*
X419134Y253847D01*
X419663Y253493D01*
X420287Y253369D01*
X420912Y253493D01*
X421441Y253847D01*
X421795Y254376D01*
X421919Y255000D01*
X421795Y255624D01*
X421441Y256153D01*
X420912Y256507D01*
X420287Y256631D01*
D02*
G37*
G36*
X416287D02*
X415663Y256507D01*
X415134Y256153D01*
X414780Y255624D01*
X414656Y255000D01*
X414780Y254376D01*
X415134Y253847D01*
X415663Y253493D01*
X416287Y253369D01*
X416912Y253493D01*
X417441Y253847D01*
X417795Y254376D01*
X417919Y255000D01*
X417795Y255624D01*
X417441Y256153D01*
X416912Y256507D01*
X416287Y256631D01*
D02*
G37*
G36*
X412287D02*
X411663Y256507D01*
X411134Y256153D01*
X410780Y255624D01*
X410656Y255000D01*
X410780Y254376D01*
X411134Y253847D01*
X411663Y253493D01*
X412287Y253369D01*
X412912Y253493D01*
X413441Y253847D01*
X413795Y254376D01*
X413919Y255000D01*
X413795Y255624D01*
X413441Y256153D01*
X412912Y256507D01*
X412287Y256631D01*
D02*
G37*
G36*
X424287Y252631D02*
X423663Y252507D01*
X423134Y252153D01*
X422780Y251624D01*
X422656Y251000D01*
X422780Y250376D01*
X423134Y249847D01*
X423663Y249493D01*
X424287Y249369D01*
X424912Y249493D01*
X425441Y249847D01*
X425795Y250376D01*
X425919Y251000D01*
X425795Y251624D01*
X425441Y252153D01*
X424912Y252507D01*
X424287Y252631D01*
D02*
G37*
G36*
X420287D02*
X419663Y252507D01*
X419134Y252153D01*
X418780Y251624D01*
X418656Y251000D01*
X418780Y250376D01*
X419134Y249847D01*
X419663Y249493D01*
X420287Y249369D01*
X420912Y249493D01*
X421441Y249847D01*
X421795Y250376D01*
X421919Y251000D01*
X421795Y251624D01*
X421441Y252153D01*
X420912Y252507D01*
X420287Y252631D01*
D02*
G37*
G36*
X416287D02*
X415663Y252507D01*
X415134Y252153D01*
X414780Y251624D01*
X414656Y251000D01*
X414780Y250376D01*
X415134Y249847D01*
X415663Y249493D01*
X416287Y249369D01*
X416912Y249493D01*
X417441Y249847D01*
X417795Y250376D01*
X417919Y251000D01*
X417795Y251624D01*
X417441Y252153D01*
X416912Y252507D01*
X416287Y252631D01*
D02*
G37*
G36*
X412287D02*
X411663Y252507D01*
X411134Y252153D01*
X410780Y251624D01*
X410656Y251000D01*
X410780Y250376D01*
X411134Y249847D01*
X411663Y249493D01*
X412287Y249369D01*
X412912Y249493D01*
X413441Y249847D01*
X413795Y250376D01*
X413919Y251000D01*
X413795Y251624D01*
X413441Y252153D01*
X412912Y252507D01*
X412287Y252631D01*
D02*
G37*
G36*
X382500Y251913D02*
X381959Y251805D01*
X381501Y251499D01*
X381195Y251041D01*
X381087Y250500D01*
X381195Y249959D01*
X381501Y249501D01*
X381959Y249195D01*
X382500Y249087D01*
X383041Y249195D01*
X383499Y249501D01*
X383805Y249959D01*
X383913Y250500D01*
X383805Y251041D01*
X383499Y251499D01*
X383041Y251805D01*
X382500Y251913D01*
D02*
G37*
G36*
X424287Y248631D02*
X423663Y248507D01*
X423134Y248153D01*
X422780Y247624D01*
X422656Y247000D01*
X422780Y246376D01*
X423134Y245847D01*
X423663Y245493D01*
X424287Y245369D01*
X424912Y245493D01*
X425441Y245847D01*
X425795Y246376D01*
X425919Y247000D01*
X425795Y247624D01*
X425441Y248153D01*
X424912Y248507D01*
X424287Y248631D01*
D02*
G37*
G36*
X420287D02*
X419663Y248507D01*
X419134Y248153D01*
X418780Y247624D01*
X418656Y247000D01*
X418780Y246376D01*
X419134Y245847D01*
X419663Y245493D01*
X420287Y245369D01*
X420912Y245493D01*
X421441Y245847D01*
X421795Y246376D01*
X421919Y247000D01*
X421795Y247624D01*
X421441Y248153D01*
X420912Y248507D01*
X420287Y248631D01*
D02*
G37*
G36*
X416287D02*
X415663Y248507D01*
X415134Y248153D01*
X414780Y247624D01*
X414656Y247000D01*
X414780Y246376D01*
X415134Y245847D01*
X415663Y245493D01*
X416287Y245369D01*
X416912Y245493D01*
X417441Y245847D01*
X417795Y246376D01*
X417919Y247000D01*
X417795Y247624D01*
X417441Y248153D01*
X416912Y248507D01*
X416287Y248631D01*
D02*
G37*
G36*
X412287D02*
X411663Y248507D01*
X411134Y248153D01*
X410780Y247624D01*
X410656Y247000D01*
X410780Y246376D01*
X411134Y245847D01*
X411663Y245493D01*
X412287Y245369D01*
X412912Y245493D01*
X413441Y245847D01*
X413795Y246376D01*
X413919Y247000D01*
X413795Y247624D01*
X413441Y248153D01*
X412912Y248507D01*
X412287Y248631D01*
D02*
G37*
G36*
X400500Y241913D02*
X399959Y241805D01*
X399501Y241499D01*
X399195Y241041D01*
X399087Y240500D01*
X399195Y239959D01*
X399501Y239501D01*
X399959Y239195D01*
X400500Y239087D01*
X401041Y239195D01*
X401499Y239501D01*
X401805Y239959D01*
X401913Y240500D01*
X401805Y241041D01*
X401499Y241499D01*
X401041Y241805D01*
X400500Y241913D01*
D02*
G37*
G36*
X411276Y238637D02*
X410735Y238530D01*
X410277Y238224D01*
X410188Y238092D01*
X409587D01*
X409499Y238224D01*
X409041Y238530D01*
X408500Y238637D01*
X407959Y238530D01*
X407501Y238224D01*
X407195Y237765D01*
X407087Y237224D01*
X407195Y236684D01*
X407501Y236225D01*
X407959Y235919D01*
X408500Y235811D01*
X409041Y235919D01*
X409499Y236225D01*
X409587Y236357D01*
X410188D01*
X410277Y236225D01*
X410735Y235919D01*
X411276Y235811D01*
X411816Y235919D01*
X412275Y236225D01*
X412581Y236684D01*
X412689Y237224D01*
X412581Y237765D01*
X412275Y238224D01*
X411816Y238530D01*
X411276Y238637D01*
D02*
G37*
G36*
X415500Y235913D02*
X414959Y235805D01*
X414501Y235499D01*
X414195Y235041D01*
X414087Y234500D01*
X414195Y233959D01*
X414501Y233501D01*
X414959Y233195D01*
X415500Y233087D01*
X416041Y233195D01*
X416499Y233501D01*
X416805Y233959D01*
X416913Y234500D01*
X416805Y235041D01*
X416499Y235499D01*
X416041Y235805D01*
X415500Y235913D01*
D02*
G37*
G36*
X426100Y235499D02*
X425559Y235391D01*
X425101Y235085D01*
X424794Y234627D01*
X424687Y234086D01*
X424794Y233545D01*
X425101Y233087D01*
X425559Y232781D01*
X426100Y232673D01*
X426640Y232781D01*
X427099Y233087D01*
X427405Y233545D01*
X427513Y234086D01*
X427405Y234627D01*
X427099Y235085D01*
X426640Y235391D01*
X426100Y235499D01*
D02*
G37*
G36*
X415500Y231413D02*
X414959Y231305D01*
X414501Y230999D01*
X414195Y230541D01*
X414087Y230000D01*
X414195Y229459D01*
X414501Y229001D01*
X414959Y228695D01*
X415500Y228587D01*
X416041Y228695D01*
X416499Y229001D01*
X416805Y229459D01*
X416913Y230000D01*
X416805Y230541D01*
X416499Y230999D01*
X416041Y231305D01*
X415500Y231413D01*
D02*
G37*
G36*
Y226913D02*
X414959Y226805D01*
X414501Y226499D01*
X414195Y226041D01*
X414087Y225500D01*
X414195Y224959D01*
X414501Y224501D01*
X414959Y224195D01*
X415500Y224087D01*
X416041Y224195D01*
X416499Y224501D01*
X416805Y224959D01*
X416913Y225500D01*
X416805Y226041D01*
X416499Y226499D01*
X416041Y226805D01*
X415500Y226913D01*
D02*
G37*
G36*
Y222413D02*
X414959Y222305D01*
X414501Y221999D01*
X414195Y221541D01*
X414087Y221000D01*
X414195Y220459D01*
X414501Y220001D01*
X414959Y219695D01*
X415500Y219587D01*
X416041Y219695D01*
X416499Y220001D01*
X416805Y220459D01*
X416913Y221000D01*
X416805Y221541D01*
X416499Y221999D01*
X416041Y222305D01*
X415500Y222413D01*
D02*
G37*
G36*
X419500Y217913D02*
X418959Y217805D01*
X418501Y217499D01*
X418195Y217041D01*
X418087Y216500D01*
X418195Y215959D01*
X418501Y215501D01*
X418959Y215195D01*
X419500Y215087D01*
X420041Y215195D01*
X420499Y215501D01*
X420805Y215959D01*
X420913Y216500D01*
X420805Y217041D01*
X420499Y217499D01*
X420041Y217805D01*
X419500Y217913D01*
D02*
G37*
G36*
X408055Y220800D02*
X406730Y220670D01*
X405456Y220283D01*
X404281Y219656D01*
X403252Y218811D01*
X402407Y217782D01*
X401780Y216607D01*
X401393Y215333D01*
X401263Y214008D01*
X401393Y212683D01*
X401780Y211408D01*
X402407Y210234D01*
X403252Y209205D01*
X404281Y208360D01*
X405456Y207732D01*
X406730Y207346D01*
X408055Y207215D01*
X409380Y207346D01*
X410654Y207732D01*
X411829Y208360D01*
X412858Y209205D01*
X413703Y210234D01*
X414038Y210862D01*
X414633Y210913D01*
X414959Y210695D01*
X415500Y210587D01*
X416041Y210695D01*
X416499Y211001D01*
X416805Y211459D01*
X416913Y212000D01*
X416805Y212541D01*
X416499Y212999D01*
X416041Y213305D01*
X415500Y213413D01*
X415287Y213371D01*
X414824Y213771D01*
X414848Y214008D01*
X414774Y214761D01*
X414776Y214765D01*
X415239Y215139D01*
X415500Y215087D01*
X416041Y215195D01*
X416499Y215501D01*
X416805Y215959D01*
X416913Y216500D01*
X416805Y217041D01*
X416499Y217499D01*
X416041Y217805D01*
X415500Y217913D01*
X414959Y217805D01*
X414501Y217499D01*
X414456Y217433D01*
X413874Y217461D01*
X413703Y217782D01*
X412858Y218811D01*
X411829Y219656D01*
X410654Y220283D01*
X409380Y220670D01*
X408055Y220800D01*
D02*
G37*
G36*
X419500Y213413D02*
X418959Y213305D01*
X418501Y212999D01*
X418195Y212541D01*
X418087Y212000D01*
X418195Y211459D01*
X418501Y211001D01*
X418959Y210695D01*
X419500Y210587D01*
X420041Y210695D01*
X420499Y211001D01*
X420805Y211459D01*
X420913Y212000D01*
X420805Y212541D01*
X420499Y212999D01*
X420041Y213305D01*
X419500Y213413D01*
D02*
G37*
G36*
Y209413D02*
X418959Y209305D01*
X418501Y208999D01*
X418195Y208541D01*
X418087Y208000D01*
X418195Y207459D01*
X418501Y207001D01*
X418959Y206695D01*
X419500Y206587D01*
X420041Y206695D01*
X420499Y207001D01*
X420805Y207459D01*
X420913Y208000D01*
X420805Y208541D01*
X420499Y208999D01*
X420041Y209305D01*
X419500Y209413D01*
D02*
G37*
G36*
X415500D02*
X414959Y209305D01*
X414501Y208999D01*
X414195Y208541D01*
X414087Y208000D01*
X414195Y207459D01*
X414501Y207001D01*
X414959Y206695D01*
X415500Y206587D01*
X416041Y206695D01*
X416499Y207001D01*
X416805Y207459D01*
X416913Y208000D01*
X416805Y208541D01*
X416499Y208999D01*
X416041Y209305D01*
X415500Y209413D01*
D02*
G37*
G36*
X425405Y206565D02*
X424864Y206457D01*
X424406Y206151D01*
X424099Y205693D01*
X423992Y205152D01*
X424099Y204611D01*
X424406Y204153D01*
X424864Y203847D01*
X425405Y203739D01*
X425946Y203847D01*
X426404Y204153D01*
X426710Y204611D01*
X426818Y205152D01*
X426710Y205693D01*
X426404Y206151D01*
X425946Y206457D01*
X425405Y206565D01*
D02*
G37*
G36*
X409500Y205913D02*
X408959Y205805D01*
X408501Y205499D01*
X408195Y205041D01*
X408087Y204500D01*
X408195Y203959D01*
X408501Y203501D01*
X408959Y203195D01*
X409500Y203087D01*
X410041Y203195D01*
X410499Y203501D01*
X410805Y203959D01*
X410913Y204500D01*
X410805Y205041D01*
X410499Y205499D01*
X410041Y205805D01*
X409500Y205913D01*
D02*
G37*
G36*
X425500Y201413D02*
X424959Y201305D01*
X424501Y200999D01*
X424195Y200541D01*
X424087Y200000D01*
X424195Y199459D01*
X424501Y199001D01*
X424959Y198695D01*
X425500Y198587D01*
X426041Y198695D01*
X426499Y199001D01*
X426805Y199459D01*
X426913Y200000D01*
X426805Y200541D01*
X426499Y200999D01*
X426041Y201305D01*
X425500Y201413D01*
D02*
G37*
G36*
X409500D02*
X408959Y201305D01*
X408501Y200999D01*
X408195Y200541D01*
X408087Y200000D01*
X408195Y199459D01*
X408501Y199001D01*
X408959Y198695D01*
X409500Y198587D01*
X410041Y198695D01*
X410499Y199001D01*
X410805Y199459D01*
X410913Y200000D01*
X410805Y200541D01*
X410499Y200999D01*
X410041Y201305D01*
X409500Y201413D01*
D02*
G37*
G36*
X425500Y196913D02*
X424959Y196805D01*
X424501Y196499D01*
X424195Y196041D01*
X424087Y195500D01*
X424195Y194959D01*
X424501Y194501D01*
X424959Y194195D01*
X425500Y194087D01*
X426041Y194195D01*
X426499Y194501D01*
X426805Y194959D01*
X426913Y195500D01*
X426805Y196041D01*
X426499Y196499D01*
X426041Y196805D01*
X425500Y196913D01*
D02*
G37*
G36*
X409500D02*
X408959Y196805D01*
X408501Y196499D01*
X408195Y196041D01*
X408087Y195500D01*
X408195Y194959D01*
X408501Y194501D01*
X408959Y194195D01*
X409500Y194087D01*
X410041Y194195D01*
X410499Y194501D01*
X410805Y194959D01*
X410913Y195500D01*
X410805Y196041D01*
X410499Y196499D01*
X410041Y196805D01*
X409500Y196913D01*
D02*
G37*
G36*
X427500Y190913D02*
X426959Y190805D01*
X426501Y190499D01*
X426195Y190041D01*
X426087Y189500D01*
X426195Y188959D01*
X426501Y188501D01*
X426959Y188195D01*
X427500Y188087D01*
X428041Y188195D01*
X428499Y188501D01*
X428805Y188959D01*
X428913Y189500D01*
X428805Y190041D01*
X428499Y190499D01*
X428041Y190805D01*
X427500Y190913D01*
D02*
G37*
G36*
X414000D02*
X413459Y190805D01*
X413001Y190499D01*
X412695Y190041D01*
X412587Y189500D01*
X412695Y188959D01*
X413001Y188501D01*
X413459Y188195D01*
X414000Y188087D01*
X414541Y188195D01*
X414999Y188501D01*
X415305Y188959D01*
X415413Y189500D01*
X415305Y190041D01*
X414999Y190499D01*
X414541Y190805D01*
X414000Y190913D01*
D02*
G37*
G36*
X421000Y186413D02*
X420459Y186305D01*
X420001Y185999D01*
X419695Y185541D01*
X419587Y185000D01*
X419695Y184459D01*
X420001Y184001D01*
X420459Y183695D01*
X421000Y183587D01*
X421541Y183695D01*
X421999Y184001D01*
X422305Y184459D01*
X422413Y185000D01*
X422305Y185541D01*
X421999Y185999D01*
X421541Y186305D01*
X421000Y186413D01*
D02*
G37*
G36*
X414000D02*
X413459Y186305D01*
X413001Y185999D01*
X412695Y185541D01*
X412587Y185000D01*
X412695Y184459D01*
X413001Y184001D01*
X413459Y183695D01*
X414000Y183587D01*
X414541Y183695D01*
X414999Y184001D01*
X415305Y184459D01*
X415413Y185000D01*
X415305Y185541D01*
X414999Y185999D01*
X414541Y186305D01*
X414000Y186413D01*
D02*
G37*
G36*
X421000Y181913D02*
X420459Y181805D01*
X420001Y181499D01*
X419695Y181041D01*
X419587Y180500D01*
X419695Y179959D01*
X420001Y179501D01*
X420459Y179195D01*
X421000Y179087D01*
X421541Y179195D01*
X421999Y179501D01*
X422305Y179959D01*
X422413Y180500D01*
X422305Y181041D01*
X421999Y181499D01*
X421541Y181805D01*
X421000Y181913D01*
D02*
G37*
G36*
X414000D02*
X413459Y181805D01*
X413001Y181499D01*
X412695Y181041D01*
X412587Y180500D01*
X412695Y179959D01*
X413001Y179501D01*
X413459Y179195D01*
X414000Y179087D01*
X414541Y179195D01*
X414999Y179501D01*
X415305Y179959D01*
X415413Y180500D01*
X415305Y181041D01*
X414999Y181499D01*
X414541Y181805D01*
X414000Y181913D01*
D02*
G37*
G36*
Y177413D02*
X413459Y177305D01*
X413001Y176999D01*
X412695Y176541D01*
X412587Y176000D01*
X412695Y175459D01*
X413001Y175001D01*
X413459Y174695D01*
X414000Y174587D01*
X414541Y174695D01*
X414999Y175001D01*
X415305Y175459D01*
X415413Y176000D01*
X415305Y176541D01*
X414999Y176999D01*
X414541Y177305D01*
X414000Y177413D01*
D02*
G37*
G36*
X424500Y176413D02*
X423959Y176305D01*
X423501Y175999D01*
X423195Y175541D01*
X423087Y175000D01*
X423195Y174459D01*
X423501Y174001D01*
X423959Y173695D01*
X424500Y173587D01*
X425041Y173695D01*
X425499Y174001D01*
X425805Y174459D01*
X425913Y175000D01*
X425805Y175541D01*
X425499Y175999D01*
X425041Y176305D01*
X424500Y176413D01*
D02*
G37*
G36*
X414000Y172913D02*
X413459Y172805D01*
X413001Y172499D01*
X412695Y172041D01*
X412587Y171500D01*
X412695Y170959D01*
X413001Y170501D01*
X413459Y170195D01*
X414000Y170087D01*
X414541Y170195D01*
X414999Y170501D01*
X415305Y170959D01*
X415413Y171500D01*
X415305Y172041D01*
X414999Y172499D01*
X414541Y172805D01*
X414000Y172913D01*
D02*
G37*
G36*
X408055Y178283D02*
X406949Y178137D01*
X405918Y177710D01*
X405032Y177031D01*
X404353Y176146D01*
X403926Y175114D01*
X403780Y174008D01*
X403926Y172901D01*
X404353Y171870D01*
X405032Y170985D01*
X405918Y170306D01*
X406949Y169878D01*
X408055Y169733D01*
X409162Y169878D01*
X410193Y170306D01*
X411078Y170985D01*
X411758Y171870D01*
X412185Y172901D01*
X412330Y174008D01*
X412185Y175114D01*
X411758Y176146D01*
X411078Y177031D01*
X410193Y177710D01*
X409162Y178137D01*
X408055Y178283D01*
D02*
G37*
G36*
X421000Y172413D02*
X420459Y172305D01*
X420001Y171999D01*
X419695Y171541D01*
X419587Y171000D01*
X419695Y170459D01*
X420001Y170001D01*
X420459Y169695D01*
X421000Y169587D01*
X421541Y169695D01*
X421999Y170001D01*
X422305Y170459D01*
X422413Y171000D01*
X422305Y171541D01*
X421999Y171999D01*
X421541Y172305D01*
X421000Y172413D01*
D02*
G37*
G36*
X414000Y168413D02*
X413459Y168305D01*
X413001Y167999D01*
X412695Y167541D01*
X412587Y167000D01*
X412695Y166459D01*
X413001Y166001D01*
X413459Y165695D01*
X414000Y165587D01*
X414541Y165695D01*
X414999Y166001D01*
X415305Y166459D01*
X415413Y167000D01*
X415305Y167541D01*
X414999Y167999D01*
X414541Y168305D01*
X414000Y168413D01*
D02*
G37*
G36*
X421000Y167413D02*
X420459Y167305D01*
X420001Y166999D01*
X419695Y166541D01*
X419587Y166000D01*
X419695Y165459D01*
X420001Y165001D01*
X420459Y164695D01*
X421000Y164587D01*
X421541Y164695D01*
X421999Y165001D01*
X422305Y165459D01*
X422413Y166000D01*
X422305Y166541D01*
X421999Y166999D01*
X421541Y167305D01*
X421000Y167413D01*
D02*
G37*
G36*
X414000Y163913D02*
X413459Y163805D01*
X413001Y163499D01*
X412695Y163041D01*
X412587Y162500D01*
X412695Y161959D01*
X413001Y161501D01*
X413459Y161195D01*
X414000Y161087D01*
X414541Y161195D01*
X414999Y161501D01*
X415305Y161959D01*
X415413Y162500D01*
X415305Y163041D01*
X414999Y163499D01*
X414541Y163805D01*
X414000Y163913D01*
D02*
G37*
G36*
X424000Y163049D02*
X423459Y162942D01*
X423001Y162635D01*
X422695Y162177D01*
X422587Y161636D01*
X422695Y161095D01*
X423001Y160637D01*
X423459Y160331D01*
X424000Y160223D01*
X424541Y160331D01*
X424999Y160637D01*
X425305Y161095D01*
X425413Y161636D01*
X425305Y162177D01*
X424999Y162635D01*
X424541Y162942D01*
X424000Y163049D01*
D02*
G37*
G36*
X433333Y158413D02*
X432793Y158305D01*
X432334Y157999D01*
X432028Y157541D01*
X431920Y157000D01*
X432028Y156459D01*
X432334Y156001D01*
X432793Y155695D01*
X433333Y155587D01*
X433874Y155695D01*
X434332Y156001D01*
X434639Y156459D01*
X434746Y157000D01*
X434639Y157541D01*
X434332Y157999D01*
X433874Y158305D01*
X433333Y158413D01*
D02*
G37*
G36*
X427167D02*
X426626Y158305D01*
X426167Y157999D01*
X425861Y157541D01*
X425754Y157000D01*
X425861Y156459D01*
X426167Y156001D01*
X426626Y155695D01*
X427167Y155587D01*
X427707Y155695D01*
X428166Y156001D01*
X428472Y156459D01*
X428580Y157000D01*
X428472Y157541D01*
X428166Y157999D01*
X427707Y158305D01*
X427167Y158413D01*
D02*
G37*
G36*
X421000D02*
X420459Y158305D01*
X420001Y157999D01*
X419695Y157541D01*
X419587Y157000D01*
X419695Y156459D01*
X420001Y156001D01*
X420459Y155695D01*
X421000Y155587D01*
X421541Y155695D01*
X421999Y156001D01*
X422305Y156459D01*
X422413Y157000D01*
X422305Y157541D01*
X421999Y157999D01*
X421541Y158305D01*
X421000Y158413D01*
D02*
G37*
G36*
X414000D02*
X413459Y158305D01*
X413001Y157999D01*
X412695Y157541D01*
X412587Y157000D01*
X412695Y156459D01*
X413001Y156001D01*
X413459Y155695D01*
X414000Y155587D01*
X414541Y155695D01*
X414999Y156001D01*
X415305Y156459D01*
X415413Y157000D01*
X415305Y157541D01*
X414999Y157999D01*
X414541Y158305D01*
X414000Y158413D01*
D02*
G37*
G36*
X406200D02*
X405659Y158305D01*
X405201Y157999D01*
X404895Y157541D01*
X404787Y157000D01*
X404895Y156459D01*
X405201Y156001D01*
X405659Y155695D01*
X406200Y155587D01*
X406741Y155695D01*
X407199Y156001D01*
X407505Y156459D01*
X407613Y157000D01*
X407505Y157541D01*
X407199Y157999D01*
X406741Y158305D01*
X406200Y158413D01*
D02*
G37*
G36*
X398400D02*
X397859Y158305D01*
X397401Y157999D01*
X397095Y157541D01*
X396987Y157000D01*
X397095Y156459D01*
X397401Y156001D01*
X397859Y155695D01*
X398400Y155587D01*
X398941Y155695D01*
X399399Y156001D01*
X399705Y156459D01*
X399813Y157000D01*
X399705Y157541D01*
X399399Y157999D01*
X398941Y158305D01*
X398400Y158413D01*
D02*
G37*
G36*
X390600D02*
X390059Y158305D01*
X389601Y157999D01*
X389295Y157541D01*
X389187Y157000D01*
X389295Y156459D01*
X389601Y156001D01*
X390059Y155695D01*
X390600Y155587D01*
X391141Y155695D01*
X391599Y156001D01*
X391905Y156459D01*
X392013Y157000D01*
X391905Y157541D01*
X391599Y157999D01*
X391141Y158305D01*
X390600Y158413D01*
D02*
G37*
G36*
X382800D02*
X382259Y158305D01*
X381801Y157999D01*
X381495Y157541D01*
X381387Y157000D01*
X381495Y156459D01*
X381801Y156001D01*
X382259Y155695D01*
X382800Y155587D01*
X383341Y155695D01*
X383799Y156001D01*
X384105Y156459D01*
X384213Y157000D01*
X384105Y157541D01*
X383799Y157999D01*
X383341Y158305D01*
X382800Y158413D01*
D02*
G37*
%LPD*%
D114*
X401732Y254732D02*
D03*
X413500Y325500D02*
D03*
X421897Y298901D02*
D03*
X437972Y262956D02*
D03*
X434500Y243500D02*
D03*
X436000Y400000D02*
D03*
X399500Y277500D02*
D03*
Y272500D02*
D03*
X417531Y364232D02*
D03*
X415000Y383500D02*
D03*
X404500Y367000D02*
D03*
X398000Y328500D02*
D03*
X413044Y369576D02*
D03*
X409674Y369634D02*
D03*
D115*
X393299Y334500D02*
D03*
Y339500D02*
D03*
M02*
