M48
;Layer_Color=9474304
;FILE_FORMAT=2:4
INCH,TZ
;TYPE=PLATED
T1F00S00C0.0079
T2F00S00C0.0100
T3F00S00C0.0157
T4F00S00C0.0512
;TYPE=NON_PLATED
T5F00S00C0.0390
T6F00S00C0.0929
T7F00S00C0.0935
T8F00S00C0.1252
%
T01
X37500Y15700
Y16438
Y17177
Y17915
Y18653
Y19392
Y20130
Y20868
Y21607
Y22345
Y23083
Y23822
Y24560
Y25298
Y26037
Y26775
Y27513
Y28252
Y28990
Y29728
Y30467
Y31205
X38748Y29538
X40326Y29548
X40850Y29200
Y28150
X40950Y27750
X40922Y27221
X40762Y26529
X40000Y26900
X39950Y27250
Y27750
X39800Y28550
X39150Y27100
X39550Y25550
X40173Y25473
X40050Y24050
X40850Y23722
X41128
X41550Y23450
Y23000
Y22550
Y22100
Y21650
X41950
Y21200
Y20800
X41550
Y21200
X40950Y20450
Y20000
Y19550
X41400Y18950
Y18500
Y18050
Y17600
Y17150
Y16700
Y16250
Y15700
X42100
X42717
X43333
X43950
X43950Y16439
Y17179
Y17918
Y18658
Y19397
Y20136
Y20876
Y21615
Y22355
X43950Y23094
Y23833
Y24573
X43450Y24350
X43950Y25312
Y26051
X43797Y26296
X43950Y26791
Y27530
Y28270
Y29009
X43950Y29748
Y30488
Y31227
X43056Y31029
X41650Y31027
X40177Y30857
X42190Y29890
X42250Y29450
Y28200
X41745Y26863
X42610Y23409
X42540Y20515
X42550Y20000
Y19550
X42750Y18950
X42100Y18500
Y18050
X42450Y17500
X42100Y17100
Y16600
X42400Y16164
X40620Y15700
X39840
X39060
X38280
X38250Y25050
X37500Y31943
Y32682
Y33420
Y34158
Y34897
Y35635
Y36373
Y37112
Y37850
X38100Y38350
X38550Y39050
X38306Y40100
X39113
X39919
X40725
X41531
X42337
X43144
X43600Y40000
X43950Y40100
X43950Y39361
Y38621
Y37882
Y37142
Y36403
X43950Y35664
Y34924
Y34185
Y33445
Y32706
Y31967
X42806Y31374
X41350Y32550
X41300Y33200
X39800Y32850
X39900Y32250
X39800Y35200
X39919Y36746
X40450Y36700
X40967Y36963
X41304Y36958
X41700Y36950
X41753Y36423
X40950Y36400
X41400Y37600
X41500Y38350
X41050
X41950
X42400
Y37950
X42729Y37300
X43044Y37597
X43050Y38550
X42400Y39250
X42002Y39199
X41500Y39300
X40050Y38350
X40450Y37950
X39250Y37860
Y37400
X38350Y37100
X38369Y36017
X37500Y40100
T02
X41229Y24700
Y25100
Y25500
Y25900
X41629
X42029
X42429
Y25500
X42029
X41629
Y25100
Y24700
X42029
Y25100
X42429
Y24700
T03
X39330Y33450
Y33950
T04
X40806Y17401
Y38999
T05
X39150Y29450
X39950
X39550Y31450
T06
X37865Y38999
T07
X38550Y30200
X40550
Y31450
X38550
T08
X40806Y21401
Y34999
M30
