G04*
G04 #@! TF.GenerationSoftware,Altium Limited,Altium Designer,20.2.5 (213)*
G04*
G04 Layer_Color=16711935*
%FSLAX25Y25*%
%MOIN*%
G70*
G04*
G04 #@! TF.SameCoordinates,4658FE5A-7A30-472D-B718-34B1B9A5D075*
G04*
G04*
G04 #@! TF.FilePolarity,Negative*
G04*
G01*
G75*
%ADD64C,0.09646*%
%ADD65C,0.01000*%
%ADD67C,0.10291*%
%ADD68C,0.08677*%
%ADD69C,0.13520*%
%ADD70C,0.02772*%
%ADD71C,0.03559*%
D64*
X408055Y389992D02*
D03*
D65*
X385500Y302000D02*
D03*
Y314500D02*
D03*
X391500Y294500D02*
D03*
X399500D02*
D03*
X405500Y302000D02*
D03*
Y314500D02*
D03*
X395500D02*
D03*
D67*
X378646Y389992D02*
D03*
D68*
X408055Y174008D02*
D03*
D69*
Y349992D02*
D03*
Y214008D02*
D03*
D70*
X425500Y195500D02*
D03*
X422500Y294500D02*
D03*
X401769Y308567D02*
D03*
X382500Y250500D02*
D03*
X395500Y255500D02*
D03*
X401732Y254732D02*
D03*
X398000Y285500D02*
D03*
X391500Y271000D02*
D03*
X407621Y265285D02*
D03*
X387476Y295380D02*
D03*
X424000Y392500D02*
D03*
X415000Y393000D02*
D03*
X413500Y325500D02*
D03*
X383692Y360166D02*
D03*
X421897Y298901D02*
D03*
X430500Y385500D02*
D03*
X430440Y375970D02*
D03*
X409500Y204500D02*
D03*
Y195500D02*
D03*
X408500Y292000D02*
D03*
X403259Y295483D02*
D03*
X437972Y262956D02*
D03*
X409500Y364000D02*
D03*
X400500Y383500D02*
D03*
X410500D02*
D03*
X381000D02*
D03*
X385500Y390500D02*
D03*
X434500Y243500D02*
D03*
X424500Y175000D02*
D03*
X425405Y205152D02*
D03*
X399195Y367459D02*
D03*
X398000Y352000D02*
D03*
X392500Y374000D02*
D03*
Y378600D02*
D03*
X422500Y282000D02*
D03*
X400000Y269000D02*
D03*
X400500Y240500D02*
D03*
X408500Y281500D02*
D03*
X413000Y332000D02*
D03*
X399000Y322500D02*
D03*
X416500Y310272D02*
D03*
X424000Y379500D02*
D03*
Y383500D02*
D03*
X419500D02*
D03*
X383500Y371000D02*
D03*
X436000Y400000D02*
D03*
X399500Y277500D02*
D03*
Y272500D02*
D03*
X426100Y234086D02*
D03*
X427500Y189500D02*
D03*
X424000Y161636D02*
D03*
X409500Y277500D02*
D03*
X417450Y268625D02*
D03*
X430558Y310287D02*
D03*
X428059Y313738D02*
D03*
X427286Y373000D02*
D03*
X417000Y369500D02*
D03*
X417531Y364232D02*
D03*
X415000Y383500D02*
D03*
X420015Y391991D02*
D03*
X404500Y379500D02*
D03*
Y367000D02*
D03*
X398000Y328500D02*
D03*
X414000Y376000D02*
D03*
X413044Y369576D02*
D03*
X409674Y369634D02*
D03*
X409217Y272215D02*
D03*
X408500Y237224D02*
D03*
X411276D02*
D03*
X431437Y401000D02*
D03*
X423375D02*
D03*
X415312D02*
D03*
X407250D02*
D03*
X399187D02*
D03*
X391125D02*
D03*
X383063D02*
D03*
X375000Y401000D02*
D03*
X439500Y364030D02*
D03*
Y371424D02*
D03*
Y378818D02*
D03*
Y386212D02*
D03*
Y393606D02*
D03*
X439500Y401000D02*
D03*
X439500Y297485D02*
D03*
Y304879D02*
D03*
Y312273D02*
D03*
Y319667D02*
D03*
Y327060D02*
D03*
Y334454D02*
D03*
Y341848D02*
D03*
Y349242D02*
D03*
Y356636D02*
D03*
X439500Y230939D02*
D03*
Y238333D02*
D03*
Y245727D02*
D03*
Y253121D02*
D03*
Y260515D02*
D03*
Y267909D02*
D03*
Y275303D02*
D03*
Y282697D02*
D03*
Y290091D02*
D03*
X427167Y157000D02*
D03*
X433333D02*
D03*
X375000Y378500D02*
D03*
Y371117D02*
D03*
Y363733D02*
D03*
Y356350D02*
D03*
Y348967D02*
D03*
Y341583D02*
D03*
Y334200D02*
D03*
Y326817D02*
D03*
Y319433D02*
D03*
Y312050D02*
D03*
Y304667D02*
D03*
Y297283D02*
D03*
Y289900D02*
D03*
Y282517D02*
D03*
Y275133D02*
D03*
Y267750D02*
D03*
Y260367D02*
D03*
Y252983D02*
D03*
Y245600D02*
D03*
Y238217D02*
D03*
Y230833D02*
D03*
Y223450D02*
D03*
Y216067D02*
D03*
Y208683D02*
D03*
Y201300D02*
D03*
Y193917D02*
D03*
Y186533D02*
D03*
Y179150D02*
D03*
X439500Y223545D02*
D03*
Y216151D02*
D03*
Y208757D02*
D03*
Y201364D02*
D03*
Y193970D02*
D03*
Y186576D02*
D03*
Y179182D02*
D03*
Y171788D02*
D03*
X425500Y200000D02*
D03*
X409500D02*
D03*
X439500Y164394D02*
D03*
X439500Y157000D02*
D03*
X375000Y164383D02*
D03*
Y171767D02*
D03*
Y157000D02*
D03*
X382800D02*
D03*
X390600D02*
D03*
X398400D02*
D03*
X406200D02*
D03*
X414000D02*
D03*
X419500Y216500D02*
D03*
X421000Y157000D02*
D03*
X414000Y180500D02*
D03*
X415500Y225500D02*
D03*
Y230000D02*
D03*
X414000Y162500D02*
D03*
Y167000D02*
D03*
X421000Y185000D02*
D03*
Y180500D02*
D03*
Y171000D02*
D03*
Y166000D02*
D03*
X414000Y171500D02*
D03*
Y176000D02*
D03*
Y185000D02*
D03*
Y189500D02*
D03*
X415500Y234500D02*
D03*
X419500Y212000D02*
D03*
Y208000D02*
D03*
X415500D02*
D03*
Y212000D02*
D03*
Y216500D02*
D03*
Y221000D02*
D03*
D71*
X393299Y334500D02*
D03*
Y339500D02*
D03*
M02*
