G04*
G04 #@! TF.GenerationSoftware,Altium Limited,Altium Designer,20.2.5 (213)*
G04*
G04 Layer_Color=8421504*
%FSLAX25Y25*%
%MOIN*%
G70*
G04*
G04 #@! TF.SameCoordinates,4658FE5A-7A30-472D-B718-34B1B9A5D075*
G04*
G04*
G04 #@! TF.FilePolarity,Positive*
G04*
G01*
G75*
%ADD18R,0.05134X0.05528*%
%ADD19R,0.04347X0.03953*%
%ADD20R,0.04937X0.04543*%
%ADD21R,0.04740X0.04740*%
%ADD22R,0.03953X0.04347*%
%ADD23R,0.03756X0.04543*%
%ADD24R,0.03520X0.03362*%
%ADD25R,0.03559X0.03362*%
%ADD26R,0.03362X0.03520*%
%ADD27C,0.05921*%
%ADD28R,0.04543X0.04937*%
%ADD29C,0.04098*%
%ADD30R,0.03126X0.03165*%
%ADD31R,0.04937X0.08087*%
%ADD32R,0.03264X0.01984*%
%ADD33R,0.01984X0.03264*%
%ADD34O,0.03465X0.01890*%
%ADD35R,0.02378X0.02732*%
%ADD36R,0.02732X0.02378*%
%ADD37R,0.19110X0.19110*%
%ADD38O,0.04150X0.01787*%
%ADD39O,0.01787X0.04150*%
%ADD40R,0.03165X0.03126*%
%ADD41R,0.02870X0.02181*%
%ADD42R,0.04543X0.04150*%
%ADD43R,0.03200X0.06200*%
%ADD44R,0.02181X0.02969*%
%ADD45R,0.03362X0.03559*%
%ADD46R,0.03362X0.02969*%
%ADD47R,0.04937X0.04150*%
%ADD48R,0.06906X0.11236*%
%ADD49R,0.06118X0.06512*%
%ADD50R,0.03165X0.03756*%
%ADD51R,0.04150X0.11433*%
%ADD52R,0.03165X0.03165*%
D18*
X382146Y244406D02*
D03*
Y257594D02*
D03*
X387854D02*
D03*
Y244406D02*
D03*
D19*
X395500Y244138D02*
D03*
Y248862D02*
D03*
X432657Y226933D02*
D03*
X427343D02*
D03*
Y231067D02*
D03*
X432657D02*
D03*
D20*
X401000Y244342D02*
D03*
Y249658D02*
D03*
D21*
X405047Y339000D02*
D03*
X410953D02*
D03*
D22*
X409862Y325500D02*
D03*
X405138D02*
D03*
X425362D02*
D03*
X420638D02*
D03*
X412138Y396500D02*
D03*
X416862D02*
D03*
X422138D02*
D03*
X426862D02*
D03*
D23*
X420441Y331260D02*
D03*
X425559D02*
D03*
X423000Y338740D02*
D03*
D24*
X381000Y366732D02*
D03*
Y363268D02*
D03*
X435205Y262449D02*
D03*
Y265913D02*
D03*
X436000Y277232D02*
D03*
Y273768D02*
D03*
X427500Y285768D02*
D03*
Y289232D02*
D03*
X417500Y286268D02*
D03*
Y289732D02*
D03*
D25*
X415135Y298989D02*
D03*
X418679D02*
D03*
X402728Y277500D02*
D03*
X406272D02*
D03*
X402728Y272500D02*
D03*
X406272D02*
D03*
X389756Y352000D02*
D03*
X393299D02*
D03*
D26*
X425000Y299000D02*
D03*
X428465D02*
D03*
X432768Y235500D02*
D03*
X436232D02*
D03*
X434732Y212000D02*
D03*
X431268D02*
D03*
X434732Y217000D02*
D03*
X431268D02*
D03*
X431000Y222000D02*
D03*
X427535D02*
D03*
X389232Y397000D02*
D03*
X385768D02*
D03*
X432768Y240500D02*
D03*
X436232D02*
D03*
X401732Y261768D02*
D03*
X398268D02*
D03*
X436232Y396500D02*
D03*
X432768D02*
D03*
D27*
X434000Y356500D02*
D03*
Y347500D02*
D03*
D28*
X400658Y396500D02*
D03*
X395342D02*
D03*
X393657Y369500D02*
D03*
X388342D02*
D03*
X417842Y189500D02*
D03*
X423158D02*
D03*
D29*
X398000Y299500D02*
D03*
Y304500D02*
D03*
X393000Y309500D02*
D03*
Y304500D02*
D03*
Y299500D02*
D03*
X398000Y309500D02*
D03*
D30*
X414947Y387142D02*
D03*
Y390213D02*
D03*
X417500Y153465D02*
D03*
Y156535D02*
D03*
Y169808D02*
D03*
Y166737D02*
D03*
X435232Y254752D02*
D03*
Y257823D02*
D03*
D31*
X427421Y276000D02*
D03*
X417579D02*
D03*
D32*
X417606Y376174D02*
D03*
Y378142D02*
D03*
X410425D02*
D03*
Y376174D02*
D03*
Y374205D02*
D03*
X417606D02*
D03*
D33*
X415000Y379768D02*
D03*
X413031D02*
D03*
Y372579D02*
D03*
X415000D02*
D03*
D34*
X423425Y387903D02*
D03*
X426575D02*
D03*
Y389478D02*
D03*
X423425D02*
D03*
D35*
X388000Y274316D02*
D03*
Y276875D02*
D03*
D36*
X394779Y328500D02*
D03*
X392220D02*
D03*
D37*
X418287Y253000D02*
D03*
D38*
X430098Y261661D02*
D03*
Y260087D02*
D03*
Y258512D02*
D03*
Y256937D02*
D03*
Y255362D02*
D03*
Y253787D02*
D03*
Y252213D02*
D03*
Y250638D02*
D03*
Y249063D02*
D03*
Y247488D02*
D03*
Y245913D02*
D03*
Y244339D02*
D03*
X406476D02*
D03*
Y245913D02*
D03*
Y247488D02*
D03*
Y249063D02*
D03*
Y250638D02*
D03*
Y252213D02*
D03*
Y253787D02*
D03*
Y255362D02*
D03*
Y256937D02*
D03*
Y258512D02*
D03*
Y260087D02*
D03*
Y261661D02*
D03*
D39*
X426949Y241189D02*
D03*
X425374D02*
D03*
X423799D02*
D03*
X422224D02*
D03*
X420650D02*
D03*
X419075D02*
D03*
X417500D02*
D03*
X415925D02*
D03*
X414350D02*
D03*
X412776D02*
D03*
X411201D02*
D03*
X409626D02*
D03*
Y264811D02*
D03*
X411201D02*
D03*
X412776D02*
D03*
X414350D02*
D03*
X415925D02*
D03*
X417500D02*
D03*
X419075D02*
D03*
X420650D02*
D03*
X422224D02*
D03*
X423799D02*
D03*
X425374D02*
D03*
X426949D02*
D03*
D40*
X420571Y161636D02*
D03*
X417500D02*
D03*
X420571Y174908D02*
D03*
X417500D02*
D03*
D41*
X393299Y357047D02*
D03*
Y359016D02*
D03*
Y360984D02*
D03*
Y362953D02*
D03*
X386701D02*
D03*
Y360984D02*
D03*
Y359016D02*
D03*
Y357047D02*
D03*
D42*
X421500Y369461D02*
D03*
Y364539D02*
D03*
X404500Y375461D02*
D03*
Y370539D02*
D03*
D43*
X396240Y386700D02*
D03*
X392500D02*
D03*
X388760D02*
D03*
Y377300D02*
D03*
X396240D02*
D03*
D44*
X432925Y392831D02*
D03*
X436075D02*
D03*
Y387319D02*
D03*
X432925D02*
D03*
D45*
X381000Y353228D02*
D03*
Y356772D02*
D03*
D46*
X417500Y183395D02*
D03*
Y179930D02*
D03*
D47*
X399000Y362461D02*
D03*
Y357539D02*
D03*
D48*
X395961Y136000D02*
D03*
X416039D02*
D03*
D49*
X393299Y345500D02*
D03*
X387000D02*
D03*
D50*
X417500Y204900D02*
D03*
D51*
X421732Y200000D02*
D03*
X413268D02*
D03*
D52*
X417500Y195200D02*
D03*
M02*
